<svg width="94" height="94" viewBox="0 0 94 94" fill="none" xmlns="">
<g filter="url(#filter0_d_6332_3057)">
<rect x="4" y="4" width="86" height="86" rx="43" fill="white" shape-rendering="crispEdges"/>
<rect x="10.5645" y="10.5645" width="72.8711" height="72.8711" rx="36.4355" stroke="white" stroke-width="13.1289" shape-rendering="crispEdges"/>
<path d="M48.7019 66.057C47.8887 66.8713 46.57 66.8713 45.7568 66.057L29.3468 49.6238C28.5335 48.8095 28.5335 47.4889 29.3468 46.6746L29.4392 46.582C30.2525 45.7676 31.5711 45.7676 32.3844 46.582L43.2491 57.4621C43.9315 58.1449 45.0978 57.6605 45.0978 56.6943V24.7568C45.0978 23.6051 46.0303 22.6713 47.1804 22.6713H47.2783C48.4284 22.6713 49.3609 23.6051 49.3609 24.7568V56.6943C49.3609 57.6605 50.5272 58.1449 51.2095 57.4621L62.0743 46.582C62.8876 45.7676 64.2062 45.7676 65.0195 46.582L65.1119 46.6746C65.9251 47.4889 65.9251 48.8095 65.1119 49.6238L48.7019 66.057Z" fill="#50C521" stroke="#50C521"/>
</g>
<defs>
<filter id="filter0_d_6332_3057" x="0" y="0" width="94" height="94" filterUnits="userSpaceOnUse" color-interpolation-filters="sRGB">
<feFlood flood-opacity="0" result="BackgroundImageFix"/>
<feColorMatrix in="SourceAlpha" type="matrix" values="0 0 0 0 0 0 0 0 0 0 0 0 0 0 0 0 0 0 127 0" result="hardAlpha"/>
<feOffset/>
<feGaussianBlur stdDeviation="2"/>
<feComposite in2="hardAlpha" operator="out"/>
<feColorMatrix type="matrix" values="0 0 0 0 0 0 0 0 0 0 0 0 0 0 0 0 0 0 0.1 0"/>
<feBlend mode="normal" in2="BackgroundImageFix" result="effect1_dropShadow_6332_3057"/>
<feBlend mode="normal" in="BackgroundImageFix" in2="effect1_dropShadow_6332_3057" result="BackgroundImageFix"/>
<feBlend mode="normal" in="SourceGraphic" in2="BackgroundImageFix" result="shape"/>
</filter>
</defs>
</svg>
