<svg width="29" height="22" viewBox="0 0 29 22" fill="none" xmlns="">
<path d="M12.3397 3.20759C8.02989 0.477316 3.36476 1.95803 1.25737 3.21287C1.06335 3.3284 0.952876 3.53833 0.95287 3.76414C0.952744 8.17464 0.952861 15.1511 0.952879 19.8086C0.952881 20.3016 1.46701 20.6287 1.92961 20.4581C5.68844 19.0715 9.49988 19.6471 11.5673 20.3854C12.0579 20.5607 12.6385 20.2107 12.6385 19.6898L12.6385 3.75931C12.6385 3.53645 12.528 3.32685 12.3397 3.20759Z" stroke="#50C521" stroke-width="1.87805"/>
<path d="M27.3642 3.20759C23.0545 0.477316 18.3894 1.95803 16.282 3.21287C16.088 3.3284 15.9775 3.53833 15.9775 3.76414C15.9774 8.13374 15.9774 15.0219 15.9775 19.6784L15.9775 19.8086C15.9775 20.3017 16.4916 20.6287 16.9542 20.4581C20.713 19.0715 24.5244 19.6471 26.5918 20.3854C27.0824 20.5606 27.663 20.2107 27.663 19.6897L27.6631 3.75932C27.6631 3.53646 27.5525 3.32685 27.3642 3.20759Z" stroke="#50C521" stroke-width="1.87805"/>
</svg>
