<svg width="94" height="94" viewBox="0 0 94 94" fill="none" xmlns="">
<g filter="url(#filter0_d_6337_3195)">
<rect x="4" y="4" width="86" height="86" rx="43" fill="white" shape-rendering="crispEdges"/>
<rect x="10.5645" y="10.5645" width="72.8711" height="72.8711" rx="36.4355" stroke="white" stroke-width="13.1289" shape-rendering="crispEdges"/>
<path d="M76.0267 45.559C76.9546 46.4872 76.9541 47.9917 76.026 48.9198L63.2504 61.6954C62.5359 62.4097 61.3781 62.4098 60.6637 61.6954C59.9492 60.9809 59.9486 59.8225 60.663 59.108L68.3652 51.4058C69.2325 50.5385 68.6187 49.056 67.3922 49.0559L43.1538 49.0552C42.1507 49.0552 41.3377 48.2422 41.3377 47.2391C41.3379 46.2361 42.1508 45.423 43.1538 45.423H67.3915C68.618 45.423 69.2328 43.9404 68.3659 43.0731L60.6637 35.3709C59.9493 34.6565 59.9488 33.498 60.663 32.7834C61.3775 32.0689 62.5366 32.0689 63.2511 32.7834L76.0267 45.559Z" fill="#50C521" stroke="#50C521"/>
<path d="M18.9735 48.9195C18.0455 47.9913 18.0461 46.4868 18.9742 45.5587L31.7497 32.7831C32.4642 32.0688 33.622 32.0687 34.3365 32.7831C35.0509 33.4976 35.0515 34.656 34.3372 35.3705L26.6349 43.0728C25.7677 43.94 26.3814 45.4225 27.6079 45.4226L51.8463 45.4233C52.8494 45.4233 53.6624 46.2364 53.6624 47.2394C53.6623 48.2424 52.8493 49.0555 51.8463 49.0555L27.6086 49.0555C26.3822 49.0555 25.7673 50.5381 26.6342 51.4054L34.3365 59.1076C35.0509 59.822 35.0513 60.9805 34.3372 61.6951C33.6227 62.4096 32.4635 62.4096 31.749 61.6951L18.9735 48.9195Z" fill="#50C521" stroke="#50C521"/>
</g>
<defs>
<filter id="filter0_d_6337_3195" x="0" y="0" width="94" height="94" filterUnits="userSpaceOnUse" color-interpolation-filters="sRGB">
<feFlood flood-opacity="0" result="BackgroundImageFix"/>
<feColorMatrix in="SourceAlpha" type="matrix" values="0 0 0 0 0 0 0 0 0 0 0 0 0 0 0 0 0 0 127 0" result="hardAlpha"/>
<feOffset/>
<feGaussianBlur stdDeviation="2"/>
<feComposite in2="hardAlpha" operator="out"/>
<feColorMatrix type="matrix" values="0 0 0 0 0 0 0 0 0 0 0 0 0 0 0 0 0 0 0.1 0"/>
<feBlend mode="normal" in2="BackgroundImageFix" result="effect1_dropShadow_6337_3195"/>
<feBlend mode="normal" in="BackgroundImageFix" in2="effect1_dropShadow_6337_3195" result="BackgroundImageFix"/>
<feBlend mode="normal" in="SourceGraphic" in2="BackgroundImageFix" result="shape"/>
</filter>
</defs>
</svg>
