<svg width="25" height="23" viewBox="0 0 25 23" fill="none" xmlns="http://www.w3.org/2000/svg">
<path d="M14.5245 15.018L10.1612 10.7516C9.67639 10.2776 9.7267 9.48461 10.27 9.07894C12.644 7.30631 18.4311 2.98166 20.2791 1.56839C22.6254 -0.225794 25.3856 1.5682 23.4534 4.46669C21.9384 6.73944 17.8777 12.491 16.195 14.8683C15.803 15.4222 15.0097 15.4924 14.5245 15.018Z" stroke="#50C521" stroke-width="1.55993"/>
<path d="M12.5833 16.6398C11.631 15.718 9.90406 14.0167 8.53638 12.725C8.23743 12.4427 7.80314 12.3497 7.42258 12.5054C5.36371 13.3481 4.55934 14.3763 4.2121 16.7595C3.84705 18.3983 2.88474 18.3037 2.17842 18.5845C0.342166 19.3145 1.36271 20.8901 2.99407 21.3929C4.62543 21.8958 7.65725 22.0597 9.48605 21.4676C11.1536 20.9276 12.6664 19.0002 12.8835 17.4052C12.9226 17.1174 12.792 16.8417 12.5833 16.6398Z" stroke="#50C521" stroke-width="1.55993"/>
</svg>
