<svg width="94" height="94" viewBox="0 0 94 94" fill="none" xmlns="">
<g filter="url(#filter0_d_6337_3250)">
<rect x="4" y="4" width="86" height="86" rx="43" fill="white" shape-rendering="crispEdges"/>
<rect x="10.5645" y="10.5645" width="72.8711" height="72.8711" rx="36.4355" stroke="white" stroke-width="13.1289" shape-rendering="crispEdges"/>
<path d="M44.7243 25.1955C45.7754 24.1446 47.4794 24.1446 48.5305 25.1955L64.4763 41.1413C65.3157 41.9808 65.3157 43.3416 64.4763 44.1811C63.6369 45.0205 62.276 45.0205 61.4366 44.1811L51.6483 34.3928C50.5827 33.3271 48.7606 34.0818 48.7605 35.5888L48.7605 65.9888C48.7603 67.1667 47.8053 68.1219 46.6274 68.1219C45.4495 68.1219 44.4945 67.1667 44.4944 65.9888L44.4944 35.5888C44.4942 34.0818 42.6722 33.3271 41.6065 34.3928L31.8182 44.1811C30.9788 45.0205 29.6179 45.0205 28.7785 44.1811C27.9391 43.3417 27.9391 41.9808 28.7785 41.1414L44.7243 25.1955Z" fill="#50C521" stroke="#50C521"/>
</g>
<defs>
<filter id="filter0_d_6337_3250" x="0" y="0" width="94" height="94" filterUnits="userSpaceOnUse" color-interpolation-filters="sRGB">
<feFlood flood-opacity="0" result="BackgroundImageFix"/>
<feColorMatrix in="SourceAlpha" type="matrix" values="0 0 0 0 0 0 0 0 0 0 0 0 0 0 0 0 0 0 127 0" result="hardAlpha"/>
<feOffset/>
<feGaussianBlur stdDeviation="2"/>
<feComposite in2="hardAlpha" operator="out"/>
<feColorMatrix type="matrix" values="0 0 0 0 0 0 0 0 0 0 0 0 0 0 0 0 0 0 0.1 0"/>
<feBlend mode="normal" in2="BackgroundImageFix" result="effect1_dropShadow_6337_3250"/>
<feBlend mode="normal" in="BackgroundImageFix" in2="effect1_dropShadow_6337_3250" result="BackgroundImageFix"/>
<feBlend mode="normal" in="SourceGraphic" in2="BackgroundImageFix" result="shape"/>
</filter>
</defs>
</svg>
