<svg width="29" height="28" viewBox="0 0 29 28" fill="none" xmlns="">
<path d="M3.18646 25.2565V22.3563C3.18646 21.7514 3.67688 21.261 4.28184 21.261H5.62173C5.89626 21.261 6.16098 21.1581 6.36158 20.9707C6.73852 20.6185 7.27522 20.1091 7.68413 19.6963C8.36559 19.0083 9.72852 18.922 10.5463 18.922H17.2246C18.747 18.922 18.7239 20.8383 17.2246 20.8383H13.681C12.727 20.8383 12.62 23.0397 13.5741 23.0397H17.8369C18.078 23.0397 18.3104 22.9609 18.5027 22.8155C19.8032 21.8319 22.4877 19.8625 23.4941 19.0497C24.8411 17.9618 26.5754 19.9832 24.9933 21.261C24.3119 21.8114 20.7368 24.6559 19.9505 25.2512C18.8601 26.0766 18.1787 26.3519 16.5432 26.3519H4.28C3.67504 26.3519 3.18646 25.8615 3.18646 25.2565Z" stroke="#50C521" stroke-width="1.52252"/>
<path d="M15.0515 16.3052L14.4811 14.0234" stroke="#50C521" stroke-width="2.00332" stroke-linecap="round"/>
<path d="M15.0515 16.3052L15.6219 14.0234" stroke="#50C521" stroke-width="2.00332" stroke-linecap="round"/>
<circle cx="15.0516" cy="9.91681" r="3.65079" stroke="#50C521" stroke-width="1.8254"/>
</svg>
