<svg width="18" height="18" viewBox="0 0 18 18" fill="none" xmlns="">
<path d="M13.8359 2.99219C13.8359 3.15847 13.9022 3.31793 14.0201 3.43551C14.1381 3.55309 14.298 3.61914 14.4648 3.61914C14.6316 3.61914 14.7916 3.55309 14.9095 3.43551C15.0275 3.31793 15.0937 3.15847 15.0937 2.99219C15.0937 2.82591 15.0275 2.66644 14.9095 2.54886C14.7916 2.43129 14.6316 2.36523 14.4648 2.36523C14.298 2.36523 14.1381 2.43129 14.0201 2.54886C13.9022 2.66644 13.8359 2.82591 13.8359 2.99219Z" fill="black"/>
<path d="M6.86523 12.0195C6.98047 12.0195 7.08984 11.9883 7.18164 11.9316L11.6953 9.30273C11.9082 9.20117 12.0566 8.98438 12.0566 8.73242C12.0566 8.5 11.9316 8.29688 11.7441 8.18945L7.33203 5.61914C7.21875 5.48828 7.05078 5.40625 6.86523 5.40625C6.52148 5.40625 6.24414 5.6875 6.24414 6.0332C6.24414 6.04492 6.24414 6.05664 6.24609 6.06836L6.23828 6.07227L6.24805 11.3262C6.24609 11.3477 6.24414 11.3691 6.24414 11.3926C6.24414 11.7383 6.52344 12.0195 6.86523 12.0195Z" fill="black"/>
<path d="M16.5137 4.72852C16.4082 4.52344 16.1953 4.38086 15.9492 4.38086C15.6016 4.38086 15.3203 4.66211 15.3203 5.00781C15.3203 5.125 15.3535 5.23633 15.4102 5.33008L15.4082 5.33203C15.9336 6.35547 16.2305 7.51562 16.2305 8.74414C16.2305 12.877 12.8789 16.2285 8.74609 16.2285C4.61328 16.2285 1.25977 12.877 1.25977 8.74414C1.25977 4.61133 4.61133 1.26172 8.74414 1.26172C9.96484 1.26172 11.1172 1.55469 12.1348 2.07227L12.1387 2.06445C12.2285 2.11523 12.334 2.14453 12.4453 2.14453C12.793 2.14453 13.0742 1.86328 13.0742 1.51758C13.0742 1.26172 12.9199 1.04102 12.6973 0.943359C11.5098 0.339844 10.168 0 8.74414 0C3.91406 0 0 3.91602 0 8.74414C0 13.5723 3.91406 17.4883 8.74414 17.4883C13.5742 17.4883 17.4883 13.5742 17.4883 8.74414C17.4883 7.29687 17.1367 5.93164 16.5137 4.72852Z" fill="black"/>
</svg>
