<svg width="16" height="16" viewBox="0 0 16 16" fill="none" xmlns="">
<path d="M10.6654 14V12.6667C10.6654 11.9594 10.3844 11.2811 9.88432 10.781C9.38422 10.281 8.70594 10 7.9987 10H3.9987C3.29145 10 2.61318 10.281 2.11308 10.781C1.61298 11.2811 1.33203 11.9594 1.33203 12.6667V14" stroke="#D4FE94" stroke-width="1.33333" stroke-linecap="round" stroke-linejoin="round"/>
<path d="M5.9987 7.33333C7.47146 7.33333 8.66536 6.13943 8.66536 4.66667C8.66536 3.19391 7.47146 2 5.9987 2C4.52594 2 3.33203 3.19391 3.33203 4.66667C3.33203 6.13943 4.52594 7.33333 5.9987 7.33333Z" stroke="#D4FE94" stroke-width="1.33333" stroke-linecap="round" stroke-linejoin="round"/>
<path d="M14.668 13.9998V12.6664C14.6675 12.0756 14.4709 11.5016 14.1089 11.0346C13.7469 10.5677 13.2401 10.2341 12.668 10.0864" stroke="#D4FE94" stroke-width="1.33333" stroke-linecap="round" stroke-linejoin="round"/>
<path d="M10.668 2.08643C11.2416 2.23329 11.75 2.56689 12.1131 3.03463C12.4761 3.50237 12.6732 4.07765 12.6732 4.66976C12.6732 5.26187 12.4761 5.83715 12.1131 6.30489C11.75 6.77262 11.2416 7.10623 10.668 7.25309" stroke="#D4FE94" stroke-width="1.33333" stroke-linecap="round" stroke-linejoin="round"/>
</svg>
