<svg width="36" height="36" viewBox="0 0 36 36" fill="none" xmlns="">
<path fill-rule="evenodd" clip-rule="evenodd" d="M27.7196 29.4712C27.65 29.5408 27.5674 29.596 27.4765 29.6337C27.3856 29.6714 27.2881 29.6907 27.1897 29.6907C27.0913 29.6907 26.9939 29.6714 26.9029 29.6337C26.812 29.596 26.7294 29.5408 26.6598 29.4712L6.5291 9.33822C6.4595 9.26864 6.40429 9.18604 6.36662 9.09512C6.32896 9.0042 6.30957 8.90675 6.30957 8.80834C6.30957 8.70993 6.32896 8.61249 6.36662 8.52157C6.40429 8.43065 6.4595 8.34805 6.5291 8.27847L8.2796 6.52797C8.5721 6.23547 9.0446 6.23547 9.33935 6.52797L29.4701 26.6587C29.7626 26.9512 29.7626 27.426 29.4701 27.7185L27.7196 29.4712Z" fill="#696969"/>
<path fill-rule="evenodd" clip-rule="evenodd" d="M8.2796 29.4711C8.5721 29.7636 9.0446 29.7636 9.33935 29.4711L29.4701 9.34032C29.5397 9.27075 29.5949 9.18814 29.6326 9.09722C29.6702 9.0063 29.6896 8.90886 29.6896 8.81045C29.6896 8.71204 29.6702 8.61459 29.6326 8.52367C29.5949 8.43276 29.5397 8.35015 29.4701 8.28057L27.7196 6.53007C27.65 6.46048 27.5674 6.40527 27.4765 6.3676C27.3856 6.32993 27.2881 6.31055 27.1897 6.31055C27.0913 6.31055 26.9939 6.32993 26.9029 6.3676C26.812 6.40527 26.7294 6.46048 26.6598 6.53007L6.5291 26.6631C6.4595 26.7327 6.40429 26.8153 6.36662 26.9062C6.32896 26.9971 6.30957 27.0945 6.30957 27.1929C6.30957 27.2914 6.32896 27.3888 6.36662 27.4797C6.40429 27.5706 6.4595 27.6532 6.5291 27.7228L8.2796 29.4733V29.4711Z" fill="#696969"/>
</svg>
