<svg width="33" height="33" viewBox="0 0 33 33" fill="none" xmlns="">
<path d="M4.6189 27.1278C4.98 27.5033 5.25268 27.7818 5.43694 27.9632C5.59564 28.1198 6.04248 28.4968 6.77746 29.0941C6.93946 29.2258 7.16453 29.3556 7.35559 29.4997C7.52007 29.6238 7.66372 29.7235 7.78656 29.799C8.75898 30.395 9.59701 30.8303 10.3007 31.1049C11.0946 31.414 11.8102 31.6463 12.4475 31.8017C13.0662 31.9522 13.7695 32.0758 14.5572 32.1727C15.2909 32.2634 16.0033 32.2972 16.6941 32.2741C17.6859 32.242 18.7043 32.1232 19.6911 31.8957C20.1899 31.7807 20.4746 31.7131 20.545 31.6929C21.4577 31.4307 22.3172 31.1059 23.1235 30.7184C24.2694 30.1673 25.3445 29.4649 26.3486 28.6112C28.2704 26.9771 29.7234 25.0043 30.7078 22.6926C31.0763 21.8269 31.3694 20.9083 31.5871 19.9367C31.7223 19.3316 31.8183 18.6634 31.8752 17.9321C31.9036 17.5628 31.9164 17.3721 31.9135 17.3602C31.9073 17.3346 31.9187 17.1491 31.9475 16.8037C31.971 16.5217 31.971 16.1301 31.9475 15.6289C31.9018 14.647 31.8134 13.7164 31.605 12.7994C30.9327 9.84588 29.567 7.29468 27.508 5.1458C26.8633 4.47307 26.1708 3.87474 25.4304 3.35081C24.6658 2.80957 23.876 2.34542 23.061 1.95835C22.6443 1.76048 22.191 1.57581 21.7013 1.40433C21.2145 1.23408 20.7458 1.09146 20.2952 0.976449C19.1872 0.694493 18.0786 0.537852 16.9693 0.506523C15.8452 0.474783 14.6497 0.558874 13.383 0.758799C12.6897 0.86886 11.8318 1.09352 10.8095 1.43277C10.3402 1.58859 9.69224 1.88106 9.34103 2.05109C8.35048 2.53091 7.42711 3.10657 6.57094 3.77807C4.45998 5.43476 2.88017 7.46637 1.8315 9.87288C1.4976 10.6384 1.26223 11.3 1.12537 11.8577C0.934104 12.6364 0.814352 13.1669 0.766123 13.4493C0.712947 13.765 0.651941 14.2269 0.583101 14.8349C0.457582 15.9423 0.48788 16.9218 0.58372 17.9568C0.874951 21.0948 2.0881 24.0183 4.05622 26.4569C4.27841 26.7319 4.46535 26.9547 4.61704 27.1253C4.61786 27.1261 4.61849 27.127 4.6189 27.1278Z" stroke="#9FD277" stroke-linejoin="round"/>
<path d="M22.0606 17.7094C22.296 17.5181 22.5505 17.4808 22.8242 17.5975C22.8482 17.6078 22.8857 17.6008 22.9368 17.5765C23.0654 17.5159 23.2441 17.527 23.3504 17.5925C23.5438 17.7129 23.6402 17.8943 23.6398 18.1367C23.6373 19.4117 23.6384 20.2511 23.6429 20.6551C23.6495 21.3159 23.6237 21.7545 23.5656 21.9709C23.3072 22.9287 22.5367 23.6682 21.561 23.8487C21.0482 23.944 20.534 23.8817 20.0183 23.662C20.0129 23.6598 20.007 23.6589 20.0011 23.6594C19.9953 23.6599 19.9897 23.6619 19.9848 23.6651C19.9799 23.6682 19.9759 23.6726 19.9731 23.6776C19.9703 23.6827 19.9689 23.6884 19.9688 23.6942C19.968 23.7696 19.9525 23.8428 19.9225 23.9137C19.7969 24.2086 19.4148 24.2766 19.2151 24.0144C19.0593 23.8098 19.1496 23.5006 19.2275 23.2644C19.2551 23.1795 19.2425 23.1096 19.1897 23.0548C18.928 22.7832 18.7345 22.5053 18.6091 22.2213C18.0224 20.8901 18.7223 19.4896 20.0226 18.9621C20.3367 18.8348 20.7436 18.7099 21.1059 18.5027C21.2659 18.4112 21.4683 18.257 21.7131 18.0402C21.8904 17.8832 21.9864 17.7879 22.0013 17.7545C22.0046 17.747 22.0059 17.7387 22.0051 17.7303C22.0042 17.722 22.0012 17.7139 21.9963 17.7069C21.9773 17.6797 21.9685 17.662 21.9697 17.6538C22.0074 17.3539 21.937 17.054 21.94 16.7454C21.9499 15.7405 21.9543 14.5545 21.953 13.1876C21.953 13.1827 21.952 13.1778 21.9501 13.1733C21.9482 13.1687 21.9455 13.1646 21.9419 13.1612C21.9384 13.1577 21.9343 13.155 21.9297 13.1532C21.9251 13.1513 21.9202 13.1504 21.9153 13.1505C20.8654 13.1546 19.9814 13.154 19.2633 13.1487C19.1838 13.1482 19.0727 13.1291 18.93 13.0912C18.4156 12.9533 18.018 12.5885 17.8412 12.1037C17.7822 11.9417 17.7534 11.668 17.7546 11.2826C17.7575 10.2895 17.7581 9.54466 17.7565 9.04794C17.7565 9.03777 17.7524 9.02802 17.7452 9.02083C17.738 9.01364 17.7283 9.0096 17.7181 9.0096C15.4819 9.01043 12.9906 9.01125 10.2445 9.01208C9.86605 9.01208 9.67622 9.20273 9.67499 9.58402C9.66551 12.31 9.66633 16.2467 9.67746 21.394C9.67828 21.6116 9.6787 21.8338 9.6787 22.0605C9.6787 22.2906 9.70178 22.4406 9.74795 22.5107C9.8747 22.7042 10.046 22.7438 10.2902 22.7438C12.9861 22.7463 15.6148 22.7456 18.1763 22.7419C18.4706 22.7415 18.6421 22.7479 18.6908 22.7611C19.0259 22.8514 19.2714 23.2385 19.084 23.5655C18.9682 23.7671 18.7829 23.8681 18.5281 23.8685C15.7609 23.8698 13.0993 23.8702 10.5431 23.8698C10.0835 23.8698 9.78278 23.8471 9.64098 23.8017C9.14879 23.6453 8.73761 23.2255 8.58859 22.7215C8.55232 22.5983 8.53418 22.3813 8.53418 22.0704C8.53665 17.5216 8.53727 13.5201 8.53604 10.0657C8.53604 9.52899 8.54799 9.20911 8.5719 9.10606C8.69556 8.57183 9.10118 8.13097 9.63541 7.95845C9.76526 7.91641 9.98703 7.89559 10.3007 7.896C13.5119 7.89806 16.2684 7.90054 18.5702 7.90342C18.9597 7.90404 19.2998 7.97391 19.5552 8.23484C20.1834 8.87666 21.1824 9.90596 22.5522 11.3227C22.912 11.695 23.0759 11.9794 23.0839 12.4456C23.0844 12.4774 23.086 13.7659 23.0889 16.3114C23.0893 16.6828 23.0596 16.9225 22.9999 17.0305C22.8663 17.27 22.646 17.4035 22.3389 17.4312C22.3157 17.4332 22.293 17.4408 22.2727 17.4534C22.1651 17.5202 22.0856 17.5979 22.034 17.6865C22.0321 17.6901 22.0314 17.6943 22.0321 17.6983C22.0328 17.7024 22.0349 17.706 22.0381 17.7087C22.0412 17.7114 22.0451 17.7129 22.0492 17.7131C22.0533 17.7132 22.0573 17.7119 22.0606 17.7094ZM18.8868 9.2019C18.8789 9.62277 18.8777 10.353 18.8831 11.3926C18.8843 11.6443 18.9214 11.8075 19.1149 11.9386C19.1891 11.9889 19.3396 12.0151 19.5663 12.0171C20.3883 12.025 21.0696 12.0229 21.6105 12.0109C21.6146 12.0109 21.6187 12.0097 21.6221 12.0074C21.6256 12.0051 21.6283 12.0018 21.6299 11.998C21.6314 11.9941 21.6319 11.9899 21.6311 11.9858C21.6302 11.9818 21.6282 11.978 21.6253 11.9751L18.9121 9.19201C18.9101 9.18996 18.9075 9.18855 18.9047 9.18795C18.9018 9.18735 18.8989 9.1876 18.8962 9.18865C18.8935 9.1897 18.8912 9.19151 18.8895 9.19387C18.8878 9.19622 18.8869 9.19901 18.8868 9.2019ZM22.6827 18.4526C22.6818 18.4474 22.6795 18.4425 22.676 18.4385C22.6726 18.4345 22.6681 18.4315 22.6631 18.4299C22.658 18.4282 22.6527 18.4279 22.6475 18.4291C22.6424 18.4303 22.6376 18.4329 22.6338 18.4366C22.4516 18.6196 22.2443 18.8084 22.0118 19.0029C21.6408 19.3133 21.2147 19.4995 20.759 19.6615C20.4342 19.7773 20.2063 19.8795 20.0752 19.9681C19.3592 20.4517 19.0846 21.3538 19.6015 22.097C19.6062 22.1038 19.6125 22.1092 19.6199 22.1127C19.6273 22.1162 19.6355 22.1177 19.6437 22.117C19.6519 22.1163 19.6597 22.1135 19.6664 22.1088C19.6732 22.1041 19.6785 22.0977 19.6819 22.0902C19.7825 21.8709 19.9272 21.6044 20.116 21.2907C20.4845 20.678 21.067 20.1017 21.595 19.6689C21.859 19.4525 22.1905 19.6819 22.1398 19.991C22.1282 20.0603 22.0645 20.1421 21.9487 20.2365C21.6655 20.4673 21.3526 20.7953 21.0101 21.2202C20.8518 21.4165 20.7368 21.5851 20.6651 21.726C20.5377 21.9771 20.3219 22.3134 20.21 22.6325C20.2037 22.6499 20.2039 22.6689 20.2105 22.6861C20.2171 22.7034 20.2296 22.7177 20.2458 22.7265C20.832 23.0505 21.5548 23.0381 22.0779 22.6109C22.4335 22.3209 22.635 21.995 22.6703 21.5498C22.6913 21.2769 22.6987 20.9535 22.6925 20.5797C22.6808 19.8723 22.6969 19.4537 22.6987 18.8898C22.6995 18.6734 22.6942 18.5277 22.6827 18.4526Z" fill="black"/>
<path d="M15.7107 14.1231L12.5029 14.1287C12.2915 14.1291 12.1204 14.3008 12.1208 14.5121L12.1208 14.5294C12.1212 14.7408 12.2928 14.9119 12.5042 14.9115L15.7121 14.9059C15.9235 14.9056 16.0945 14.7339 16.0942 14.5225L16.0941 14.5052C16.0938 14.2938 15.9221 14.1228 15.7107 14.1231Z" fill="black"/>
<path d="M17.646 15.5776H12.6314C12.3377 15.5776 12.0996 15.8157 12.0996 16.1094V16.1366C12.0996 16.4303 12.3377 16.6684 12.6314 16.6684H17.646C17.9396 16.6684 18.1777 16.4303 18.1777 16.1366V16.1094C18.1777 15.8157 17.9396 15.5776 17.646 15.5776Z" fill="black"/>
<path d="M15.9851 17.8828H12.6276C12.3387 17.8828 12.1045 18.117 12.1045 18.4059V18.4344C12.1045 18.7233 12.3387 18.9575 12.6276 18.9575H15.9851C16.274 18.9575 16.5082 18.7233 16.5082 18.4344V18.4059C16.5082 18.117 16.274 17.8828 15.9851 17.8828Z" fill="black"/>
</svg>
