<svg width="33" height="33" viewBox="0 0 33 33" fill="none" xmlns="">
<path d="M28.1818 6.27177C27.5028 5.41354 26.7287 4.67959 25.9137 3.96357C25.7274 3.79951 25.5829 3.68512 25.4803 3.6204C25.2932 3.50292 25.138 3.39513 25.0147 3.29702C24.6381 2.99651 24.1552 2.74176 23.7162 2.46846C23.5724 2.3786 23.3745 2.2706 23.1226 2.14446C22.2858 1.72524 21.4091 1.37815 20.4923 1.1032C20.299 1.04508 19.8387 0.93461 19.1116 0.771785C18.8556 0.71428 18.5916 0.697587 18.3121 0.653068C18.1249 0.623388 17.9248 0.599477 17.7117 0.58134C16.9091 0.5125 16.2172 0.487357 15.636 0.505906C14.7406 0.535174 13.7812 0.667907 12.7577 0.904107C11.5202 1.19018 10.3423 1.6094 9.22397 2.16177C7.25069 3.13625 5.56184 4.47554 4.15743 6.17964C2.64872 8.00988 1.51719 10.2123 0.945856 12.5669C0.827963 13.0537 0.745107 13.4598 0.69729 13.785C0.660191 14.0369 0.616496 14.3846 0.566206 14.8281C0.524778 15.1966 0.527251 15.4421 0.504991 15.8465C0.482114 16.2534 0.544564 16.9385 0.557549 17.2946C0.568266 17.5997 0.584137 17.827 0.60516 17.9766C0.73913 18.9478 0.868566 19.6834 0.993467 20.1834C1.65507 22.829 2.93067 25.1801 4.82027 27.2366C5.18714 27.6357 5.60162 28.0262 6.06372 28.4084C6.55879 28.8173 7.01305 29.1609 7.4265 29.4391C9.39771 30.7648 11.5163 31.6041 13.7822 31.9569C15.9101 32.2887 18.0173 32.1867 20.104 31.6508C22.6793 30.9899 25.0753 29.6401 26.9977 27.7393C29.1568 25.6036 30.6804 22.8793 31.3284 19.9132C31.3754 19.6993 31.3983 19.5002 31.4471 19.2745C31.4698 19.1706 31.4974 19.0107 31.53 18.7947C31.6444 18.0273 31.7353 17.1481 31.7068 16.3523C31.6953 16.0246 31.686 15.6519 31.679 15.2344C31.6771 15.1027 31.6314 14.9611 31.6289 14.8151C31.6281 14.7669 31.6151 14.662 31.59 14.5004C31.543 14.1966 31.504 13.9476 31.4731 13.7535C31.0316 10.9817 29.9345 8.48784 28.1818 6.27177Z" stroke="#9FD277" stroke-linejoin="round"/>
<path d="M11.3184 11.3615C11.2751 11.2669 11.1892 11.1346 11.1669 11.0623C10.9184 10.2572 11.0602 9.5585 11.5923 8.96614C12.4704 7.98796 13.89 7.96755 14.9443 8.74664C15.4575 9.12567 15.8742 9.64692 16.2069 10.1811C16.2094 10.1851 16.2129 10.1883 16.2169 10.1906C16.221 10.1929 16.2256 10.1941 16.2302 10.1942C16.2348 10.1942 16.2393 10.1931 16.2434 10.191C16.2474 10.1888 16.2508 10.1856 16.2533 10.1818C16.4307 9.91341 16.6583 9.65557 16.8536 9.43916C17.5085 8.71325 18.4842 8.09492 19.5118 8.27918C20.9742 8.54074 21.6642 10.0835 20.9074 11.3739C20.9051 11.3778 20.904 11.3822 20.904 11.3866C20.9041 11.3911 20.9054 11.3955 20.9077 11.3993C20.9101 11.4031 20.9134 11.4062 20.9174 11.4083C20.9213 11.4103 20.9258 11.4113 20.9303 11.411C20.9558 11.4089 21.5265 11.4083 22.6424 11.4091C23.1243 11.4096 23.5175 11.5882 23.8221 11.9452C24.0862 12.255 24.1579 12.5796 24.1554 13.0038C24.1534 13.4251 24.155 13.9544 24.1604 14.5916C24.1624 14.8353 24.1472 15.0206 24.1146 15.1475C23.9905 15.6343 23.6803 15.9559 23.184 16.1121C23.171 16.1162 23.1595 16.1244 23.1514 16.1355C23.1433 16.1466 23.1389 16.1601 23.1389 16.1739C23.1418 18.4275 23.1424 20.3829 23.1408 22.04C23.1403 22.3965 23.1111 22.6515 23.053 22.8048C22.8736 23.2766 22.4513 23.6872 21.9523 23.8337C21.8044 23.8774 21.571 23.8995 21.2524 23.8999C18.2626 23.9028 14.8253 23.9028 10.9406 23.8999C10.7011 23.8995 10.4744 23.8473 10.2605 23.7434C9.60834 23.4269 9.28125 22.9064 9.27919 22.1822C9.27342 20.3841 9.27321 18.3803 9.27857 16.1708C9.27856 16.1573 9.27477 16.1441 9.26766 16.1327C9.26055 16.1213 9.2504 16.1123 9.23838 16.1065C9.16109 16.0688 9.06216 16.0429 8.97312 15.9934C8.69487 15.8392 8.49578 15.6156 8.37582 15.3225C8.31069 15.1638 8.28142 14.8891 8.28802 14.4983C8.2975 13.9315 8.29853 13.517 8.29111 13.2548C8.27957 12.8455 8.30739 12.5551 8.37458 12.3836C8.48547 12.1004 8.66293 11.8696 8.90696 11.6911C9.29898 11.4042 9.64524 11.4141 10.2172 11.4116C10.8582 11.4083 11.216 11.4063 11.2906 11.4054C11.2958 11.4054 11.3008 11.4041 11.3054 11.4015C11.3099 11.399 11.3137 11.3954 11.3165 11.3911C11.3192 11.3867 11.3209 11.3817 11.3212 11.3765C11.3216 11.3714 11.3206 11.3662 11.3184 11.3615ZM16.8642 11.3659C16.8613 11.3707 16.8598 11.3762 16.8597 11.3818C16.8597 11.3875 16.8612 11.393 16.8641 11.3979C16.8669 11.4027 16.871 11.4067 16.8759 11.4095C16.8808 11.4122 16.8864 11.4136 16.892 11.4135C17.5544 11.4044 18.1734 11.4044 18.7488 11.4135C19.0027 11.4176 19.1849 11.3997 19.2954 11.3597C19.9218 11.1327 20.3045 10.3203 19.8235 9.76873C19.4753 9.36991 18.8885 9.36249 18.4415 9.62095C17.7459 10.0229 17.2549 10.6795 16.8642 11.3659ZM15.4717 11.3869C15.1943 10.8461 14.8488 10.3745 14.4354 9.97215C13.8795 9.4305 12.9063 9.15597 12.4104 9.95793C12.0759 10.4996 12.4963 11.1439 13.0108 11.3498C13.1221 11.3943 13.342 11.4157 13.6705 11.4141C14.5646 11.41 15.1603 11.4085 15.4575 11.4098C15.4602 11.4097 15.4629 11.409 15.4653 11.4076C15.4677 11.4063 15.4698 11.4044 15.4712 11.4021C15.4726 11.3998 15.4734 11.3972 15.4735 11.3945C15.4736 11.3918 15.473 11.3892 15.4717 11.3869ZM15.5762 14.9732V12.5988C15.5762 12.5812 15.5692 12.5644 15.5568 12.552C15.5444 12.5396 15.5276 12.5326 15.51 12.5326H9.90617C9.8391 12.5326 9.77269 12.5445 9.71072 12.5677C9.64876 12.5908 9.59245 12.6248 9.54503 12.6676C9.4976 12.7103 9.45998 12.7611 9.43431 12.817C9.40865 12.8729 9.39544 12.9328 9.39544 12.9933V14.5787C9.39544 14.7008 9.44924 14.818 9.54503 14.9044C9.64081 14.9908 9.77071 15.0393 9.90617 15.0393H15.51C15.5276 15.0393 15.5444 15.0323 15.5568 15.0199C15.5692 15.0075 15.5762 14.9907 15.5762 14.9732ZM16.7102 12.6006V14.9701C16.7102 14.9883 16.7174 15.0057 16.7303 15.0186C16.7432 15.0315 16.7606 15.0387 16.7788 15.0387H22.5503C22.6155 15.0387 22.68 15.0266 22.7403 15.0032C22.8005 14.9797 22.8552 14.9453 22.9013 14.902C22.9475 14.8586 22.984 14.8071 23.009 14.7505C23.0339 14.6939 23.0468 14.6332 23.0468 14.5719V12.9988C23.0468 12.9375 23.0339 12.8768 23.009 12.8202C22.984 12.7636 22.9475 12.7121 22.9013 12.6687C22.8552 12.6254 22.8005 12.591 22.7403 12.5675C22.68 12.5441 22.6155 12.532 22.5503 12.532H16.7788C16.7606 12.532 16.7432 12.5392 16.7303 12.5521C16.7174 12.565 16.7102 12.5824 16.7102 12.6006ZM15.5366 16.1461H10.4509C10.4387 16.1461 10.427 16.1509 10.4183 16.1595C10.4097 16.168 10.4047 16.1797 10.4045 16.1919C10.3984 19.9719 10.3984 21.9625 10.4045 22.1636C10.412 22.3965 10.5024 22.5748 10.676 22.6985C10.7527 22.7529 10.9017 22.7805 11.123 22.7813C13.2608 22.7892 14.7204 22.7873 15.502 22.7758C15.5171 22.7756 15.5316 22.7695 15.5423 22.7587C15.5529 22.7479 15.5589 22.7334 15.5589 22.7183V16.1684C15.5589 16.1625 15.5565 16.1568 15.5524 16.1526C15.5482 16.1485 15.5425 16.1461 15.5366 16.1461ZM22.0228 16.1616C22.0228 16.1575 22.0212 16.1535 22.0183 16.1506C22.0154 16.1477 22.0115 16.1461 22.0074 16.1461H16.743C16.7269 16.1461 16.7115 16.1525 16.7001 16.1639C16.6888 16.1752 16.6824 16.1906 16.6824 16.2067V22.7313C16.6824 22.7452 16.6879 22.7586 16.6978 22.7684C16.7076 22.7783 16.721 22.7838 16.7349 22.7838C17.735 22.7855 19.2729 22.7855 21.3489 22.7838C21.6275 22.7838 21.8231 22.6909 21.9356 22.5049C21.9942 22.4085 22.0234 22.23 22.0234 21.9695C22.0243 18.6281 22.0241 16.6921 22.0228 16.1616Z" fill="black"/>
</svg>
