<svg width="12" height="11" viewBox="0 0 12 11" fill="none" xmlns="">
<path d="M5.77207 0C6.12735 0 6.43906 0.239314 6.7072 0.717941C7.04908 1.32795 7.40034 2.07539 7.76098 2.96024C7.77915 3.00448 7.80901 3.04287 7.84731 3.07124C7.8856 3.09961 7.93087 3.11686 7.97817 3.12112C9.06145 3.21765 9.951 3.32625 10.6468 3.44692C11.1201 3.53004 11.4097 3.76868 11.5156 4.16284C11.6302 4.58315 11.3668 4.94111 11.0611 5.23472C10.4417 5.83669 9.81961 6.40983 9.19485 6.95415C9.1632 6.98149 9.13944 7.01696 9.12601 7.0569C9.11258 7.09683 9.10996 7.13981 9.11843 7.1814C9.35171 8.3545 9.50589 9.16026 9.58097 9.59867C9.62923 9.87887 9.62186 10.1383 9.55884 10.3769C9.54175 10.4427 9.50697 10.5025 9.45829 10.5499C9.05475 10.9521 8.61567 11.0299 8.14107 10.7832C7.0846 10.2362 6.31974 9.83194 5.84648 9.57051C5.84514 9.56917 5.82033 9.5685 5.77207 9.5685C5.7238 9.5685 5.699 9.56917 5.69766 9.57051C5.2244 9.83194 4.45953 10.2362 3.40307 10.7832C2.92847 11.0299 2.48939 10.9521 2.08584 10.5499C2.03716 10.5025 2.00239 10.4427 1.98529 10.3769C1.92228 10.1383 1.91491 9.87887 1.96317 9.59867C2.03825 9.16026 2.19243 8.3545 2.42571 7.1814C2.43418 7.13981 2.43156 7.09683 2.41813 7.0569C2.4047 7.01696 2.38094 6.98149 2.34929 6.95415C1.72453 6.40983 1.10245 5.83669 0.483049 5.23472C0.177372 4.94111 -0.086074 4.58315 0.0265439 4.16284C0.132458 3.76868 0.422047 3.53004 0.895311 3.44692C1.59113 3.32625 2.48068 3.21765 3.56395 3.12112C3.61126 3.11686 3.65652 3.09961 3.69482 3.07124C3.73311 3.04287 3.76297 3.00448 3.78114 2.96024C4.14179 2.07539 4.49305 1.32795 4.83493 0.717941C5.10306 0.239314 5.41545 0 5.77207 0ZM4.25977 3.8994C4.19408 3.94766 4.10961 3.98051 4.00638 3.99794C3.31593 4.11726 2.41632 4.252 1.30757 4.40216C1.28635 4.4051 1.26631 4.41386 1.24972 4.42745C1.23314 4.44105 1.22068 4.45892 1.21376 4.47904C1.20685 4.49915 1.20575 4.52071 1.2106 4.54125C1.21546 4.56179 1.22606 4.58049 1.24121 4.59521L3.25828 6.61228C3.31777 6.67175 3.36173 6.74487 3.38628 6.82518C3.41083 6.90549 3.41521 6.99054 3.39905 7.07281L2.86814 9.79574C2.86318 9.8191 2.86515 9.8434 2.8738 9.86565C2.88245 9.88791 2.89741 9.90715 2.91684 9.92103C2.93626 9.93491 2.95932 9.94281 2.98318 9.94378C3.00703 9.94475 3.03065 9.93873 3.05114 9.92647L5.49052 8.51874C5.57065 8.47229 5.6615 8.44765 5.75397 8.4473C5.84644 8.44695 5.93728 8.47089 6.01742 8.51673C6.91165 9.02351 7.77975 9.50817 8.6217 9.9707C8.63377 9.97741 8.64785 9.97406 8.66394 9.96065C8.68137 9.94858 8.68874 9.93585 8.68606 9.92244C8.5064 8.97994 8.31335 8.00525 8.10688 6.9984C8.08802 6.90797 8.09332 6.81411 8.12226 6.72622C8.15121 6.63834 8.20277 6.55951 8.27178 6.49765L10.3653 4.6113C10.3829 4.59549 10.3955 4.57493 10.4017 4.55209C10.4079 4.52925 10.4073 4.50511 10.4001 4.48258C10.3929 4.46005 10.3793 4.44009 10.361 4.42511C10.3427 4.41013 10.3204 4.40075 10.2969 4.39813L7.54379 4.06229C7.46048 4.05206 7.38093 4.02138 7.31218 3.97298C7.24344 3.92457 7.18761 3.85993 7.14963 3.78477L5.85452 1.24282C5.84525 1.22361 5.83069 1.20752 5.81252 1.19641C5.79434 1.18531 5.7733 1.17963 5.75183 1.18005C5.73037 1.18047 5.70935 1.18698 5.69122 1.1988C5.67309 1.21062 5.65859 1.22727 5.6494 1.24684C5.16407 2.25504 4.75784 3.06884 4.43071 3.68824C4.38244 3.78074 4.32546 3.85113 4.25977 3.8994Z" fill="#030303"/>
</svg>
