<svg width="13" height="12" viewBox="0 0 13 12" fill="none" xmlns="">
<path d="M6.84287 5.81014C8.62599 6.69365 9.47062 8.12484 9.37677 10.1037C9.33856 10.9342 8.66487 11.1736 7.87453 11.1736C7.08621 11.1722 5.01752 11.1816 1.66848 11.2017C0.681062 11.2078 0.0294873 11.0247 0.00133283 9.95286C-0.044921 8.10472 1.11746 6.56226 2.74639 5.74981C2.75846 5.74377 2.76895 5.73499 2.77702 5.72417C2.78509 5.71335 2.79051 5.70079 2.79286 5.6875C2.7952 5.67421 2.7944 5.66055 2.79053 5.64763C2.78665 5.6347 2.7798 5.62286 2.77053 5.61306C2.52116 5.3476 2.3214 5.117 2.17124 4.92126C1.00685 3.41701 1.71473 1.36374 3.23306 0.440677C5.88562 -1.17217 9.20181 1.95297 7.5045 4.79054C7.32753 5.08616 6.92934 5.33955 6.78254 5.63317C6.76721 5.66466 6.76495 5.70093 6.77626 5.73408C6.78756 5.76722 6.8115 5.79457 6.84287 5.81014ZM4.18054 1.08592C3.91146 1.16409 3.66078 1.29575 3.4428 1.47337C3.22483 1.65099 3.04383 1.87109 2.91014 2.12112C2.77646 2.37115 2.6927 2.6462 2.66365 2.93056C2.63461 3.21493 2.66084 3.50305 2.74086 3.77847C2.90246 4.3347 3.27331 4.80542 3.77183 5.0871C4.27036 5.36878 4.85572 5.43833 5.39914 5.28045C5.66822 5.20228 5.9189 5.07062 6.13688 4.893C6.35485 4.71538 6.53585 4.49527 6.66954 4.24525C6.80322 3.99522 6.88698 3.72017 6.91603 3.4358C6.94507 3.15143 6.91884 2.86332 6.83882 2.5879C6.67722 2.03167 6.30637 1.56094 5.80784 1.27926C5.30932 0.997589 4.72396 0.92804 4.18054 1.08592ZM1.28829 10.1995L8.1982 10.1875C8.25599 10.1869 8.31123 10.1636 8.35191 10.1226C8.39258 10.0815 8.4154 10.0261 8.41539 9.96827V9.77522C8.41379 8.86584 8.05207 7.99435 7.40979 7.35245C6.76752 6.71056 5.89731 6.35084 4.9906 6.35244H4.4798C4.03084 6.35323 3.58644 6.4427 3.17195 6.61574C2.75747 6.78878 2.38104 7.04201 2.06413 7.36097C1.74723 7.67992 1.49608 8.05836 1.325 8.47467C1.15392 8.89098 1.06628 9.337 1.06708 9.78728V9.98034C1.06708 10.0093 1.07281 10.038 1.08395 10.0647C1.09509 10.0914 1.11142 10.1157 1.13199 10.1361C1.15256 10.1564 1.17696 10.1725 1.20379 10.1834C1.23062 10.1943 1.25934 10.1998 1.28829 10.1995Z" fill="#030303"/>
<path d="M10.0568 5.91582C10.2739 6.07268 10.6621 6.28183 10.9718 6.57343C11.6864 7.23841 12.0584 8.12528 12.0879 9.23403C12.104 9.81723 11.8942 10.204 11.4584 10.3944C11.4359 10.4037 11.412 10.4085 11.3881 10.4085H10.5716C10.5022 10.4085 10.4357 10.3809 10.3867 10.3319C10.3377 10.2829 10.3101 10.2164 10.3101 10.147V9.7388C10.3101 9.67106 10.337 9.6061 10.3849 9.5582C10.4328 9.5103 10.4978 9.4834 10.5655 9.4834H11.016C11.034 9.48348 11.0518 9.47979 11.0682 9.47258C11.0847 9.46537 11.0994 9.4548 11.1116 9.44154C11.1237 9.42828 11.1329 9.41262 11.1386 9.39559C11.1443 9.37855 11.1464 9.36051 11.1447 9.34262C11.0656 8.47251 10.8457 7.8625 10.4851 7.51258C9.91397 6.96156 9.3187 6.39378 8.6993 5.80924C8.67952 5.7903 8.66456 5.76686 8.65573 5.74095C8.6469 5.71504 8.64446 5.68744 8.64862 5.66052C8.65278 5.6336 8.66341 5.60817 8.67959 5.58644C8.69578 5.5647 8.71704 5.5473 8.74153 5.53574C9.75107 5.04907 10.3443 3.68357 9.45545 2.75649C9.39512 2.69481 9.20206 2.56611 8.87627 2.37037C8.81153 2.33206 8.75698 2.2782 8.7174 2.21351C8.63562 2.08212 8.57059 1.8656 8.52233 1.56394C8.52007 1.54921 8.52087 1.53416 8.52468 1.51975C8.52849 1.50534 8.53523 1.49186 8.54447 1.48016C8.55372 1.46847 8.56527 1.4588 8.57842 1.45176C8.59156 1.44472 8.60601 1.44047 8.62087 1.43926C9.87777 1.33067 10.7485 2.47494 10.8431 3.62525C10.9034 4.37202 10.6346 5.06582 10.0366 5.70667C10.0232 5.72123 10.0129 5.73848 10.0066 5.75728C10.0002 5.77608 9.99794 5.796 9.99984 5.81575C10.0017 5.8355 10.0078 5.85462 10.0176 5.87187C10.0274 5.88912 10.0407 5.90409 10.0568 5.91582Z" fill="#030303"/>
</svg>
