<svg width="11" height="12" viewBox="0 0 11 12" fill="none" xmlns="">
<path d="M5.17442 0C5.35675 0 5.50691 0.0375388 5.62489 0.112617C6.87977 0.903624 8.23856 1.48615 9.70125 1.86021C10.0686 1.95405 10.2684 2.20611 10.3005 2.61636C10.3354 3.05878 10.3542 3.81762 10.3569 4.89285C10.3629 6.69876 9.90638 8.20904 8.77618 9.46795C7.87255 10.4775 6.78123 11.2846 5.50221 11.8892C5.44054 11.9187 5.33396 11.9335 5.18246 11.9335C5.0323 11.9335 4.92572 11.9187 4.86271 11.8892C3.58369 11.2873 2.4917 10.4815 1.58673 9.47197C0.45452 8.21507 -0.00399585 6.7068 2.62136e-05 4.90089C0.0013669 3.82566 0.0187963 3.06683 0.0523135 2.6244C0.0844901 2.21281 0.284253 1.96009 0.651602 1.86624C2.11295 1.49085 3.47107 0.906305 4.72596 0.112617C4.84394 0.0375388 4.99342 0 5.17442 0ZM5.18232 10.9142C5.19975 10.9142 5.21584 10.9109 5.23059 10.9042C7.05259 10.1138 8.46232 8.79056 9.14808 6.90622C9.33176 6.4048 9.40751 5.74518 9.37533 4.92736C9.36863 4.75576 9.3693 4.08742 9.37734 2.92236C9.37776 2.87711 9.3629 2.83303 9.33516 2.79727C9.30743 2.7615 9.26844 2.73615 9.2245 2.72529C7.81812 2.38609 6.52436 1.8344 5.34321 1.0702C5.31774 1.05411 5.26679 1.04607 5.19037 1.04607C5.11395 1.04607 5.06233 1.05411 5.03552 1.0702C3.85437 1.83305 2.55994 2.38274 1.15221 2.71925C1.10828 2.73011 1.06929 2.75547 1.04155 2.79124C1.01382 2.827 0.998957 2.87107 0.999374 2.91633C1.00608 4.08139 1.00608 4.74972 0.999374 4.92133C0.965857 5.73915 1.04027 6.39877 1.2226 6.90019C1.90635 8.78654 3.31407 10.1118 5.13607 10.9042C5.15082 10.9109 5.16624 10.9142 5.18232 10.9142Z" fill="#030303"/>
<path d="M4.65981 6.38487C4.68152 6.4041 4.70992 6.41404 4.73888 6.41253C4.76784 6.41103 4.79506 6.39821 4.81466 6.37683L6.60247 4.38993C6.64563 4.34171 6.69802 4.30261 6.75657 4.27493C6.81511 4.24726 6.87864 4.23155 6.94344 4.22874C7.00823 4.22594 7.07299 4.23607 7.13392 4.25857C7.19485 4.28107 7.25073 4.31547 7.29829 4.35977L7.34655 4.40401C7.38903 4.43682 7.42425 4.47809 7.44999 4.52523C7.47574 4.57237 7.49147 4.62436 7.49619 4.67797C7.50091 4.73158 7.49452 4.78564 7.47742 4.83677C7.46032 4.88791 7.43289 4.93501 7.39683 4.97514L5.08414 7.54524C5.05685 7.57556 5.02385 7.6002 4.98702 7.61772C4.95019 7.63525 4.91027 7.64533 4.86953 7.64739C4.8288 7.64944 4.78805 7.64343 4.74965 7.6297C4.71124 7.61597 4.67593 7.59478 4.64573 7.56736L3.13343 6.20791C3.09694 6.17493 3.06732 6.13507 3.04625 6.09062C3.02518 6.04617 3.01309 5.998 3.01066 5.94888C3.00823 5.89975 3.01552 5.85062 3.0321 5.80431C3.04868 5.75801 3.07423 5.71543 3.10729 5.67901L3.21186 5.56035C3.24327 5.5255 3.28122 5.49716 3.32353 5.47696C3.36584 5.45677 3.41168 5.44512 3.4584 5.44269C3.50512 5.44026 3.55181 5.4471 3.59579 5.4628C3.63976 5.47851 3.68015 5.50278 3.71462 5.53421L4.65981 6.38487Z" fill="#030303"/>
</svg>
