<svg width="11" height="12" viewBox="0 0 11 12" fill="none" xmlns="">
<path d="M5.27577 0C5.58815 0 5.84557 0.0549697 6.04801 0.164906C7.44367 0.919714 8.58459 1.58871 9.47079 2.17191C10.6754 2.96627 10.5386 4.33579 10.5366 5.66107C10.5366 6.98634 10.6714 8.35785 9.46476 9.14819C8.57722 9.73005 7.43495 10.3977 6.03795 11.1512C5.83551 11.2598 5.57877 11.3141 5.26773 11.3141C4.95535 11.3141 4.69794 11.2591 4.49549 11.1492C3.09983 10.3944 1.95891 9.72536 1.07271 9.14217C-0.133909 8.34781 0.0048519 6.97829 0.0048519 5.65301C0.00686293 4.32774 -0.129887 2.95824 1.07874 2.16589C1.96494 1.58403 3.10654 0.917033 4.50354 0.164906C4.70732 0.0549697 4.96473 0 5.27577 0ZM1.04849 5.65689C1.05251 6.6061 0.841351 7.92735 1.71012 8.39995C1.7557 8.42408 2.86311 9.05219 5.03235 10.2843C5.09536 10.3191 5.19055 10.3366 5.31791 10.3366C5.44528 10.3352 5.54047 10.3165 5.60348 10.2803C7.76065 9.0294 8.86203 8.3919 8.90761 8.36776C9.77235 7.88713 9.54913 6.56789 9.54511 5.61868C9.54108 4.66948 9.75224 3.34823 8.88348 2.87363C8.83789 2.8495 7.73048 2.22204 5.56125 0.991292C5.49824 0.955093 5.40305 0.937662 5.27568 0.939003C5.14831 0.939003 5.05313 0.957106 4.99011 0.993305C2.83294 2.24417 1.73157 2.88167 1.68599 2.9058C0.821241 3.38845 1.04447 4.70768 1.04849 5.65689Z" fill="#030303"/>
<path d="M7.14446 5.64841C7.14446 5.89454 7.09598 6.13826 7.00179 6.36566C6.9076 6.59306 6.76954 6.79968 6.59549 6.97372C6.42145 7.14777 6.21483 7.28582 5.98743 7.38002C5.76003 7.47421 5.51631 7.52269 5.27017 7.52269C4.77308 7.52269 4.29635 7.32522 3.94486 6.97372C3.59336 6.62223 3.39589 6.1455 3.39589 5.64841C3.39589 5.15132 3.59336 4.67458 3.94486 4.32308C4.29635 3.97159 4.77308 3.77412 5.27017 3.77412C5.51631 3.77412 5.76003 3.8226 5.98743 3.91679C6.21483 4.01098 6.42145 4.14904 6.59549 4.32308C6.76954 4.49713 6.9076 4.70374 7.00179 4.93114C7.09598 5.15854 7.14446 5.40227 7.14446 5.64841ZM6.23094 5.63643C6.23094 5.38308 6.13029 5.14011 5.95115 4.96097C5.77201 4.78182 5.52904 4.68119 5.27569 4.68119C5.02235 4.68119 4.77938 4.78182 4.60024 4.96097C4.42109 5.14011 4.32045 5.38308 4.32045 5.63643C4.32045 5.88977 4.42109 6.13274 4.60024 6.31188C4.77938 6.49103 5.02235 6.59167 5.27569 6.59167C5.52904 6.59167 5.77201 6.49103 5.95115 6.31188C6.13029 6.13274 6.23094 5.88977 6.23094 5.63643Z" fill="#030303"/>
</svg>
