<svg width="13" height="13" viewBox="0 0 13 13" fill="none" xmlns="">
<g clip-path="url(#clip0_9466_3906)">
<path d="M12.1197 4.66696C12.092 4.58154 12.0409 4.50558 11.9722 4.44768C11.9035 4.38979 11.82 4.35226 11.7311 4.33934L8.21207 3.828L6.63829 0.639193C6.59855 0.558645 6.53705 0.490825 6.46077 0.443403C6.38449 0.395982 6.29646 0.37085 6.20664 0.37085C6.11682 0.37085 6.02879 0.395982 5.9525 0.443403C5.87622 0.490825 5.81473 0.558645 5.77498 0.639193L4.20121 3.82802L0.682143 4.33936C0.593262 4.35228 0.509769 4.38981 0.441104 4.44771C0.372438 4.50561 0.321339 4.58156 0.293583 4.66698C0.265827 4.7524 0.262521 4.84388 0.28404 4.93108C0.305558 5.01828 0.351042 5.09772 0.41535 5.16042L2.96178 7.64258L2.36066 11.1474C2.34547 11.2359 2.35535 11.327 2.38919 11.4102C2.42303 11.4934 2.47948 11.5654 2.55215 11.6182C2.62481 11.671 2.7108 11.7024 2.80039 11.7089C2.88998 11.7154 2.9796 11.6967 3.0591 11.6549L6.20664 10.0001L9.35419 11.6549C9.45898 11.7102 9.70051 11.723 9.86114 11.6182C10.014 11.5185 10.0836 11.328 10.0526 11.1474L9.45151 7.64258L11.9979 5.16042C12.0622 5.09773 12.1077 5.01829 12.1293 4.93108C12.1508 4.84388 12.1475 4.75239 12.1197 4.66696Z" fill="#FFAA00"/>
</g>
<defs>
<clipPath id="clip0_9466_3906">
<rect width="12.4138" height="12.4138" fill="white"/>
</clipPath>
</defs>
</svg>
