<svg width="121" height="31" viewBox="0 0 121 31" fill="none" xmlns="http://www.w3.org/2000/svg">
<path d="M18.1085 2.4V6.176H7.0365C6.05517 6.176 5.3405 6.42133 4.8925 6.912C4.4445 7.38133 4.2205 7.98933 4.2205 8.736C4.2205 9.056 4.26317 9.376 4.3485 9.696C4.45517 9.99467 4.62583 10.272 4.8605 10.528C5.1165 10.7627 5.44717 10.9547 5.8525 11.104C6.25783 11.232 6.7805 11.296 7.4205 11.296H12.4765C13.9485 11.296 15.1538 11.488 16.0925 11.872C17.0312 12.2347 17.7672 12.7147 18.3005 13.312C18.8552 13.9093 19.2285 14.592 19.4205 15.36C19.6338 16.128 19.7405 16.896 19.7405 17.664C19.7405 18.5813 19.6125 19.424 19.3565 20.192C19.1005 20.96 18.6952 21.632 18.1405 22.208C17.5858 22.7627 16.8712 23.2 15.9965 23.52C15.1432 23.84 14.0978 24 12.8605 24H0.8285V20.224H12.9885C14.0125 20.224 14.7592 19.9787 15.2285 19.488C15.7192 18.976 15.9645 18.3253 15.9645 17.536C15.9645 17.1947 15.9112 16.864 15.8045 16.544C15.6978 16.2027 15.5165 15.9147 15.2605 15.68C15.0045 15.424 14.6525 15.2213 14.2045 15.072C13.7778 14.9227 13.2338 14.848 12.5725 14.848H7.5485C6.09783 14.848 4.91383 14.6667 3.9965 14.304C3.07917 13.9413 2.35383 13.4613 1.8205 12.864C1.3085 12.2667 0.945833 11.5947 0.7325 10.848C0.5405 10.1013 0.4445 9.35467 0.4445 8.608C0.4445 7.712 0.561833 6.89067 0.7965 6.144C1.0525 5.376 1.44717 4.71467 1.9805 4.16C2.53517 3.60533 3.23917 3.17867 4.0925 2.88C4.94583 2.56 5.96983 2.4 7.1645 2.4H18.1085ZM27.0725 7.104V17.216C27.0725 18.2187 27.4245 19.0507 28.1285 19.712C28.8538 20.3733 29.8885 20.704 31.2325 20.704H33.9845C35.3285 20.704 36.3525 20.3733 37.0565 19.712C37.7605 19.0507 38.1125 18.2187 38.1125 17.216V7.104H41.4405V17.344C41.4405 18.3253 41.2805 19.2213 40.9605 20.032C40.6618 20.8427 40.2032 21.5467 39.5845 22.144C38.9658 22.72 38.1978 23.1787 37.2805 23.52C36.3845 23.84 35.3285 24 34.1125 24H30.9765C29.7605 24 28.6938 23.84 27.7765 23.52C26.8805 23.1787 26.1232 22.72 25.5045 22.144C24.8858 21.5467 24.4165 20.8427 24.0965 20.032C23.7978 19.2213 23.6485 18.3253 23.6485 17.344V7.104H27.0725ZM57.0293 7.104C59.2693 7.104 61.0399 7.808 62.3413 9.216C63.6639 10.6027 64.3253 12.7147 64.3253 15.552C64.3253 18.4107 63.6639 20.5333 62.3413 21.92C61.0399 23.3067 59.2693 24 57.0293 24H49.5413V30.784H46.1493V14.336C46.1493 11.8827 46.6719 10.0693 47.7173 8.896C48.7626 7.70133 50.3093 7.104 52.3573 7.104H57.0293ZM49.5413 20.704H56.6773C58.1493 20.704 59.2159 20.3093 59.8773 19.52C60.5599 18.7093 60.9013 17.3867 60.9013 15.552C60.9013 13.7173 60.5599 12.3947 59.8773 11.584C59.2159 10.7733 58.1493 10.368 56.6773 10.368H53.3493C51.9626 10.368 50.9813 10.688 50.4053 11.328C49.8293 11.968 49.5413 13.024 49.5413 14.496V20.704ZM79.4088 7.104C81.4141 7.104 82.8648 7.56267 83.7608 8.48C84.6568 9.376 85.1048 10.6453 85.1048 12.288C85.1048 13.8453 84.6674 15.0507 83.7928 15.904C82.9181 16.736 81.4461 17.152 79.3768 17.152H71.3448V18.368C71.3448 19.0507 71.5368 19.616 71.9208 20.064C72.3261 20.4907 72.9981 20.704 73.9368 20.704H84.2728V24H73.9368C72.8701 24 71.9634 23.8613 71.2168 23.584C70.4914 23.3067 69.8834 22.9227 69.3928 22.432C68.9234 21.92 68.5821 21.3333 68.3688 20.672C68.1554 19.9893 68.0488 19.2427 68.0488 18.432V12.672C68.0488 11.8827 68.1554 11.1467 68.3688 10.464C68.5821 9.78133 68.9234 9.19467 69.3928 8.704C69.8834 8.192 70.4914 7.79733 71.2168 7.52C71.9634 7.24267 72.8701 7.104 73.9368 7.104H79.4088ZM71.3448 14.496H79.2808C80.1981 14.496 80.8381 14.3147 81.2008 13.952C81.5848 13.5893 81.7768 13.0987 81.7768 12.48C81.7768 11.84 81.5848 11.328 81.2008 10.944C80.8168 10.56 80.2088 10.368 79.3768 10.368H73.9368C72.9981 10.368 72.3261 10.592 71.9208 11.04C71.5368 11.488 71.3448 12.0427 71.3448 12.704V14.496ZM100.764 7.104V10.368H94.8118C93.3611 10.368 92.6358 11.0933 92.6358 12.544V24H89.2438V12.032C89.2438 10.3253 89.5851 9.07733 90.2678 8.288C90.9718 7.49867 92.1558 7.104 93.8198 7.104H100.764ZM114.008 12.224V15.488H102.584V12.224H114.008ZM120.762 7.104V24H117.37V7.104H120.762ZM120.794 0.735998V4.672H117.37V0.735998H120.794Z" fill="white"/>
</svg>
