<svg t="1636629738326" class="icon" viewBox="0 0 1024 1024" version="1.1" xmlns="http://www.w3.org/2000/svg" p-id="4904" width="200" height="200"><path d="M0 0m219.428571 0l585.142858 0q219.428571 0 219.428571 219.428571l0 585.142858q0 219.428571-219.428571 219.428571l-585.142858 0q-219.428571 0-219.428571-219.428571l0-585.142858q0-219.428571 219.428571-219.428571Z" fill="#15BC84" p-id="4905"></path><path d="M512 702.72c-89.782857 0-177.462857-4.662857-177.462857-60.544 0-45.257143 61.293714-113.737143 140.507428-130.925714a92.434286 92.434286 0 1 1 73.910858 0c79.213714 17.188571 140.507429 85.686857 140.507428 130.925714 0 55.881143-87.661714 60.544-177.462857 60.544z m-123.136-448.091429v27.081143a7.314286 7.314286 0 0 1-7.314286 7.314286h-59.190857a33.371429 33.371429 0 0 0-33.334857 33.316571v65.554286a7.314286 7.314286 0 0 1-7.314286 7.314286h-27.081143a7.314286 7.314286 0 0 1-7.314285-7.314286v-65.554286a75.117714 75.117714 0 0 1 75.044571-75.026285h59.190857a7.314286 7.314286 0 0 1 7.314286 7.314285z m387.84 67.712v65.554286a7.314286 7.314286 0 0 1-7.314286 7.314286h-27.099428a7.314286 7.314286 0 0 1-7.314286-7.314286v-65.536a33.371429 33.371429 0 0 0-33.316571-33.334857h-71.936a7.314286 7.314286 0 0 1-7.314286-7.314286v-27.081143a7.314286 7.314286 0 0 1 7.314286-7.314285h71.936a75.117714 75.117714 0 0 1 75.026285 75.044571z m0 313.746286v65.554286a75.117714 75.117714 0 0 1-75.044571 75.044571h-71.936a7.314286 7.314286 0 0 1-7.314286-7.314285v-27.081143a7.314286 7.314286 0 0 1 7.314286-7.314286h71.936a33.371429 33.371429 0 0 0 33.334857-33.334857v-65.554286a7.314286 7.314286 0 0 1 7.296-7.314286h27.099428c4.022857 0 7.314286 3.273143 7.314286 7.314286z m-387.84 106.203429v27.081143a7.314286 7.314286 0 0 1-7.314286 7.314285h-59.190857a75.117714 75.117714 0 0 1-75.044571-75.044571v-65.554286a7.314286 7.314286 0 0 1 7.314285-7.314286h27.081143a7.314286 7.314286 0 0 1 7.314286 7.314286v65.554286a33.371429 33.371429 0 0 0 33.334857 33.334857h59.190857a7.314286 7.314286 0 0 1 7.314286 7.296z" fill="#FFFFFF" p-id="4906"></path></svg>