<svg t="1635937643482" class="icon" viewBox="0 0 1024 1024" version="1.1" xmlns="http://www.w3.org/2000/svg" p-id="48741" width="200" height="200"><path d="M981.333333 896h-42.666666v-392.533333c0-38.4-25.6-72.533333-64-81.066667L640 349.866667V128c0-46.933333-38.4-85.333333-85.333333-85.333333H170.666667c-46.933333 0-85.333333 38.4-85.333334 85.333333v768H42.666667c-25.6 0-42.666667 17.066667-42.666667 42.666667s17.066667 42.666667 42.666667 42.666666h938.666666c25.6 0 42.666667-17.066667 42.666667-42.666666s-17.066667-42.666667-42.666667-42.666667zM277.333333 298.666667h170.666667c25.6 0 42.666667 17.066667 42.666667 42.666666s-17.066667 42.666667-42.666667 42.666667h-170.666667c-25.6 0-42.666667-17.066667-42.666666-42.666667s17.066667-42.666667 42.666666-42.666666z m0 170.666666h170.666667c25.6 0 42.666667 17.066667 42.666667 42.666667s-17.066667 42.666667-42.666667 42.666667h-170.666667c-25.6 0-42.666667-17.066667-42.666666-42.666667s17.066667-42.666667 42.666666-42.666667zM640 896V439.466667l213.333333 59.733333V896h-213.333333z" p-id="48742"></path></svg>