<svg t="1636212218826" class="icon" viewBox="0 0 1024 1024" version="1.1" xmlns="http://www.w3.org/2000/svg" p-id="1328" width="200" height="200"><path d="M888.61 1024H135.39C60.73 1024 0 963.27 0 888.61V135.39C0 60.73 60.73 0 135.39 0H512c24.85 0 45 20.15 45 45s-20.15 45-45 45H135.39C110.36 90 90 110.36 90 135.39v753.23c0 25.03 20.36 45.39 45.39 45.39h753.23c25.03 0 45.39-20.36 45.39-45.39V512c0-24.85 20.15-45 45-45s45 20.15 45 45v376.61C1024 963.27 963.27 1024 888.61 1024z" p-id="1329"></path><path d="M301.75 797.29c-19.45 0-38.5-7.62-52.96-22.08-22.02-22.02-28.19-54.69-15.71-83.23l77.45-177.12c6.79-15.54 16.32-29.5 28.31-41.49L781.4 30.83C801.28 10.95 827.71 0 855.83 0c28.12 0 54.55 10.95 74.43 30.83l62.92 62.92c41.04 41.04 41.04 107.82 0 148.86L550.62 685.15a134.746 134.746 0 0 1-41.49 28.31l-177.11 77.45c-9.8 4.29-20.09 6.38-30.27 6.38zM855.83 90c-2.36 0-6.9 0.58-10.79 4.47L402.49 537.02c-4.02 4.02-7.21 8.7-9.49 13.91l-62.23 142.31L473.07 631c5.21-2.28 9.89-5.47 13.91-9.49l442.55-442.55c5.95-5.95 5.95-15.63 0-21.58l-62.92-62.92c-3.88-3.88-8.42-4.46-10.78-4.46z" p-id="1330"></path></svg>