<svg t="1635911561149" class="icon" viewBox="0 0 1024 1024" version="1.1" xmlns="http://www.w3.org/2000/svg" p-id="876" width="200" height="200"><path d="M747.776 907.5712h-477.184a33.28 33.28 0 1 1 0-66.56h477.184a33.28 33.28 0 1 1 0 66.56zM795.904 113.3056h-573.44c-69.5808 0-126.208 56.6272-126.208 126.208v406.0672c0 69.5808 56.6272 126.208 126.208 126.208h573.44c69.5808 0 126.208-56.6272 126.208-126.208V239.5136c0-69.5808-56.576-126.208-126.208-126.208z m-410.624 501.3504a33.28 33.28 0 1 1-66.56 0V459.4176a33.28 33.28 0 1 1 66.56 0v155.2384z m154.9312 0a33.28 33.28 0 1 1-66.56 0V282.1632a33.28 33.28 0 1 1 66.56 0v332.4928z m157.184 0a33.28 33.28 0 1 1-66.56 0V374.784a33.28 33.28 0 1 1 66.56 0v239.872z" fill="#6893DF" p-id="877"></path></svg>