<svg t="1636115927806" class="icon" viewBox="0 0 1024 1024" version="1.1" xmlns="http://www.w3.org/2000/svg" p-id="3592" width="200" height="200"><path d="M880.184889 85.333333c24.462222 0 44.259556 19.797333 44.259555 44.259556v619.463111c0 24.462222-19.797333 44.202667-44.259555 44.202667H747.52v132.778666a44.373333 44.373333 0 0 1-44.544 44.259556H172.544a44.316444 44.316444 0 0 1-44.544-44.259556l0.113778-619.52c0-24.348444 19.911111-44.202667 44.600889-44.202666H304.924444V129.592889c0-24.462222 19.797333-44.259556 44.259556-44.259556h530.944zM457.102222 350.833778c-67.640889 0-122.140444 22.186667-163.612444 66.673778-41.528889 44.373333-62.236444 106.780444-62.236445 187.164444 0 75.889778 20.593778 135.793778 61.895111 179.541333 41.244444 43.804444 93.923556 65.706667 158.037334 65.706667 51.768889 0 94.492444-12.8 128.227555-38.343111 30.606222-23.267556 53.304889-57.685333 68.039111-103.367111l4.209778-13.994667-94.492444-29.980444c-8.135111 35.328-21.504 61.212444-40.163556 77.710222-18.659556 16.440889-40.96 24.689778-66.844444 24.689778-35.100444 0-63.658667-12.970667-85.560889-38.855111-21.959111-25.884444-32.995556-69.404444-32.995556-130.389334 0-57.457778 11.207111-99.100444 33.450667-124.757333 22.300444-25.713778 51.313778-38.513778 87.04-38.513778 25.941333 0 47.957333 7.224889 66.048 21.731556 15.530667 12.401778 26.510222 28.672 32.881778 48.867555l2.844444 10.353778 96.483556-23.04c-10.979556-38.627556-27.477333-68.266667-49.379556-88.860444-36.864-34.929778-84.821333-52.337778-143.928889-52.337778zM393.500444 262.257778h353.962667v442.481778h88.462222V173.852444H393.500444V262.257778z" p-id="3593"></path></svg>