<svg t="1636294115668" class="icon" viewBox="0 0 1024 1024" version="1.1" xmlns="http://www.w3.org/2000/svg" p-id="4679" width="200" height="200"><path d="M375.467 273.067H204.8c-20.48 0-34.133 13.653-34.133 34.133s13.653 34.133 34.133 34.133h170.667c20.48 0 34.133-13.653 34.133-34.133s-13.653-34.133-34.133-34.133z m0 136.533H204.8c-20.48 0-34.133 13.653-34.133 34.133s13.653 34.134 34.133 34.134h170.667c20.48 0 34.133-13.654 34.133-34.134S395.947 409.6 375.467 409.6z m0 136.533H204.8c-20.48 0-34.133 13.654-34.133 34.134S184.32 614.4 204.8 614.4h170.667c20.48 0 34.133-13.653 34.133-34.133s-13.653-34.134-34.133-34.134z m604.16 314.027l-75.094-75.093c58.027-78.507 51.2-191.147-20.48-262.827-78.506-78.507-208.213-78.507-290.133 0-37.547 37.547-61.44 88.747-61.44 143.36s20.48 105.813 61.44 143.36c37.547 37.547 88.747 61.44 143.36 61.44 44.373 0 85.333-13.653 119.467-37.547l75.093 75.094c6.827 6.826 17.067 10.24 23.893 10.24s17.067-3.414 23.894-10.24c13.653-10.24 13.653-34.134 0-47.787z m-337.92-95.573c-27.307-27.307-40.96-61.44-40.96-95.574s13.653-71.68 40.96-95.573c27.306-27.307 61.44-40.96 95.573-40.96s68.267 13.653 95.573 40.96c54.614 54.613 54.614 139.947 0 194.56-47.786 47.787-139.946 47.787-191.146-3.413z" p-id="4680"></path><path d="M614.4 887.467H512v-614.4h341.333V409.6c0 20.48 13.654 34.133 34.134 34.133S921.6 430.08 921.6 409.6V273.067c0-37.547-30.72-68.267-71.68-68.267H512V102.4c0-37.547-30.72-68.267-64.853-68.267H133.12c-34.133 0-64.853 30.72-64.853 68.267v785.067c-20.48 0-34.134 13.653-34.134 34.133s13.654 34.133 34.134 34.133H614.4c20.48 0 34.133-13.653 34.133-34.133s-13.653-34.133-34.133-34.133z m-477.867 0L133.12 102.4h310.613v785.067h-307.2z" p-id="4681"></path></svg>