<svg t="1636099794853" class="icon" viewBox="0 0 1024 1024" version="1.1" xmlns="http://www.w3.org/2000/svg" p-id="18883" width="200" height="200"><path d="M720.0256 800a47.9744 47.9744 0 1 1 0 96H303.9744a47.9744 47.9744 0 1 1 0-96h416zM832 128c35.328 0 64 28.672 64 64v448c0 35.328-28.672 64-64 64H192c-35.328 0-64-28.672-64-64V192c0-35.328 28.672-64 64-64h640z m-109.4144 127.7952l-3.7888 3.8912-143.7184 171.4176L420.352 320c-13.312-9.6256-30.2592-6.912-40.96 5.4272l-3.328 4.5056-121.4976 191.8976c-10.5984 16.64-8.1408 40.2944 5.7856 53.504 5.9392 5.632 13.312 8.704 20.992 8.704a30.976 30.976 0 0 0 23.9104-11.776l2.9184-3.9936 103.3216-163.1744 151.296 108.6976c11.776 8.6016 26.6752 7.5264 37.4784-1.9456l3.84-3.8912 162.304-193.6896a44.032 44.032 0 0 0 6.656-43.3152l-2.4064-5.2224-3.584-5.3248L762.88 256a29.696 29.696 0 0 0-40.3456-0.2048z" p-id="18884"></path></svg>