<svg xmlns="" width="21" height="20" viewBox="0 0 21 20" fill="none">
  <path d="M4.29168 11.611C4.13501 11.6115 3.9814 11.5676 3.8487 11.4843C3.71601 11.401 3.60967 11.2818 3.54204 11.1404C3.47441 10.9991 3.44827 10.8415 3.46666 10.6859C3.48504 10.5303 3.5472 10.3831 3.6459 10.2615L11.8423 1.81673C11.9038 1.74576 11.9875 1.69781 12.0799 1.68073C12.1722 1.66366 12.2676 1.67848 12.3504 1.72276C12.4332 1.76705 12.4985 1.83817 12.5355 1.92445C12.5726 2.01073 12.5792 2.10704 12.5543 2.19757L10.9647 7.18163C10.9178 7.30708 10.9021 7.44203 10.9188 7.5749C10.9356 7.70777 10.9843 7.83459 11.0608 7.94449C11.1373 8.0544 11.2394 8.1441 11.3582 8.2059C11.477 8.2677 11.609 8.29975 11.7429 8.29932H17.5383C17.695 8.29878 17.8486 8.34271 17.9813 8.42601C18.114 8.5093 18.2204 8.62853 18.288 8.76986C18.3556 8.91118 18.3817 9.06879 18.3634 9.22438C18.345 9.37997 18.2828 9.52715 18.1841 9.64882L9.98774 18.0936C9.92626 18.1645 9.84248 18.2125 9.75015 18.2296C9.65782 18.2466 9.56242 18.2318 9.47963 18.1875C9.39683 18.1432 9.33155 18.0721 9.2945 17.9859C9.25745 17.8996 9.25083 17.8033 9.27574 17.7127L10.8653 12.7287C10.9122 12.6032 10.928 12.4683 10.9112 12.3354C10.8945 12.2025 10.8457 12.0757 10.7692 11.9658C10.6927 11.8559 10.5907 11.7662 10.4718 11.7044C10.353 11.6426 10.221 11.6105 10.0871 11.611H4.29168Z" stroke="black" stroke-width="1.65583" stroke-linecap="round" stroke-linejoin="round"/>
</svg>