<svg width="12" height="11" viewBox="0 0 12 11" fill="none" xmlns="">
<path d="M5.66106 10.2203C5.0477 10.2203 4.57913 9.80599 4.11458 9.33139C1.84345 6.99859 0.594598 5.68203 0.368022 5.38172C-0.124011 4.72612 -0.12267 4.01891 0.372044 3.26008C1.29444 1.84699 1.79183 1.0895 1.86423 0.987608C2.72294 -0.231079 4.04419 0.0283445 5.64497 0.0263334C7.24576 0.0223114 8.56499 -0.239123 9.42773 0.975541C9.50012 1.07743 10.0002 1.83358 10.928 3.24399C11.4254 4.00014 11.4287 4.70735 10.938 5.36563C10.7128 5.66594 9.46795 6.98585 7.20353 9.32536C6.74099 9.80398 6.27443 10.2183 5.66106 10.2203ZM5.8138 9.18611C6.0511 9.03193 6.31253 8.79798 6.5981 8.48425C7.61166 7.37282 8.6755 6.25871 9.78961 5.14192C9.91564 5.01589 10.0671 4.83892 10.2441 4.611C10.3077 4.52949 10.3436 4.4296 10.3465 4.32583C10.3494 4.22205 10.3191 4.11978 10.2602 4.03384C9.29356 2.63282 8.73516 1.81701 8.585 1.58641C8.3477 1.22308 7.97029 1.03807 7.45279 1.03136C5.34522 1.00857 4.06822 1.01125 3.62177 1.03941C3.25308 1.0622 2.99768 1.17616 2.85556 1.38128C2.25494 2.25541 1.72872 3.05245 1.2769 3.7724C0.766101 4.58888 1.24875 4.8845 1.88222 5.51798C2.89847 6.53556 4.04073 7.73749 5.30903 9.12376C5.37184 9.19223 5.45706 9.23608 5.5495 9.24749C5.64194 9.25891 5.7356 9.23715 5.8138 9.18611Z" fill="#030303"/>
<path d="M5.40744 6.58364L3.18525 4.35943C3.138 4.31179 3.10592 4.25123 3.09303 4.18538C3.08015 4.11953 3.08705 4.05134 3.11285 3.9894C3.13866 3.92747 3.18222 3.87456 3.23805 3.83734C3.29388 3.80012 3.35948 3.78026 3.42657 3.78026H7.87096C7.93806 3.78026 8.00365 3.80012 8.05948 3.83734C8.11531 3.87456 8.15887 3.92747 8.18468 3.9894C8.21049 4.05134 8.21738 4.11953 8.2045 4.18538C8.19162 4.25123 8.15953 4.31179 8.11228 4.35943L5.89009 6.58364C5.8585 6.6155 5.8209 6.64079 5.77948 6.65805C5.73806 6.6753 5.69364 6.68419 5.64877 6.68419C5.6039 6.68419 5.55947 6.6753 5.51805 6.65805C5.47663 6.64079 5.43904 6.6155 5.40744 6.58364Z" fill="#030303"/>
</svg>
