<svg width="32" height="32" viewBox="0 0 32 32" fill="none" xmlns="">
<path d="M0.0396626 14.2066C0.0790512 13.7459 0.189505 13.0917 0.371035 12.244C0.532014 11.4905 0.709264 10.8517 0.902782 10.3276C1.90719 7.60469 3.56536 5.30817 5.8272 3.47532C6.32898 3.06944 6.78709 2.73592 7.20153 2.47476C9.56227 0.987411 12.1576 0.167535 14.9876 0.0151184C15.4937 -0.0122823 16.007 -0.00243769 16.5276 0.0446573C17.7363 0.155117 18.9487 0.280992 20.097 0.641911C23.5636 1.73109 26.4946 3.81055 28.5047 6.84818C28.6957 7.13589 28.9547 7.56359 29.2818 8.1313C29.7198 8.89296 30.0011 9.73809 30.3543 10.5922C30.5153 10.9818 30.6339 11.3577 30.7101 11.7199C30.9678 12.941 31.1211 14.0982 31.1699 15.1917C31.2118 16.1122 31.1232 17.1389 30.904 18.2717C30.4168 20.7814 29.397 23.0519 27.8446 25.0829C27.1214 26.0283 26.1157 26.9993 25.3335 27.662C24.9533 27.9848 24.3094 28.4074 23.4018 28.9297C20.8732 30.3863 18.1413 31.0854 15.206 31.0272C15.0339 31.0238 14.4387 30.9647 13.4206 30.8499C12.3648 30.7318 11.354 30.5186 10.2314 30.0613C9.35377 29.7025 8.76551 29.4456 8.46667 29.2907C8.31682 29.2136 7.90838 28.9751 7.24134 28.5752C6.82947 28.3278 6.44501 28.0542 6.08794 27.7545C5.3447 27.1294 4.75345 26.6011 4.31418 26.1695C3.89803 25.7602 3.56922 25.3779 3.32775 25.0226C2.70995 24.1132 1.99967 23.1923 1.60022 22.2893C0.877101 20.6594 0.25416 18.8767 0.0884708 17.0117C-0.0100006 15.9131 -0.0262704 14.9781 0.0396626 14.2066ZM0.995256 14.4185C0.936173 15.2114 0.910488 15.7157 0.918194 15.9315C0.988837 17.862 1.41784 19.8258 2.28995 21.5778C2.73778 22.4777 2.99252 22.9765 3.05417 23.0741C5.11308 26.3275 8.34208 28.8193 12.1131 29.6978C13.2588 29.9641 14.1849 30.1071 14.8913 30.1268C15.8332 30.1542 16.8153 30.096 17.8377 29.9521C21.0642 29.5 24.0067 27.9395 26.2365 25.5787C26.8299 24.9502 27.4408 24.1556 28.0693 23.1948C28.6987 22.2315 29.1842 21.0486 29.5297 20.0737C29.9189 18.9781 30.0948 17.8312 30.186 16.602C30.2785 15.3715 30.2746 14.2117 30.0537 13.0711C29.8572 12.0552 29.5528 10.8131 29.0737 9.76635C28.5951 8.72255 28.1091 7.84616 27.6159 7.13717C25.7612 4.47074 23.0845 2.49017 19.9608 1.56283C18.971 1.26827 18.0085 1.06448 17.0735 0.95145C16.3714 0.865823 15.4342 0.869679 14.2619 0.963013C10.4023 1.26999 6.83803 3.2544 4.31802 6.16487C4.24267 6.25221 3.91686 6.70774 3.34059 7.53148C2.21801 9.13442 1.50132 11.0122 1.14425 12.9106C1.10401 13.1229 1.05434 13.6256 0.995256 14.4185Z" fill="#FF7050"/>
<path d="M16.0199 13.7782C16.0035 13.7798 15.9884 13.7877 15.9777 13.8004C15.9669 13.8131 15.9613 13.8295 15.9621 13.8462L16.0161 15.2039C16.0167 15.2264 16.026 15.2477 16.0421 15.2635C16.0581 15.2793 16.0796 15.2883 16.1021 15.2886C17.4096 15.3092 18.2865 15.3122 18.7326 15.2976C19.5067 15.2728 20.0393 15.325 20.3304 15.4543C20.8698 15.6924 21.2196 16.0824 21.3798 16.6244C21.4902 16.9982 21.4247 17.5017 21.4414 17.8369C21.4427 17.8584 21.4523 17.8785 21.4681 17.8931C21.4839 17.9077 21.5047 17.9156 21.5262 17.9152C21.9192 17.911 22.2536 17.9174 22.5293 17.9345C23.4284 17.9884 24.1155 18.8105 24.1181 19.6864C24.1198 20.5496 24.1215 21.0286 24.1233 21.1237C24.1335 21.8147 24.0753 22.2839 23.9486 22.5314C23.6985 23.0195 23.285 23.3436 22.7078 23.5037C22.6456 23.5208 22.5817 23.5298 22.5177 23.5307C21.6221 23.5418 20.6416 23.5452 19.5764 23.541C18.7262 23.5371 17.9786 22.9514 17.8027 22.1191C17.7667 21.947 17.7474 21.6096 17.7449 21.107C17.7397 20.136 17.7569 19.5627 17.7963 19.3872C17.9992 18.474 18.6838 17.8908 19.6227 17.8973C20.1339 17.9007 20.4027 17.902 20.4293 17.9011C20.4487 17.9011 20.4673 17.8934 20.4811 17.8797C20.4948 17.8659 20.5025 17.8473 20.5025 17.8279C20.5025 17.0894 20.5693 16.2481 19.543 16.2506C17.0119 16.2575 14.3044 16.2596 11.4204 16.2571C11.0608 16.2562 10.7898 16.4442 10.6074 16.8209C10.5312 16.9793 10.5158 17.3197 10.5612 17.842C10.5631 17.8615 10.572 17.8797 10.5862 17.893C10.6004 17.9062 10.6189 17.9137 10.6382 17.914C10.7573 17.9148 11.0608 17.9135 11.5489 17.9101C12.6149 17.9037 13.3072 18.8246 13.2944 19.8483C13.2927 20.0084 13.2974 20.4592 13.3085 21.2008C13.3265 22.376 13.0568 23.1775 11.9021 23.5153C11.8297 23.5357 11.7548 23.5452 11.6799 23.5435C10.6044 23.5187 9.8175 23.5191 9.31915 23.5448C8.27107 23.5962 7.53125 23.4189 7.06886 22.5006C6.79272 21.9509 6.92887 20.8899 6.91217 20.1553C6.90104 19.6458 6.94385 19.2771 7.04061 19.0494C7.38355 18.2492 8.02574 17.869 8.87731 17.8985C9.11963 17.9062 9.33028 17.9097 9.50924 17.9088C9.53333 17.9085 9.55632 17.8988 9.57335 17.8817C9.59038 17.8647 9.6001 17.8417 9.60043 17.8176C9.603 17.7174 9.60386 17.5047 9.603 17.1793C9.60043 16.415 10.0487 15.7883 10.7217 15.4595C10.9795 15.3344 11.3614 15.2784 11.8674 15.2912C12.4326 15.3058 13.4716 15.3058 14.9847 15.2912C15.0042 15.2909 15.0228 15.2829 15.0365 15.2689C15.0502 15.255 15.0579 15.2362 15.0579 15.2167V13.8591C15.0579 13.8376 15.0497 13.8169 15.0348 13.8014C15.02 13.7858 14.9997 13.7766 14.9783 13.7756C14.6148 13.7537 13.9379 13.827 13.532 13.6947C12.7742 13.4481 12.3504 12.8863 12.2605 12.0095C12.251 11.9102 12.2519 11.1404 12.263 9.70016C12.2682 9.12046 12.3435 8.70517 12.4891 8.45428C12.7682 7.97648 13.1921 7.6755 13.7606 7.55134C13.7794 7.54707 13.7988 7.54492 13.8184 7.54492H17.0937C17.1313 7.54492 17.1687 7.54879 17.2054 7.55648C17.8708 7.70204 18.3241 8.07196 18.5656 8.66621C18.6615 8.90083 18.703 9.33838 18.6902 9.97887C18.6842 10.2503 18.6864 10.6939 18.6966 11.3095C18.7159 12.4167 18.5348 13.2336 17.5432 13.6613C17.1117 13.8475 16.413 13.7358 16.0199 13.7782ZM17.7284 9.3276C17.7283 9.21679 17.7062 9.10709 17.6636 9.00479C17.6211 8.90248 17.5587 8.80955 17.4802 8.73133C17.4018 8.65311 17.3086 8.59111 17.2062 8.54888C17.1037 8.50665 16.9939 8.48502 16.8831 8.48521L14.0574 8.49014C13.9466 8.49034 13.8369 8.51236 13.7346 8.55494C13.6323 8.59753 13.5394 8.65985 13.4612 8.73835C13.3829 8.81684 13.3209 8.90998 13.2787 9.01244C13.2365 9.11489 13.2148 9.22466 13.215 9.33548L13.2197 11.9762C13.2198 12.087 13.2419 12.1967 13.2844 12.299C13.327 12.4013 13.3893 12.4943 13.4678 12.5725C13.5463 12.6507 13.6395 12.7127 13.7419 12.7549C13.8444 12.7972 13.9541 12.8188 14.065 12.8186L16.8907 12.8137C17.0015 12.8135 17.1112 12.7915 17.2135 12.7489C17.3158 12.7063 17.4087 12.644 17.4869 12.5655C17.5651 12.487 17.6272 12.3938 17.6694 12.2914C17.7116 12.1889 17.7332 12.0792 17.7331 11.9683L17.7284 9.3276ZM12.3434 19.671C12.3432 19.563 12.3218 19.4562 12.2803 19.3565C12.2388 19.2568 12.1781 19.1663 12.1016 19.0901C12.0251 19.0139 11.9344 18.9535 11.8346 18.9124C11.7348 18.8713 11.6279 18.8502 11.5199 18.8504L8.67113 18.8554C8.56318 18.8555 8.45632 18.877 8.35666 18.9185C8.257 18.96 8.16649 19.0207 8.09029 19.0971C8.01409 19.1736 7.9537 19.2643 7.91256 19.3641C7.87142 19.4639 7.85035 19.5708 7.85053 19.6788L7.85419 21.7672C7.85437 21.8752 7.87582 21.982 7.91731 22.0817C7.95879 22.1814 8.01949 22.2719 8.09595 22.3481C8.17242 22.4243 8.26314 22.4847 8.36295 22.5258C8.46275 22.5669 8.56969 22.588 8.67764 22.5878L11.5264 22.5829C11.6344 22.5827 11.7413 22.5612 11.8409 22.5197C11.9406 22.4783 12.0311 22.4176 12.1073 22.3411C12.1835 22.2646 12.2439 22.1739 12.285 22.0741C12.3262 21.9743 12.3472 21.8674 12.347 21.7594L12.3434 19.671ZM23.1529 19.6402C23.1528 19.5368 23.1322 19.4344 23.0925 19.339C23.0527 19.2435 22.9946 19.1568 22.9213 19.0839C22.8481 19.0109 22.7612 18.953 22.6656 18.9136C22.57 18.8742 22.4676 18.854 22.3642 18.8542L19.5025 18.8592C19.3992 18.8594 19.2968 18.8799 19.2014 18.9197C19.1059 18.9594 19.0192 19.0176 18.9462 19.0908C18.8732 19.164 18.8154 19.2509 18.776 19.3465C18.7366 19.4421 18.7164 19.5445 18.7166 19.6479L18.7203 21.798C18.7205 21.9014 18.7411 22.0038 18.7808 22.0992C18.8205 22.1947 18.8787 22.2814 18.9519 22.3544C19.0251 22.4273 19.1121 22.4852 19.2076 22.5246C19.3032 22.564 19.4057 22.5842 19.5091 22.584L22.3707 22.579C22.4741 22.5788 22.5765 22.5583 22.6719 22.5185C22.7674 22.4788 22.8541 22.4207 22.9271 22.3474C23 22.2742 23.0579 22.1873 23.0973 22.0917C23.1367 21.9961 23.1569 21.8937 23.1567 21.7903L23.1529 19.6402Z" fill="#060606"/>
</svg>
