<svg width="32" height="32" viewBox="0 0 32 32" fill="none" xmlns="">
<path d="M29.2453 8.04335C29.9911 9.56706 30.5633 10.8079 30.832 12.4165C30.9958 13.3954 31.0999 14.1802 31.1445 14.7708C31.2431 16.0653 31.1364 17.3648 30.8243 18.6695C30.3241 20.7616 29.4639 22.9655 28.1549 24.6435C27.9449 24.9127 27.5373 25.4154 26.9321 26.1518C26.6132 26.541 26.0534 27.0523 25.2528 27.6858C24.6399 28.1701 23.8752 28.6695 22.9589 29.1838C22.2131 29.603 21.4883 29.9287 20.7845 30.161C20.2693 30.3316 19.5038 30.5451 18.488 30.8014C18.3003 30.8485 17.6994 30.9167 16.6853 31.0058C13.9747 31.2437 11.3015 30.6072 8.84937 29.486C8.30846 29.2391 7.82456 28.9631 7.39766 28.6579C6.42685 27.9661 5.57434 27.4531 4.79769 26.661C3.08925 24.9174 1.84155 23.0366 1.05462 21.0187C0.479422 19.5443 0.139103 18.0013 0.0336646 16.3897C-0.00748221 15.7588 -0.0109094 15.2548 0.0233796 14.8776C0.14682 13.5326 0.21754 12.6338 0.540285 11.5344C1.64182 7.78061 3.79088 4.81418 6.98748 2.63511C7.32608 2.40452 7.86999 2.09378 8.6192 1.70288C9.17897 1.41143 9.74045 1.17312 10.3037 0.987957C11.4069 0.626636 12.2543 0.339895 13.3807 0.168879C14.1667 0.0505819 15.0098 -0.00556605 15.9099 0.000434526C18.2673 0.0158646 20.5132 0.553771 22.6477 1.61416C23.396 1.98619 24.0608 2.39166 24.642 2.83056C25.6304 3.57721 26.5211 4.38814 27.314 5.26337C27.3903 5.34737 27.7443 5.80899 28.3761 6.64821C28.7327 7.12226 29.0224 7.5873 29.2453 8.04335ZM3.05153 22.9719C3.46042 23.5583 3.85132 24.322 4.2885 24.8081C5.17744 25.7973 6.13111 26.6768 7.14949 27.4466C7.46923 27.6884 7.84341 27.9202 8.27203 28.1423C8.92695 28.4817 9.3217 28.6853 9.45628 28.753C10.935 29.4885 12.5834 29.9707 14.2589 30.0697C15.3416 30.134 15.942 30.2138 16.7791 30.1032C18.0084 29.9424 19.1656 29.8087 20.1943 29.4088C21.1544 29.0359 21.8479 28.7432 22.2748 28.5306C23.943 27.6991 25.4367 26.5255 26.7559 25.01C27.2943 24.3919 27.7353 23.773 28.0791 23.1532C28.5634 22.2814 28.8733 21.6929 29.0087 21.3878C29.1673 21.0337 29.3748 20.4774 29.6311 19.7187C29.9435 18.7917 30.0194 17.646 30.1763 16.6842C30.3126 15.8419 30.2444 14.8454 30.1917 14.0032C30.1261 12.9372 29.7699 11.8597 29.5025 10.9275C29.2316 9.9811 28.8814 9.15259 28.452 8.44195C27.809 7.37899 27.4091 6.74851 27.2523 6.55049C26.7174 5.87757 25.9784 5.10778 25.0355 4.24112C24.6617 3.89823 24.2194 3.57077 23.7085 3.25874C22.8299 2.72212 21.9336 2.25194 21.0198 1.84818C20.2933 1.52672 19.6838 1.42642 18.6564 1.16926C17.8039 0.954521 16.8061 0.949384 15.8778 0.901808C14.3592 0.823372 12.7557 1.13711 11.2899 1.57559C10.8124 1.71874 9.99633 2.05991 8.84165 2.59911C8.42075 2.79627 7.963 3.07487 7.46838 3.4349C6.45514 4.17169 5.71964 4.65773 4.90699 5.54239C3.07767 7.53287 1.8557 9.82637 1.24107 12.4229C1.07562 13.119 0.982187 13.8215 0.960756 14.5304C0.930753 15.5085 0.929038 16.2174 0.955612 16.6572C1.02419 17.787 1.2805 18.9537 1.72454 20.1572C2.12701 21.2515 2.44204 22.0937 3.05153 22.9719Z" fill="#FF7050"/>
<path d="M14.8059 22.035V22.0736C14.8029 22.1922 14.7536 22.3049 14.6685 22.3876C14.5834 22.4702 14.4694 22.5163 14.3508 22.516C12.2711 22.5082 10.7046 22.5117 9.65102 22.5262C9.05182 22.534 8.63221 22.4739 8.39219 22.3462C7.62711 21.9399 7.56797 21.2867 7.57311 20.4033C7.59283 16.7678 7.59197 13.4795 7.57054 10.5384C7.56625 9.93574 7.62283 9.53585 7.74027 9.33869C8.18517 8.59033 8.67636 8.49903 9.60988 8.49646C11.6732 8.49132 12.746 8.48832 12.8283 8.48747C13.407 8.48061 13.9101 8.69062 14.3379 9.11752C14.6962 9.47499 15.0477 9.83031 15.3923 10.1835C15.5813 10.3789 15.8462 10.4265 16.1355 10.4278C18.8272 10.4364 20.6154 10.4351 21.5 10.4239C22.0795 10.4162 22.4815 10.4741 22.7061 10.5975C23.2376 10.8907 23.5059 11.3853 23.5111 12.0814C23.5196 13.1958 23.5218 14.3852 23.5175 15.6496C23.5168 15.7729 23.4673 15.891 23.3799 15.978C23.2924 16.0649 23.1741 16.1138 23.0507 16.1138H23.0019C22.8912 16.1138 22.7848 16.0707 22.7054 15.9937C22.6259 15.9166 22.5796 15.8116 22.5763 15.701C22.5565 15.0581 22.557 14.437 22.5775 13.8378C22.5994 13.2065 22.4387 12.6947 21.7598 12.6934C17.4436 12.6797 13.3401 12.6776 9.44915 12.687C8.83709 12.6887 8.53149 12.984 8.53234 13.573C8.53491 17.6885 8.53277 20.1046 8.52592 20.8212C8.51949 21.4911 8.87823 21.5657 9.48129 21.5606C11.212 21.5434 12.8373 21.5464 14.3572 21.5696C14.4174 21.5704 14.4769 21.5832 14.5321 21.6071C14.5874 21.631 14.6373 21.6656 14.679 21.7089C14.7208 21.7522 14.7535 21.8033 14.7753 21.8593C14.797 21.9153 14.8075 21.975 14.8059 22.035ZM22.4773 11.8872C22.4863 11.8919 22.4964 11.8936 22.5065 11.8922C22.5165 11.8908 22.5258 11.8863 22.5333 11.8794C22.5408 11.8724 22.5461 11.8633 22.5485 11.8532C22.5509 11.8432 22.5503 11.8326 22.5467 11.8229C22.4001 11.4526 22.1044 11.3922 21.698 11.3922C17.9983 11.3905 16.0905 11.3883 15.9748 11.3857C15.022 11.3652 14.3996 10.5435 13.677 9.8003C13.4841 9.60357 13.2269 9.4287 12.9839 9.43384C11.8524 9.45613 10.5897 9.45913 9.19584 9.44284C8.6365 9.4377 8.50791 9.85431 8.53106 10.3751C8.53277 10.4205 8.53577 10.9096 8.54006 11.8422C8.5401 11.853 8.54285 11.8636 8.54805 11.873C8.55324 11.8824 8.56072 11.8903 8.56975 11.896C8.57878 11.9017 8.58906 11.9049 8.59962 11.9054C8.61019 11.9059 8.62067 11.9036 8.63007 11.8988C9.04025 11.6943 9.31285 11.7239 9.86062 11.7213C14.6534 11.7042 18.6309 11.7119 21.7932 11.7445C22.0641 11.7471 22.2921 11.7946 22.4773 11.8872Z" fill="#060606"/>
<path d="M19.087 15.3262C19.3861 15.3262 19.6154 15.4762 19.7749 15.7762C20.0038 16.2083 20.2425 16.7059 20.4911 17.2691C20.5056 17.3018 20.5283 17.3304 20.5571 17.3522C20.5859 17.374 20.6198 17.3883 20.6557 17.3938L22.3684 17.6407C22.3761 17.6415 22.3839 17.6437 22.3916 17.6471C22.8956 17.8657 23.0431 18.2193 22.8339 18.7079C22.8186 18.7428 22.7968 18.775 22.7696 18.8031L21.5211 20.0516C21.4971 20.0755 21.4797 20.1052 21.4705 20.1378C21.4612 20.1705 21.4605 20.205 21.4683 20.2381C21.6278 20.9196 21.7397 21.5093 21.8039 22.0074C21.8271 22.1805 21.7654 22.3481 21.6188 22.5101C21.3676 22.787 21.0509 22.832 20.6685 22.6452C20.0942 22.3648 19.5812 22.1188 19.1294 21.9071C19.1285 21.9071 19.1135 21.9071 19.0844 21.9071C19.0561 21.9071 19.0415 21.9071 19.0407 21.9071C18.5889 22.1188 18.0759 22.3644 17.5015 22.6439C17.1192 22.8307 16.8025 22.7857 16.5513 22.5089C16.4047 22.3468 16.343 22.1792 16.3661 22.0061C16.4304 21.508 16.5427 20.9183 16.703 20.2368C16.7109 20.2037 16.7101 20.1692 16.7009 20.1365C16.6917 20.1039 16.6742 20.0742 16.6503 20.0503L15.4018 18.8005C15.3745 18.7724 15.3528 18.7402 15.3375 18.7053C15.1292 18.2167 15.277 17.8636 15.7811 17.6458C15.7887 17.6424 15.7966 17.6402 15.8042 17.6394L17.517 17.3925C17.5529 17.387 17.5868 17.3727 17.6156 17.3509C17.6443 17.3291 17.667 17.3005 17.6815 17.2678C17.9301 16.7054 18.1693 16.2083 18.399 15.7762C18.5585 15.4762 18.7878 15.3262 19.087 15.3262ZM19.0857 20.9041C19.1851 20.9041 19.276 20.9243 19.3583 20.9646C19.8169 21.1883 20.2686 21.4159 20.7135 21.6473C20.7218 21.6515 20.731 21.6533 20.7402 21.6525C20.7494 21.6517 20.7582 21.6484 20.7657 21.643C20.7731 21.6375 20.7789 21.6301 20.7824 21.6216C20.7859 21.6131 20.787 21.6037 20.7856 21.5946C20.6981 21.1232 20.609 20.6543 20.5181 20.1879C20.4718 19.9488 20.5447 19.7336 20.7367 19.5424C21.107 19.1713 21.4508 18.8339 21.7679 18.5305C21.7736 18.5251 21.7776 18.5183 21.7796 18.5107C21.7815 18.5031 21.7812 18.4952 21.7788 18.4878C21.7763 18.4804 21.7719 18.4738 21.7658 18.4688C21.7598 18.4639 21.7525 18.4607 21.7448 18.4598L20.1362 18.2283C20.0698 18.2188 20.0069 18.1928 19.953 18.1526C19.8991 18.1124 19.856 18.0593 19.8276 17.9981L19.1423 16.5194C19.1404 16.515 19.1363 16.5105 19.1305 16.5063C19.1247 16.502 19.1173 16.4981 19.1088 16.495C19.1028 16.4933 19.0964 16.4924 19.0895 16.4924C19.0835 16.4924 19.0775 16.4933 19.0715 16.495C19.0631 16.4981 19.0556 16.502 19.0498 16.5063C19.044 16.5105 19.04 16.515 19.0381 16.5194L18.3502 17.9969C18.3217 18.0582 18.2784 18.1113 18.2243 18.1516C18.1701 18.1918 18.1069 18.2177 18.0403 18.227L16.4317 18.4546C16.424 18.4556 16.4167 18.4587 16.4107 18.4637C16.4046 18.4687 16.4002 18.4752 16.3977 18.4826C16.3953 18.4901 16.395 18.498 16.397 18.5056C16.3989 18.5131 16.4029 18.52 16.4086 18.5253C16.7249 18.8297 17.0682 19.1678 17.4385 19.5399C17.6297 19.731 17.7021 19.9462 17.6558 20.1853C17.5641 20.6517 17.4741 21.1206 17.3858 21.5921C17.3843 21.6012 17.3854 21.6105 17.3889 21.619C17.3925 21.6276 17.3983 21.635 17.4057 21.6404C17.4131 21.6459 17.422 21.6491 17.4311 21.6499C17.4403 21.6507 17.4496 21.6489 17.4578 21.6448C17.9027 21.4142 18.3549 21.187 18.8144 20.9633C18.8958 20.9238 18.9862 20.9041 19.0857 20.9041Z" fill="#060606"/>
</svg>
