<svg width="39" height="39" viewBox="0 0 39 39" fill="none" xmlns="">
<g clip-path="url(#clip0_10622_2558)">
<path d="M20.7537 32.8063L6.57065 24.2762C6.54488 24.2607 6.53647 24.2269 6.55198 24.2011L7.51283 22.6035C7.52833 22.5777 7.5621 22.5693 7.58788 22.5848L21.771 31.115C21.7967 31.1305 21.8051 31.1643 21.7896 31.19L20.8288 32.7876C20.8133 32.8134 20.7795 32.8218 20.7537 32.8063Z" fill="#FFAA22"/>
<path d="M31.3039 20.2378C30.6686 19.8558 29.836 20.0736 29.4443 20.7248C29.3417 20.8953 29.2818 21.0788 29.2576 21.2634L24.0001 20.6607L24.1949 12.5273C24.6591 12.528 25.1167 12.2923 25.378 11.8579C25.7696 11.2067 25.5719 10.3693 24.9364 9.98706C24.301 9.60486 23.4686 9.8228 23.0769 10.474C22.8234 10.8955 22.8202 11.3936 23.0197 11.7973L15.6594 15.6443L12.6626 11.2826C12.8142 11.1744 12.9483 11.0358 13.0509 10.8652C13.4424 10.2143 13.2449 9.37658 12.6094 8.99438C11.9739 8.61218 11.1415 8.83012 10.7499 9.4813C10.3584 10.1322 10.5559 10.9699 11.1914 11.3521C11.2849 11.4084 11.3833 11.4478 11.4832 11.4785L8.3517 21.2825L22.4446 29.7584L29.6369 22.3967C29.7109 22.4706 29.7919 22.5391 29.8854 22.5953C30.5209 22.9775 31.3533 22.7596 31.7449 22.1084C32.1367 21.4576 31.9391 20.6199 31.3039 20.2378Z" fill="#FFD68D"/>
</g>
<defs>
<clipPath id="clip0_10622_2558">
<rect width="28" height="28" fill="white" transform="translate(14.4316) rotate(31.024)"/>
</clipPath>
</defs>
</svg>
