<svg width="32" height="32" viewBox="0 0 32 32" fill="none" xmlns="">
<path d="M3.39783 5.97904C4.25314 4.97173 4.80575 4.30448 5.58635 3.69133C6.19177 3.2173 6.9187 2.72652 7.76715 2.219C9.85649 0.969518 12.0888 0.308703 14.571 0.0549419C15.2194 -0.0111819 15.863 -0.0176179 16.5019 0.0356247C17.8738 0.14898 19.1168 0.261043 20.3946 0.732497C21.3594 1.08802 21.9314 1.26707 22.6708 1.65222C25.9671 3.37187 28.2999 5.95714 29.8392 9.2702C30.2084 10.0637 30.5124 10.9589 30.7512 11.9559C30.9264 12.6893 31.0328 13.2462 31.0706 13.6266C31.1325 14.2638 31.1681 14.8285 31.1775 15.3205C31.2394 18.6555 30.129 22.0201 28.1788 24.7071C27.9057 25.0824 27.5047 25.5839 26.9757 26.2116C26.1912 27.1417 25.3436 27.7149 24.2036 28.5547C23.2453 29.2619 22.1864 29.7102 21.0825 30.1469C19.6334 30.7201 18.1147 31.0073 16.5148 31.1104C15.0747 31.2031 13.422 31.0086 12.1687 30.76C11.9995 30.7257 11.4426 30.5445 10.498 30.2164C8.85046 29.6432 7.45027 28.7982 6.02689 27.7561C4.85598 26.9008 3.91693 25.7324 3.09382 24.6736C2.52962 23.948 2.05044 23.1734 1.65628 22.3498C1.17967 21.3537 0.796669 20.3382 0.50727 19.3034C0.362142 18.7821 0.226885 18.0363 0.101508 17.0659C-0.122626 15.3295 0.0306641 13.5081 0.499542 11.8374C0.843042 10.6172 1.11312 9.81293 1.30977 9.42478C2.04529 7.97177 2.49614 7.04174 3.39783 5.97904ZM27.3711 6.79442C24.7099 3.04468 20.07 0.755683 15.4714 0.941173C14.9961 0.960495 13.9927 0.984974 13.3795 1.09833C11.723 1.40404 10.1339 1.95064 8.61216 2.73811C7.09217 3.52516 6.00241 4.63037 4.91394 5.59517C4.75078 5.74116 4.60179 5.90304 4.46697 6.0808C3.93884 6.77896 3.43131 7.48614 2.9444 8.20234C2.73315 8.51407 2.46049 9.05766 2.12644 9.83311C1.70908 10.8026 1.4141 11.7065 1.2415 12.5446C0.513705 16.0844 1.0573 19.6795 2.90447 22.762C3.56914 23.8711 4.11917 24.7329 5.0273 25.632C5.7143 26.313 6.29353 26.8394 6.76498 27.2112C7.49664 27.7892 8.08144 28.1812 8.51941 28.3873C9.87194 29.0275 10.6757 29.4654 11.8557 29.7179C12.9016 29.9433 13.9295 30.2023 14.9678 30.219C16.1339 30.237 17.2194 30.1688 18.2242 30.0142C18.7746 29.93 19.5157 29.739 20.4475 29.441C20.8605 29.3087 21.3221 29.1095 21.8322 28.8433C22.8189 28.3293 24.0233 27.7394 24.7266 27.0798C25.712 26.1562 26.6421 25.3847 27.3402 24.3503C27.9413 23.4589 28.4167 22.7002 28.7662 22.0742C28.84 21.9411 29.0642 21.385 29.4386 20.4061C29.995 18.9492 30.214 17.3403 30.2849 15.7521C30.3046 15.2995 30.2823 14.8156 30.2179 14.3003C30.0929 13.2917 29.9912 12.0951 29.5519 11.0195C29.3407 10.5016 29.0921 9.69915 28.8125 9.12593C28.4965 8.47929 28.0161 7.70212 27.3711 6.79442Z" fill="#FF7050"/>
<path d="M13.3928 8.39715C14.3425 8.6463 15.1532 9.26698 15.6464 10.1227C16.1397 10.9783 16.2752 11.9989 16.0231 12.9598C15.8983 13.4357 15.6821 13.8825 15.3868 14.2749C15.0915 14.6673 14.7229 14.9975 14.3022 15.2467C13.8814 15.4959 13.4166 15.6593 12.9344 15.7274C12.4522 15.7955 11.9619 15.767 11.4917 15.6437C10.542 15.3945 9.7313 14.7738 9.23801 13.9182C8.74473 13.0625 8.60923 12.0419 8.86133 11.081C8.98615 10.6052 9.20238 10.1583 9.49767 9.76592C9.79295 9.37354 10.1615 9.04331 10.5823 8.7941C11.0031 8.54488 11.4678 8.38156 11.9501 8.31345C12.4323 8.24534 12.9225 8.27378 13.3928 8.39715ZM13.1842 9.33166C12.483 9.1372 11.7321 9.23357 11.0966 9.59958C10.4612 9.96558 9.99321 10.5712 9.79574 11.2833C9.59826 11.9954 9.68743 12.7556 10.0436 13.3966C10.3998 14.0376 10.9939 14.507 11.6951 14.7014C12.3963 14.8959 13.1472 14.7995 13.7827 14.4335C14.4181 14.0675 14.8861 13.4618 15.0836 12.7498C15.281 12.0377 15.1919 11.2775 14.8357 10.6365C14.4795 9.9955 13.8854 9.52613 13.1842 9.33166Z" fill="#060606"/>
<path d="M18.6174 16.7908L18.3598 16.7535C18.2338 16.7353 18.1201 16.6678 18.0438 16.5659C17.9675 16.464 17.9347 16.3359 17.9528 16.2099L17.9579 16.1725C17.9755 16.0516 18.0402 15.9425 18.138 15.8691C18.2357 15.7957 18.3586 15.764 18.4796 15.7809C19.3873 15.9106 20.1173 15.6607 20.6694 15.0313C21.7012 13.8552 21.4178 12.151 20.0215 11.4103C19.5586 11.1656 19.046 11.1145 18.4835 11.2571C18.2233 11.3232 18.0614 11.3408 17.9979 11.3099C17.4259 11.0265 17.7132 10.443 18.2168 10.3283C19.988 9.92641 21.5711 10.841 22.1005 12.5581C22.563 14.0549 21.7553 15.7397 20.3242 16.4495C20.3181 16.4526 20.3132 16.4576 20.3101 16.4637C20.3071 16.4698 20.306 16.4768 20.3072 16.4835C20.3083 16.4903 20.3116 16.4965 20.3165 16.5013C20.3214 16.506 20.3277 16.5091 20.3345 16.51C22.0383 16.6783 23.2152 17.5474 23.8653 19.1172C24.2002 19.9253 24.2749 20.7076 24.0894 21.4642C23.9821 21.9047 23.7335 22.2242 23.3436 22.4225C23.0825 22.5548 22.6746 22.614 22.1199 22.6003C21.3736 22.5814 20.6256 22.5758 19.8759 22.5835C19.8145 22.5843 19.7536 22.5725 19.6969 22.5489C19.6401 22.5252 19.5888 22.4902 19.5459 22.446C19.503 22.4018 19.4695 22.3493 19.4474 22.2917C19.4253 22.2341 19.4151 22.1725 19.4174 22.1108V22.0928C19.4224 21.9687 19.475 21.8514 19.5644 21.7655C19.6537 21.6795 19.7727 21.6315 19.8966 21.6316C21.3805 21.6316 22.2225 21.6316 22.4226 21.6316C22.8927 21.6303 23.1993 21.5157 23.2302 21.0185C23.3436 19.2525 22.1933 17.5779 20.3294 17.5019C19.7583 17.4787 19.3564 17.4753 19.1237 17.4916C18.763 17.5161 18.4964 17.2417 18.6651 16.8784C18.6692 16.8696 18.6712 16.86 18.671 16.8503C18.6707 16.8406 18.6681 16.8311 18.6635 16.8226C18.6588 16.814 18.6522 16.8067 18.6442 16.8012C18.6363 16.7957 18.6271 16.7921 18.6174 16.7908Z" fill="#060606"/>
<path d="M8.14044 22.5933C7.93728 22.5937 7.73604 22.554 7.54822 22.4765C7.36039 22.3991 7.18966 22.2854 7.04577 22.142C6.90187 21.9986 6.78763 21.8283 6.70958 21.6407C6.63152 21.4531 6.59117 21.252 6.59083 21.0489V20.5285C6.58981 19.9399 6.70472 19.357 6.92899 18.8129C7.15326 18.2688 7.48251 17.7742 7.89792 17.3574C8.31334 16.9405 8.80681 16.6096 9.35012 16.3834C9.89344 16.1573 10.476 16.0404 11.0645 16.0393L13.803 16.0342C14.3915 16.0332 14.9745 16.1481 15.5186 16.3724C16.0627 16.5966 16.5573 16.9259 16.9741 17.3413C17.391 17.7567 17.7219 18.2502 17.9481 18.7935C18.1742 19.3368 18.2911 19.9193 18.2922 20.5078V21.0282C18.2925 21.2314 18.2528 21.4326 18.1754 21.6205C18.098 21.8083 17.9843 21.979 17.8409 22.1229C17.6975 22.2668 17.5271 22.3811 17.3395 22.4591C17.152 22.5372 16.9509 22.5775 16.7477 22.5779L8.14044 22.5933ZM8.14431 21.6324L16.7464 21.6169C16.8241 21.6168 16.9009 21.6013 16.9726 21.5714C17.0442 21.5416 17.1093 21.4979 17.1641 21.4428C17.2189 21.3878 17.2623 21.3225 17.2919 21.2507C17.3214 21.1789 17.3365 21.102 17.3364 21.0244V20.5027C17.3355 20.0406 17.2435 19.5831 17.0654 19.1565C16.8874 18.7298 16.6269 18.3423 16.2988 18.0162C15.9707 17.69 15.5814 17.4315 15.1532 17.2554C14.725 17.0793 14.2662 16.9891 13.803 16.99L11.0722 16.9951C10.1368 16.9968 9.24043 17.3692 8.58022 18.0304C7.92001 18.6916 7.55007 19.5874 7.55177 20.5207V21.0424C7.55194 21.1201 7.5674 21.1969 7.59727 21.2686C7.62714 21.3403 7.67083 21.4053 7.72585 21.4601C7.78088 21.5149 7.84615 21.5583 7.91795 21.5879C7.98975 21.6174 8.06666 21.6325 8.14431 21.6324Z" fill="#060606"/>
</svg>
