<svg width="32" height="32" viewBox="0 0 32 32" fill="none" xmlns="">
<path d="M13.0063 30.9473C11.4231 30.7563 9.76896 30.026 8.23221 29.2621C7.61717 28.9559 7.1475 28.6768 6.82321 28.4247C5.9071 27.7125 5.23098 27.1663 4.79486 26.786C4.19487 26.2622 3.83746 25.7267 3.20393 24.9358C2.78931 24.4171 2.47663 23.9655 2.26588 23.5809C1.50288 22.19 0.993215 21.101 0.736876 20.3139C0.180328 18.5995 -0.0609579 16.7682 0.0130192 14.8198C0.0826952 12.9704 0.511935 11.1769 1.30074 9.43929C2.58587 6.61009 4.55186 4.32067 7.19869 2.57103C7.97287 2.05921 8.79952 1.63127 9.67864 1.28719C10.7427 0.86999 11.6278 0.576662 12.3341 0.407202C13.1401 0.214518 14.2536 0.0811826 15.6747 0.00720552C16.4604 -0.034084 17.3043 0.111718 18.1559 0.199459C18.5903 0.243329 18.9189 0.293656 19.1417 0.350429C22.8466 1.29493 25.8061 3.22908 28.0202 6.15289C28.397 6.65009 28.9006 7.47932 29.5312 8.64059C29.8847 9.29262 30.1471 9.93218 30.3182 10.5593C30.5415 11.3786 30.9608 12.3412 31.046 13.2457C31.1685 14.5605 31.2614 16.003 31.0718 17.3578C30.4937 21.5087 28.3983 25.4403 25.0719 27.9718C22.5902 29.8608 19.7292 30.9275 16.4888 31.1718C15.3779 31.2556 14.1766 31.0892 13.0063 30.9473ZM1.90331 20.8081C2.27878 21.9874 3.00264 23.0326 3.67617 24.0803C3.90585 24.4381 4.10929 24.7069 4.28649 24.8867C4.44304 25.0467 4.94583 25.5757 5.79484 26.4738C5.96172 26.6501 6.15269 26.817 6.36773 26.9744C7.94835 28.1267 9.46574 29.1086 11.3754 29.6144C12.0266 29.7873 12.4859 29.9051 12.7534 29.9679C13.9551 30.2501 15.2317 30.3412 16.583 30.2415C20.1176 29.9808 23.1515 28.6557 25.6848 26.2661C25.954 26.0123 26.1828 25.7719 26.3712 25.5448C26.9609 24.8338 27.4396 24.3306 27.8873 23.5745C28.3553 22.7857 28.7166 22.1165 28.9712 21.5668C29.2189 21.0313 29.3725 20.4675 29.5802 19.8817C30.2228 18.0662 30.4382 15.8043 30.1557 13.8715C30.0017 12.8229 29.9049 12.2147 29.8653 12.047C29.6916 11.3227 29.3428 10.361 28.8189 9.16187C28.5695 8.59156 28.2447 8.02425 27.8447 7.45997C27.0925 6.40192 26.4512 5.49355 25.5493 4.71679C24.5188 3.82907 23.628 3.17575 22.8771 2.75683C22.6285 2.61834 22.1253 2.37447 21.3674 2.02523C20.9055 1.81276 20.4952 1.66008 20.1365 1.56718C18.9765 1.26525 18.3056 1.06009 17.3237 1.00074C16.8686 0.97321 16.1697 0.943533 15.2269 0.911705C14.7942 0.897082 14.0962 0.985251 13.1328 1.17621C12.3577 1.33019 11.6554 1.50825 11.0257 1.7104C10.4829 1.88502 9.67348 2.24932 8.59737 2.80329C7.50234 3.36672 6.39913 4.17616 5.28776 5.23162C4.71314 5.77784 3.99703 6.67073 3.13941 7.91028C2.88221 8.28274 2.63749 8.72532 2.40523 9.238C1.84008 10.4857 1.51235 11.1799 1.31622 12.136C1.21472 12.6298 1.10762 13.2814 0.994936 14.0908C0.761392 15.785 0.885261 17.403 1.33686 18.9849C1.42288 19.2868 1.6117 19.8946 1.90331 20.8081Z" fill="#FF7050"/>
<path d="M10.3179 7.65625H20.4583C20.8881 7.65625 21.3004 7.82699 21.6043 8.13091C21.9082 8.43484 22.0789 8.84705 22.0789 9.27686V22.1631C22.0789 22.5929 21.9082 23.0051 21.6043 23.309C21.3004 23.6129 20.8881 23.7837 20.4583 23.7837H10.3179C9.88807 23.7837 9.47586 23.6129 9.17193 23.309C8.86801 23.0051 8.69727 22.5929 8.69727 22.1631V9.27686C8.69727 8.84705 8.86801 8.43484 9.17193 8.13091C9.47586 7.82699 9.88807 7.65625 10.3179 7.65625ZM20.6222 8.6201C20.5666 8.59909 20.5067 8.59198 20.4477 8.59937C20.3888 8.60676 20.3325 8.62843 20.2838 8.66251C20.2351 8.69658 20.1955 8.74203 20.1683 8.7949C20.1412 8.84777 20.1273 8.90647 20.128 8.9659C20.1487 11.2291 20.1542 12.9108 20.1448 14.011C20.1413 14.4608 19.9181 14.6634 19.4751 14.6187C19.3974 14.6103 19.3246 14.5758 19.2687 14.5206L18.0855 13.3374C18.0682 13.32 18.0449 13.3099 18.0204 13.3092C17.9959 13.3085 17.9721 13.3172 17.9539 13.3336C17.6356 13.6148 17.2924 13.9409 16.9242 14.3116C16.6003 14.6381 16.3178 14.7942 15.95 14.4419C15.8675 14.3636 15.8275 14.1766 15.83 13.8806C15.8395 12.9232 15.8391 11.2054 15.8287 8.7272C15.8287 8.69811 15.8172 8.67021 15.7966 8.64965C15.776 8.62908 15.7482 8.61752 15.7191 8.61752C14.0838 8.61408 12.3067 8.61709 10.3876 8.62656C9.7966 8.62914 9.65467 8.91945 9.65338 9.48073C9.64047 13.8342 9.64047 17.1666 9.65338 19.478C9.65326 19.4912 9.65663 19.5041 9.66314 19.5156C9.66966 19.5271 9.6791 19.5367 9.69055 19.5434C9.70199 19.5502 9.71505 19.5539 9.72844 19.5542C9.74183 19.5545 9.75509 19.5513 9.76692 19.5451C10.0676 19.3799 10.3372 19.3244 10.7372 19.327C12.9376 19.339 16.3797 19.3403 21.0635 19.3309C21.0847 19.3309 21.105 19.3224 21.12 19.3074C21.135 19.2924 21.1435 19.2721 21.1435 19.2509L21.1422 9.3259C21.1421 9.17431 21.0955 9.02648 21.0087 8.90251C20.9219 8.77854 20.7991 8.68444 20.657 8.63301L20.6222 8.6201ZM17.99 8.63946C17.3474 8.63946 16.9767 8.64161 16.8778 8.64591C16.8577 8.64658 16.8386 8.65517 16.8247 8.66985C16.8107 8.68454 16.8029 8.70418 16.8029 8.72461V12.971C16.803 12.9798 16.8057 12.9883 16.8106 12.9956C16.8155 13.0028 16.8224 13.0085 16.8305 13.012C16.8385 13.0154 16.8474 13.0164 16.856 13.0148C16.8647 13.0133 16.8727 13.0093 16.879 13.0032C17.1354 12.7572 17.3986 12.5091 17.6687 12.2587C17.7659 12.1693 17.8739 12.1246 17.9926 12.1246C18.1104 12.1246 18.2179 12.1693 18.3151 12.2587C18.5861 12.5082 18.8498 12.7559 19.1061 13.002C19.1125 13.008 19.1205 13.012 19.1291 13.0135C19.1377 13.0151 19.1466 13.0141 19.1547 13.0107C19.1628 13.0072 19.1697 13.0015 19.1746 12.9943C19.1794 12.987 19.1821 12.9785 19.1822 12.9697L19.1784 8.72333C19.1784 8.70289 19.1706 8.68325 19.1566 8.66856C19.1426 8.65387 19.1236 8.64529 19.1035 8.64461C19.0046 8.64031 18.6334 8.6386 17.99 8.63946ZM21.0661 20.2973C17.5091 20.2827 14.0271 20.2818 10.6198 20.2947C10.083 20.2964 9.76262 20.5941 9.65854 21.1876C9.65166 21.2263 9.65123 21.496 9.65725 21.9966C9.66241 22.4314 9.88305 22.8353 10.3153 22.8353C14.3126 22.8396 17.5934 22.837 20.1577 22.8276C20.7641 22.825 21.1293 22.7114 21.1409 22.0715C21.1418 22.0233 21.1405 21.4556 21.137 20.3683C21.137 20.3494 21.1295 20.3314 21.1162 20.3181C21.1029 20.3048 21.0849 20.2973 21.0661 20.2973Z" fill="#060606"/>
</svg>
