<svg width="36" height="36" viewBox="0 0 36 36" fill="none" xmlns="">
<path fill-rule="evenodd" clip-rule="evenodd" d="M27.72 29.4705C27.6504 29.5401 27.5678 29.5953 27.4769 29.633C27.3859 29.6706 27.2885 29.69 27.1901 29.69C27.0917 29.69 26.9942 29.6706 26.9033 29.633C26.8124 29.5953 26.7298 29.5401 26.6602 29.4705L6.52946 9.33749C6.45987 9.26791 6.40466 9.1853 6.36699 9.09439C6.32932 9.00347 6.30994 8.90602 6.30994 8.80761C6.30994 8.7092 6.32932 8.61175 6.36699 8.52084C6.40466 8.42992 6.45987 8.34731 6.52946 8.27774L8.27996 6.52724C8.57246 6.23474 9.04496 6.23474 9.33971 6.52724L29.4705 26.658C29.763 26.9505 29.763 27.4252 29.4705 27.7177L27.72 29.4705Z" fill="#696969"/>
<path fill-rule="evenodd" clip-rule="evenodd" d="M8.27996 29.4706C8.57246 29.7631 9.04496 29.7631 9.33971 29.4706L29.4705 9.33983C29.5401 9.27026 29.5953 9.18765 29.6329 9.09673C29.6706 9.00582 29.69 8.90837 29.69 8.80996C29.69 8.71155 29.6706 8.6141 29.6329 8.52318C29.5953 8.43227 29.5401 8.34966 29.4705 8.28008L27.72 6.52958C27.6504 6.45999 27.5678 6.40478 27.4769 6.36711C27.3859 6.32945 27.2885 6.31006 27.1901 6.31006C27.0917 6.31006 26.9942 6.32945 26.9033 6.36711C26.8124 6.40478 26.7298 6.45999 26.6602 6.52958L6.52946 26.6626C6.45987 26.7322 6.40466 26.8148 6.36699 26.9057C6.32932 26.9966 6.30994 27.094 6.30994 27.1925C6.30994 27.2909 6.32932 27.3883 6.36699 27.4792C6.40466 27.5702 6.45987 27.6528 6.52946 27.7223L8.27996 29.4728V29.4706Z" fill="#696969"/>
</svg>
