<svg width="20" height="20" viewBox="0 0 20 20" fill="none" xmlns="">
<path d="M13.2713 6.91719C13.4864 6.91719 13.6986 6.93293 13.9088 6.95577C13.3362 4.31727 10.485 2.35645 7.23085 2.35645C3.5924 2.35645 0.611816 4.81066 0.611816 7.92679C0.611816 9.72521 1.60365 11.2023 3.26045 12.3479L2.59854 14.3187L4.91217 13.1703C5.74057 13.3322 6.40447 13.4992 7.23085 13.4992C7.43845 13.4992 7.64401 13.489 7.84858 13.4728C7.71914 13.0353 7.64401 12.5764 7.64401 12.1008C7.64403 9.23945 10.1272 6.91719 13.2713 6.91719ZM9.71299 5.14112C10.2114 5.14112 10.5414 5.46597 10.5414 5.95886C10.5414 6.4497 10.2114 6.77862 9.71299 6.77862C9.21654 6.77862 8.71911 6.4497 8.71911 5.95886C8.71911 5.46597 9.21656 5.14112 9.71299 5.14112ZM5.08068 6.77859C4.58424 6.77859 4.08375 6.44967 4.08375 5.95884C4.08375 5.46595 4.58424 5.1411 5.08068 5.1411C5.57658 5.1411 5.90704 5.46595 5.90704 5.95884C5.90704 6.4497 5.57658 6.77859 5.08068 6.77859ZM19.3126 12.0221C19.3126 9.40339 16.6645 7.26895 13.6905 7.26895C10.5414 7.26895 8.06127 9.40339 8.06127 12.0221C8.06127 14.6446 10.5414 16.7744 13.6905 16.7744C14.3494 16.7744 15.0143 16.611 15.6762 16.4465L17.4919 17.4302L16.9939 15.7938C18.3229 14.807 19.3126 13.4991 19.3126 12.0221ZM11.8652 11.2023C11.5358 11.2023 11.2033 10.878 11.2033 10.547C11.2033 10.2206 11.5358 9.89221 11.8652 9.89221C12.3657 9.89221 12.6936 10.2206 12.6936 10.547C12.6936 10.878 12.3657 11.2023 11.8652 11.2023ZM15.5056 11.2023C15.1788 11.2023 14.8483 10.878 14.8483 10.547C14.8483 10.2206 15.1788 9.89221 15.5056 9.89221C16.0021 9.89221 16.334 10.2206 16.334 10.547C16.334 10.878 16.0021 11.2023 15.5056 11.2023Z" fill="#25C154"/>
</svg>
