<svg width="33" height="33" viewBox="0 0 33 33" fill="none" xmlns="">
<path d="M0.691701 13.8213C0.634815 14.1239 0.579579 14.599 0.525991 15.2465C0.488479 15.6992 0.491572 16.3709 0.535267 17.2617C0.565565 17.8806 0.676243 18.5546 0.799908 19.2273C1.14452 21.0938 1.79582 22.8369 2.75381 24.4565C3.65409 25.9775 4.7613 27.2894 6.07544 28.3921C7.44523 29.5409 8.91787 30.4262 10.4934 31.0478C12.7391 31.9345 15.1013 32.2778 17.58 32.0779C19.9537 31.8862 22.1945 31.1455 24.2121 29.928C25.8655 28.93 27.2736 27.6691 28.4365 26.1451C29.9668 24.1399 31.0644 21.7315 31.4928 19.2372C31.6821 18.1366 31.7853 16.9315 31.729 15.7962C31.5578 12.3355 30.3774 9.04353 28.2281 6.34022C25.9842 3.51757 22.8301 1.53028 19.3144 0.81921C18.6742 0.689775 18.0113 0.590844 17.3258 0.522416C17.1469 0.504691 16.7968 0.497478 16.2753 0.500776C14.9884 0.50902 13.7624 0.652266 12.5975 0.930511C11.9 1.09705 11.2469 1.29738 10.638 1.53152C9.54733 1.95074 8.48072 2.48683 7.49882 3.1608C7.06517 3.45842 6.81846 3.63093 6.75869 3.67834C5.97177 4.29955 5.24338 4.97661 4.57353 5.70953C4.07888 6.25077 3.62194 6.84188 3.20271 7.48288C2.76494 8.15232 2.39456 8.80156 2.09159 9.4306C1.55179 10.5504 1.10598 11.7889 0.845663 13.0527C0.776411 13.3895 0.72509 13.6457 0.691701 13.8213Z" stroke="#9FD277" stroke-linejoin="round"/>
<path d="M17.9341 12.2518C17.9501 13.2702 17.5543 14.2533 16.8338 14.985C16.1133 15.7166 15.127 16.1367 14.0921 16.153C13.5796 16.1611 13.0706 16.0697 12.5941 15.8842C12.1176 15.6986 11.683 15.4225 11.315 15.0717C10.947 14.7208 10.6529 14.302 10.4495 13.8392C10.2461 13.3764 10.1373 12.8786 10.1294 12.3744C10.1134 11.356 10.5092 10.3728 11.2297 9.64118C11.9502 8.90956 12.9364 8.4894 13.9714 8.47315C14.4839 8.4651 14.9929 8.55645 15.4694 8.74198C15.9459 8.92752 16.3805 9.20361 16.7485 9.55449C17.1165 9.90536 17.4105 10.3242 17.614 10.787C17.8174 11.2498 17.9262 11.7475 17.9341 12.2518ZM16.7877 12.1492C16.7448 11.4276 16.4131 10.7528 15.8655 10.2733C15.3179 9.79381 14.5992 9.54884 13.8676 9.59231C13.1361 9.63577 12.4515 9.9641 11.9645 10.5051C11.4775 11.0461 11.228 11.7554 11.2709 12.477C11.3137 13.1985 11.6455 13.8733 12.1931 14.3528C12.7407 14.8323 13.4593 15.0773 14.1909 15.0338C14.9225 14.9904 15.6071 14.662 16.0941 14.1211C16.5811 13.5801 16.8306 12.8708 16.7877 12.1492Z" fill="black"/>
<path d="M18.9338 10.9025C18.5702 10.79 18.3773 10.4264 18.5653 10.0833C18.7335 9.77596 19.1267 9.7537 19.434 9.74814C20.2861 9.7333 20.9967 10.0039 21.566 10.56C22.4354 11.4083 22.7217 12.6734 22.2925 13.8223C21.8078 15.1195 20.5328 15.9703 19.123 15.8436C18.8386 15.8182 18.6123 15.6803 18.5511 15.407C18.4775 15.0768 18.7199 14.8406 19.0451 14.8338C19.2669 14.8293 19.4988 14.8002 19.7407 14.7467C21.0961 14.4474 21.8201 12.9455 21.085 11.736C20.7779 11.2311 20.3044 10.9349 19.6647 10.8475C19.4365 10.816 19.2121 10.9205 19.0123 10.9155C18.9857 10.9147 18.9593 10.9103 18.9338 10.9025Z" fill="black"/>
<path d="M20.6699 22.179C20.6507 22.8023 20.263 23.3427 19.6725 23.5313C19.5394 23.5737 19.3199 23.5952 19.014 23.5956C15.4158 23.6013 12.1121 23.6034 9.10293 23.6018C8.7105 23.6018 8.44585 23.577 8.309 23.5276C7.71788 23.3155 7.32957 22.7905 7.32092 22.1444C7.29928 20.5231 7.85762 19.0824 9.05531 18.0035C10.3031 16.8787 11.933 16.4626 13.6148 16.4607C13.6861 16.4607 14.0468 16.4589 14.6969 16.4552C15.1771 16.4523 15.7175 16.5117 16.3181 16.6333C17.1924 16.8109 17.9783 17.172 18.6758 17.7166C20.0893 18.8203 20.7237 20.4056 20.6699 22.179ZM8.46296 21.8259C8.44626 22.1172 8.44812 22.4622 8.8154 22.4628C11.9318 22.4715 15.282 22.4704 18.8662 22.4597C19.223 22.4585 19.5544 22.4801 19.5544 22.0071C19.5557 20.6827 19.0783 19.5066 18.0513 18.649C17.1999 17.9367 16.0176 17.6102 14.8867 17.5799C14.6002 17.5725 14.1456 17.5729 13.5227 17.5811C12.5859 17.5941 11.63 17.7419 10.8101 18.1617C9.31254 18.9285 8.55756 20.1478 8.46296 21.8259Z" fill="black"/>
<path d="M23.3521 21.6149C23.5136 21.5469 23.6019 21.4451 23.6167 21.3095C23.66 20.9145 23.6239 20.5065 23.5085 20.0852C23.0726 18.4986 21.7234 17.6626 20.1269 17.6236C19.9389 17.6187 19.8089 17.5942 19.7367 17.55C19.4696 17.3862 19.3843 17.0838 19.5382 16.8136C19.6537 16.6104 19.8491 16.5125 20.1244 16.5199C21.2083 16.5484 22.3182 16.8687 23.1635 17.5729C24.018 18.2844 24.5269 19.1931 24.6901 20.2991C24.7342 20.5976 24.747 20.9457 24.7284 21.3435C24.6951 22.0539 24.1008 22.7168 23.3533 22.7297C22.9967 22.7363 22.6006 22.7374 22.1649 22.7328C21.6591 22.7273 21.4637 22.0644 21.8532 21.7565C21.9604 21.672 22.1 21.6314 22.2718 21.6347C22.5266 21.64 22.8603 21.6388 23.2729 21.631C23.3003 21.6306 23.3271 21.6251 23.3521 21.6149Z" fill="black"/>
</svg>
