<svg width="33" height="33" viewBox="0 0 33 33" fill="none" xmlns="">
<path d="M26.8644 4.74345C26.2609 4.16305 25.7918 3.75619 25.4571 3.52288C24.9025 3.13642 24.2637 2.69309 23.6318 2.35239C21.8238 1.37915 19.8371 0.77814 17.775 0.59388C16.9477 0.519681 16.1946 0.470215 15.4736 0.520299C14.9413 0.558017 14.2104 0.622941 13.6125 0.725583C11.253 1.13244 8.99053 2.03395 7.05641 3.42023C6.22415 4.01671 5.48196 4.66059 4.82983 5.35188C3.24074 7.03536 2.05315 9.04182 1.26705 11.3713C1.06177 11.9797 0.87545 12.7419 0.708091 13.6578C0.64935 13.9781 0.632656 14.1852 0.59061 14.5389C0.451693 15.703 0.47251 16.8844 0.65306 18.0831C0.654297 18.0918 0.670373 18.2146 0.701289 18.4517C0.812999 19.3107 1.03044 20.2359 1.35362 21.2273C2.00327 23.2204 3.02577 25.0216 4.42112 26.6308C4.87621 27.1556 5.41312 27.6799 6.03185 28.2039C7.67742 29.5967 9.47674 30.6013 11.4298 31.2176C11.6405 31.2843 11.8041 31.3326 11.9208 31.3623C12.3622 31.476 12.7289 31.5818 13.1624 31.6671C14.8392 31.9969 16.5363 32.0533 18.2536 31.8365C18.571 31.7965 18.8783 31.7444 19.1755 31.6801C19.7353 31.5589 20.0404 31.4913 20.0907 31.4773C20.3623 31.4018 20.8059 31.2641 21.4213 31.0642C21.7474 30.9583 22.0701 30.8307 22.3896 30.6815C22.9518 30.4193 23.266 30.2705 23.3319 30.2351C24.1807 29.78 24.9707 29.2694 25.7019 28.7035C26.2906 28.2478 26.878 27.6839 27.3696 27.1793C27.7525 26.7856 28.1864 26.2673 28.6711 25.6242C29.0112 25.1735 29.2981 24.6769 29.611 24.1674C29.7532 23.9366 29.9902 23.4574 30.3221 22.7298C30.6943 21.9132 30.9837 21.0859 31.1902 20.2479C31.6449 18.3979 31.7844 16.5534 31.6088 14.7145C31.5894 14.5084 31.5711 14.3528 31.5538 14.2477C31.4876 13.8371 31.4585 13.5224 31.3689 13.0877C31.1022 11.7934 30.7215 10.6014 30.2268 9.51195C29.4032 7.69697 28.2824 6.10747 26.8644 4.74345Z" stroke="#9FD277" stroke-linejoin="round"/>
<path d="M7.34433 19.224C7.34879 19.2141 7.34968 19.203 7.34685 19.1926C7.34403 19.1822 7.33767 19.1732 7.32887 19.1671C6.72725 18.7491 6.7427 18.2476 6.74579 17.4624C6.7495 16.6198 6.75012 14.2452 6.74765 10.3387C6.74703 9.2362 7.54652 8.2778 8.57418 7.9909C8.78812 7.93113 9.16571 7.90145 9.70694 7.90186C10.7713 7.90227 13.9561 7.9031 19.2613 7.90433C19.6574 7.90433 20.0604 8.0381 20.4701 8.30562C20.9565 8.62262 21.2752 9.05689 21.426 9.60843C21.4891 9.84051 21.5171 10.1655 21.5101 10.5835C21.5056 10.8593 21.5078 11.2241 21.5169 11.678C21.5171 11.6838 21.5184 11.6896 21.5208 11.695C21.5233 11.7003 21.5268 11.7051 21.5311 11.7091C21.5354 11.7131 21.5405 11.7161 21.546 11.7181C21.5515 11.7201 21.5574 11.721 21.5633 11.7206C22.4611 11.6749 23.3329 11.8579 24.0508 12.4434C24.8142 13.0667 25.1964 13.8796 25.1972 14.8821C25.2005 18.5686 25.2003 20.6449 25.1966 21.1111C25.1933 21.5052 25.0531 21.8333 24.7761 22.0955C24.7676 22.1036 24.7618 22.1141 24.7594 22.1255C24.7571 22.1369 24.7584 22.1486 24.7631 22.1592C24.9404 22.5541 25.0294 22.7521 25.0302 22.7534C25.151 22.9846 25.2135 23.1891 25.2176 23.3667C25.233 24.0988 24.4428 24.5756 23.8146 24.1471C23.2202 23.7423 22.4943 23.2334 21.6369 22.6204C21.5854 22.5835 21.5235 22.5638 21.46 22.5642C20.34 22.5691 18.8958 22.5707 17.1274 22.5691C15.3182 22.5672 13.8275 21.3287 13.4113 19.5863C13.4085 19.5747 13.402 19.5644 13.3928 19.5568C13.3835 19.5492 13.372 19.5448 13.36 19.5443C12.6543 19.5195 11.9523 19.5164 11.254 19.535C11.0246 19.5406 10.9145 19.5832 10.7259 19.7143C10.0985 20.1529 9.32791 20.682 8.41403 21.3015C8.16011 21.4738 7.96884 21.5707 7.84023 21.5921C7.39009 21.667 6.90903 21.4005 6.78537 20.9441C6.71611 20.6898 6.74456 20.4388 6.8707 20.191C7.09082 19.757 7.2487 19.4346 7.34433 19.224ZM8.21308 20.0884L10.5652 18.4597C10.6205 18.4217 10.6854 18.3999 10.7525 18.3967C10.9661 18.3868 11.2157 18.3808 11.5013 18.3787C12.2474 18.3734 14.245 18.3738 17.4941 18.38C17.9517 18.3808 18.2926 18.3509 18.5168 18.2903C19.2497 18.0933 19.791 17.6384 20.1405 16.9257C20.3067 16.5864 20.3897 16.2554 20.3897 15.9326C20.3893 13.3975 20.3916 11.5324 20.3965 10.3374C20.3982 9.96191 20.2761 9.64429 20.0305 9.3846C19.7535 9.09193 19.4505 8.94538 19.1215 8.94497C15.2615 8.94085 12.0413 8.94085 9.46085 8.94497C9.17477 8.94538 8.98021 8.96105 8.87715 8.99196C8.2545 9.17746 7.83837 9.75497 7.83899 10.3986C7.8394 12.8682 7.84064 15.3403 7.8427 17.8148C7.8427 17.9978 7.89938 18.1217 8.01274 18.1864C8.11847 18.247 8.2848 18.2241 8.36951 18.2606C8.5917 18.3554 8.71742 18.5071 8.74669 18.7157C8.76235 18.8266 8.69867 19.0162 8.55563 19.2846C8.55027 19.2949 8.42537 19.5535 8.18092 20.0606C8.17902 20.0649 8.17855 20.0698 8.1796 20.0744C8.18065 20.079 8.18315 20.0832 8.18675 20.0863C8.19034 20.0894 8.19483 20.0913 8.19957 20.0917C8.20431 20.0921 8.20904 20.0909 8.21308 20.0884ZM23.7899 22.7367C23.7264 22.5714 23.6345 22.3688 23.5141 22.1289C23.4296 21.9607 23.3871 21.838 23.3867 21.761C23.3867 21.4716 23.6235 21.2119 23.9154 21.1983C24.0718 21.1915 24.0817 21.0759 24.0817 20.9423C24.0854 19.507 24.0858 17.4506 24.083 14.7733C24.0825 14.4316 23.9733 14.0942 23.7552 13.7611C23.2192 12.9424 22.458 12.7415 21.5447 12.7916C21.5372 12.7919 21.5299 12.7948 21.5242 12.7999C21.5185 12.8049 21.5146 12.8118 21.5132 12.8194C21.5021 12.8841 21.4971 12.9585 21.4984 13.0426C21.514 14.0781 21.5122 15.1107 21.4928 16.1404C21.4887 16.3519 21.4545 16.566 21.3902 16.7828C21.1272 17.6691 20.5973 18.3806 19.8005 18.9173C19.2407 19.294 18.612 19.495 17.9146 19.5201C17.3721 19.5399 16.8265 19.5383 16.2779 19.5152C15.6929 19.4905 15.2762 19.5133 14.6065 19.5319C14.5999 19.532 14.5934 19.5337 14.5875 19.5367C14.5816 19.5398 14.5765 19.5441 14.5725 19.5495C14.5685 19.5549 14.5658 19.5611 14.5645 19.5676C14.5632 19.5742 14.5634 19.581 14.5651 19.5875C14.8044 20.4711 15.5031 21.061 16.344 21.3584C16.5423 21.4285 16.8191 21.4631 17.1744 21.4623C18.9107 21.4586 20.4363 21.4613 21.7513 21.4703C21.8749 21.4712 21.9755 21.499 22.053 21.5538C23.0213 22.2393 23.592 22.6402 23.7651 22.7565C23.7681 22.7584 23.7715 22.7593 23.775 22.7591C23.7785 22.7589 23.7819 22.7577 23.7846 22.7555C23.7874 22.7533 23.7893 22.7503 23.7903 22.7469C23.7912 22.7435 23.7911 22.74 23.7899 22.7367Z" fill="black"/>
<path d="M11.6494 14.2382C12.099 14.0408 12.3056 13.5211 12.1109 13.0774C11.9161 12.6337 11.3937 12.434 10.944 12.6314C10.4944 12.8288 10.2878 13.3485 10.4826 13.7922C10.6773 14.2359 11.1997 14.4356 11.6494 14.2382Z" fill="black"/>
<path d="M14.3856 14.2892C14.8638 14.1805 15.1646 13.7102 15.0575 13.2387C14.9504 12.7671 14.4759 12.473 13.9977 12.5816C13.5195 12.6902 13.2187 13.1606 13.3258 13.6321C13.4329 14.1036 13.9074 14.3978 14.3856 14.2892Z" fill="black"/>
<path d="M17.2366 14.2954C17.7208 14.2056 18.0419 13.7477 17.9538 13.2726C17.8658 12.7975 17.4019 12.4851 16.9177 12.5748C16.4335 12.6646 16.1124 13.1225 16.2005 13.5976C16.2885 14.0727 16.7524 14.3851 17.2366 14.2954Z" fill="black"/>
</svg>
