<?xml version="1.0" standalone="no"?><!DOCTYPE svg PUBLIC "-//W3C//DTD SVG 1.1//EN" ""><svg t="1763458129262" class="icon" viewBox="0 0 1024 1024" version="1.1" xmlns="" p-id="14560" xmlns:xlink="" width="32" height="32"><path d="M724.992 983.04H299.008c-57.344 0-106.496-49.152-106.496-106.496V147.456C192.512 90.112 241.664 40.96 299.008 40.96h425.984c57.344 0 106.496 49.152 106.496 106.496v724.992c0 61.44-49.152 110.592-106.496 110.592zM299.008 126.976c-12.288 0-20.48 12.288-20.48 20.48v724.992c0 12.288 8.192 20.48 20.48 20.48h425.984c12.288 0 20.48-8.192 20.48-20.48V147.456c0-12.288-8.192-20.48-20.48-20.48H299.008z" p-id="14561" fill="#00D6B9"></path><path d="M552.96 253.952h-86.016c-24.576 0-40.96-20.48-40.96-40.96s20.48-40.96 40.96-40.96h86.016c24.576 0 40.96 20.48 40.96 40.96s-16.384 40.96-40.96 40.96zM598.016 851.968h-172.032c-24.576 0-40.96-20.48-40.96-40.96s20.48-40.96 40.96-40.96h172.032c24.576 0 40.96 20.48 40.96 40.96s-16.384 40.96-40.96 40.96z" p-id="14562" fill="#00D6B9"></path></svg>