<svg width="510" height="123" viewBox="0 0 510 123" fill="none" xmlns="">
<path d="M234.67 3.497H243.338V4.322H234.67V3.497ZM234.087 8.172H243.954V8.997H234.087V8.172ZM235.429 5.07L236.177 4.85C236.324 5.114 236.467 5.39633 236.606 5.697C236.745 5.99767 236.87 6.29467 236.98 6.588C237.097 6.874 237.178 7.12333 237.222 7.336L236.441 7.611C236.39 7.391 236.309 7.138 236.199 6.852C236.096 6.55867 235.979 6.258 235.847 5.95C235.715 5.63467 235.576 5.34133 235.429 5.07ZM241.82 4.795L242.689 5.037C242.557 5.33767 242.41 5.64567 242.249 5.961C242.095 6.27633 241.941 6.58067 241.787 6.874C241.633 7.16733 241.483 7.424 241.336 7.644L240.621 7.413C240.76 7.17833 240.903 6.91067 241.05 6.61C241.204 6.302 241.347 5.99033 241.479 5.675C241.611 5.35233 241.725 5.059 241.82 4.795ZM238.564 3.816H239.422V12.869H238.564V3.816ZM249.333 6.808H252.754V7.567H249.333V6.808ZM248.827 10.361C249.164 10.2437 249.553 10.108 249.993 9.954C250.433 9.8 250.902 9.63133 251.401 9.448C251.9 9.26467 252.395 9.08133 252.886 8.898L253.029 9.613C252.362 9.877 251.683 10.1447 250.994 10.416C250.312 10.6873 249.703 10.9257 249.168 11.131L248.827 10.361ZM249.795 4.586H254.327V5.378H249.795V4.586ZM254.063 4.586H254.888C254.888 4.586 254.888 4.61533 254.888 4.674C254.888 4.72533 254.888 4.78767 254.888 4.861C254.888 4.93433 254.884 4.98933 254.877 5.026C254.84 6.29467 254.8 7.37267 254.756 8.26C254.712 9.14 254.661 9.86233 254.602 10.427C254.543 10.9843 254.474 11.4207 254.393 11.736C254.32 12.0513 254.228 12.275 254.118 12.407C253.993 12.5683 253.861 12.6783 253.722 12.737C253.583 12.803 253.414 12.847 253.216 12.869C253.025 12.891 252.772 12.8983 252.457 12.891C252.142 12.891 251.819 12.88 251.489 12.858C251.482 12.7333 251.452 12.5903 251.401 12.429C251.357 12.275 251.295 12.1393 251.214 12.022C251.581 12.0587 251.918 12.077 252.226 12.077C252.541 12.0843 252.765 12.088 252.897 12.088C253.007 12.0953 253.095 12.0843 253.161 12.055C253.234 12.033 253.304 11.9853 253.37 11.912C253.458 11.8167 253.535 11.6223 253.601 11.329C253.674 11.0283 253.737 10.5993 253.788 10.042C253.847 9.48467 253.898 8.777 253.942 7.919C253.986 7.05367 254.026 6.005 254.063 4.773V4.586ZM250.092 2.76L250.928 2.947C250.767 3.50433 250.572 4.05067 250.345 4.586C250.125 5.114 249.879 5.609 249.608 6.071C249.344 6.52567 249.065 6.929 248.772 7.281C248.721 7.22967 248.651 7.171 248.563 7.105C248.475 7.039 248.383 6.973 248.288 6.907C248.2 6.841 248.119 6.78967 248.046 6.753C248.501 6.269 248.9 5.675 249.245 4.971C249.597 4.267 249.879 3.53 250.092 2.76ZM245.087 5.323H248.574V6.104H245.087V5.323ZM246.473 2.826H247.276V10.02H246.473V2.826ZM244.889 10.229C245.204 10.1117 245.564 9.976 245.967 9.822C246.378 9.66067 246.814 9.48833 247.276 9.305C247.738 9.12167 248.196 8.93467 248.651 8.744L248.827 9.525C248.196 9.79633 247.558 10.0677 246.913 10.339C246.275 10.6103 245.699 10.8487 245.186 11.054L244.889 10.229ZM262.269 3.805C262.042 4.21567 261.748 4.64833 261.389 5.103C261.037 5.55033 260.641 5.983 260.201 6.401C259.768 6.819 259.314 7.18567 258.837 7.501C258.786 7.39833 258.712 7.281 258.617 7.149C258.529 7.017 258.445 6.907 258.364 6.819C258.841 6.511 259.303 6.14433 259.75 5.719C260.197 5.28633 260.601 4.83167 260.96 4.355C261.327 3.87833 261.616 3.41267 261.829 2.958H262.632C262.918 3.44933 263.259 3.93333 263.655 4.41C264.058 4.88667 264.484 5.32667 264.931 5.73C265.386 6.126 265.833 6.45233 266.273 6.709C266.192 6.81167 266.104 6.93267 266.009 7.072C265.921 7.204 265.844 7.32867 265.778 7.446C265.338 7.15267 264.898 6.80433 264.458 6.401C264.018 5.99767 263.607 5.57233 263.226 5.125C262.845 4.67033 262.526 4.23033 262.269 3.805ZM263.49 6.775H264.304V12.792H263.49V6.775ZM260.443 6.786H261.235V8.37C261.235 8.7 261.213 9.063 261.169 9.459C261.132 9.84767 261.048 10.2473 260.916 10.658C260.784 11.0687 260.586 11.472 260.322 11.868C260.058 12.264 259.702 12.6307 259.255 12.968C259.196 12.8873 259.108 12.792 258.991 12.682C258.881 12.572 258.775 12.484 258.672 12.418C259.083 12.1173 259.405 11.791 259.64 11.439C259.882 11.0797 260.058 10.7167 260.168 10.35C260.285 9.98333 260.359 9.62767 260.388 9.283C260.425 8.93833 260.443 8.63033 260.443 8.359V6.786ZM258.419 2.804L259.2 3.035C258.965 3.65833 258.687 4.27433 258.364 4.883C258.041 5.48433 257.693 6.05267 257.319 6.588C256.945 7.12333 256.556 7.59633 256.153 8.007C256.131 7.941 256.091 7.85667 256.032 7.754C255.981 7.65133 255.922 7.54867 255.856 7.446C255.797 7.336 255.742 7.25167 255.691 7.193C256.058 6.83367 256.41 6.41933 256.747 5.95C257.084 5.48067 257.396 4.97833 257.682 4.443C257.968 3.90033 258.214 3.354 258.419 2.804ZM257.275 5.631L258.056 4.85L258.067 4.861V12.858H257.275V5.631ZM272.598 3.948H275.7V4.663H272.598V3.948ZM271.597 8.843H276.239V12.847H275.436V9.558H272.367V12.891H271.597V8.843ZM271.927 11.681H275.865V12.407H271.927V11.681ZM272.917 2.749L273.709 2.958C273.518 3.44933 273.287 3.92233 273.016 4.377C272.745 4.83167 272.451 5.257 272.136 5.653C271.821 6.04167 271.494 6.38267 271.157 6.676C271.113 6.62467 271.051 6.566 270.97 6.5C270.889 6.42667 270.805 6.357 270.717 6.291C270.636 6.21767 270.567 6.159 270.508 6.115C271.014 5.719 271.476 5.224 271.894 4.63C272.319 4.036 272.66 3.409 272.917 2.749ZM275.48 3.948H275.623L275.777 3.915L276.294 4.157C276.059 4.839 275.748 5.45867 275.359 6.016C274.97 6.57333 274.53 7.07567 274.039 7.523C273.548 7.963 273.02 8.34433 272.455 8.667C271.89 8.98967 271.318 9.25733 270.739 9.47C270.688 9.36733 270.614 9.25 270.519 9.118C270.431 8.986 270.347 8.87967 270.266 8.799C270.816 8.63033 271.359 8.39933 271.894 8.106C272.429 7.80533 272.932 7.457 273.401 7.061C273.87 6.65767 274.281 6.20667 274.633 5.708C274.992 5.20933 275.275 4.66667 275.48 4.08V3.948ZM272.532 4.52C272.767 5.03333 273.097 5.554 273.522 6.082C273.955 6.60267 274.483 7.083 275.106 7.523C275.737 7.95567 276.455 8.293 277.262 8.535C277.203 8.59367 277.141 8.66333 277.075 8.744C277.009 8.82467 276.947 8.909 276.888 8.997C276.837 9.07767 276.789 9.15467 276.745 9.228C275.931 8.942 275.209 8.56433 274.578 8.095C273.947 7.62567 273.412 7.11233 272.972 6.555C272.532 5.99767 272.187 5.44767 271.938 4.905L272.532 4.52ZM267.087 5.114H270.948V5.895H267.087V5.114ZM268.737 2.76H269.518V12.869H268.737V2.76ZM268.704 5.609L269.232 5.785C269.144 6.225 269.027 6.68333 268.88 7.16C268.741 7.62933 268.583 8.09133 268.407 8.546C268.238 8.99333 268.055 9.41133 267.857 9.8C267.659 10.1887 267.457 10.5223 267.252 10.801C267.208 10.691 267.142 10.5663 267.054 10.427C266.973 10.2877 266.896 10.1703 266.823 10.075C267.021 9.82567 267.212 9.52867 267.395 9.184C267.586 8.83933 267.765 8.46533 267.934 8.062C268.103 7.65867 268.253 7.248 268.385 6.83C268.517 6.412 268.623 6.005 268.704 5.609ZM269.474 6.335C269.54 6.40833 269.639 6.52567 269.771 6.687C269.91 6.841 270.057 7.01333 270.211 7.204C270.365 7.39467 270.508 7.57067 270.64 7.732C270.772 7.89333 270.864 8.01067 270.915 8.084L270.42 8.711C270.354 8.59367 270.262 8.44333 270.145 8.26C270.028 8.07667 269.899 7.886 269.76 7.688C269.621 7.48267 269.489 7.292 269.364 7.116C269.239 6.94 269.137 6.80433 269.056 6.709L269.474 6.335Z" fill="#2B2B2B"/>
<path d="M405.23 46.343H414.8V47.091H405.23V46.343ZM409.652 46.662H410.51V50.93C410.51 51.3553 410.477 51.7697 410.411 52.173C410.345 52.569 410.217 52.9503 410.026 53.317C409.835 53.6837 409.557 54.0283 409.19 54.351C408.823 54.6737 408.339 54.9633 407.738 55.22C407.144 55.4767 406.407 55.7003 405.527 55.891C405.498 55.825 405.454 55.748 405.395 55.66C405.336 55.572 405.274 55.4803 405.208 55.385C405.149 55.297 405.091 55.2237 405.032 55.165C405.89 55.0037 406.601 54.813 407.166 54.593C407.731 54.373 408.178 54.1273 408.508 53.856C408.845 53.5773 409.095 53.284 409.256 52.976C409.417 52.6607 409.524 52.3307 409.575 51.986C409.626 51.6413 409.652 51.2857 409.652 50.919V46.662ZM407.023 50.479V51.601H413.293V50.479H407.023ZM407.023 48.719V49.819H413.293V48.719H407.023ZM406.231 48.026H414.118V52.283H406.231V48.026ZM407.287 52.382C407.639 52.9247 408.061 53.3647 408.552 53.702C409.043 54.0393 409.612 54.2997 410.257 54.483C410.91 54.6663 411.643 54.7983 412.457 54.879C413.271 54.9523 414.177 55.0037 415.174 55.033C415.101 55.1283 415.027 55.253 414.954 55.407C414.888 55.561 414.844 55.7077 414.822 55.847C413.803 55.803 412.871 55.726 412.028 55.616C411.185 55.5133 410.422 55.3483 409.74 55.121C409.058 54.901 408.453 54.593 407.925 54.197C407.397 53.801 406.95 53.2913 406.583 52.668L407.287 52.382ZM425.69 49.896H419.794C419.651 50.325 419.508 50.732 419.376 51.106H424.139L424.282 51.073L424.898 51.436C424.106 52.25 422.995 53.339 421.983 54.307C422.687 54.593 423.314 54.879 423.776 55.154L423.281 55.858C422.214 55.198 420.047 54.318 418.364 53.812L418.826 53.218C419.552 53.416 420.366 53.691 421.169 53.988C421.906 53.295 422.72 52.514 423.347 51.876H418.243C418.463 51.326 418.705 50.633 418.958 49.896H416.175V49.104H419.211C419.354 48.675 419.486 48.235 419.629 47.806H417.055V47.025H419.849C419.981 46.596 420.102 46.167 420.212 45.771L421.037 45.892C420.927 46.244 420.817 46.64 420.707 47.025H424.909V47.806H420.465C420.322 48.235 420.19 48.675 420.047 49.104H425.69V49.896ZM435.876 48.334L436.613 48.697C436.085 49.951 435.348 51.469 434.721 52.481L434.05 52.118C434.655 51.128 435.447 49.544 435.876 48.334ZM429.76 52.085L428.946 52.393C428.682 51.425 428.022 49.775 427.45 48.532L428.209 48.301C428.792 49.522 429.463 51.128 429.76 52.085ZM433.764 54.461H436.833V55.264H427.219V54.461H430.277V45.936H431.091V54.461H432.95V45.947H433.764V54.461Z" fill="#2B2B2B"/>
<path d="M78.2301 46.343H87.8001V47.091H78.2301V46.343ZM82.6521 46.662H83.5101V50.93C83.5101 51.3553 83.4771 51.7697 83.4111 52.173C83.3451 52.569 83.2168 52.9503 83.0261 53.317C82.8355 53.6837 82.5568 54.0283 82.1901 54.351C81.8235 54.6737 81.3395 54.9633 80.7381 55.22C80.1441 55.4767 79.4071 55.7003 78.5271 55.891C78.4978 55.825 78.4538 55.748 78.3951 55.66C78.3365 55.572 78.2741 55.4803 78.2081 55.385C78.1495 55.297 78.0908 55.2237 78.0321 55.165C78.8901 55.0037 79.6015 54.813 80.1661 54.593C80.7308 54.373 81.1781 54.1273 81.5081 53.856C81.8455 53.5773 82.0948 53.284 82.2561 52.976C82.4175 52.6607 82.5238 52.3307 82.5751 51.986C82.6265 51.6413 82.6521 51.2857 82.6521 50.919V46.662ZM80.0231 50.479V51.601H86.2931V50.479H80.0231ZM80.0231 48.719V49.819H86.2931V48.719H80.0231ZM79.2311 48.026H87.1181V52.283H79.2311V48.026ZM80.2871 52.382C80.6391 52.9247 81.0608 53.3647 81.5521 53.702C82.0435 54.0393 82.6118 54.2997 83.2571 54.483C83.9098 54.6663 84.6431 54.7983 85.4571 54.879C86.2711 54.9523 87.1768 55.0037 88.1741 55.033C88.1008 55.1283 88.0275 55.253 87.9541 55.407C87.8881 55.561 87.8441 55.7077 87.8221 55.847C86.8028 55.803 85.8715 55.726 85.0281 55.616C84.1848 55.5133 83.4221 55.3483 82.7401 55.121C82.0581 54.901 81.4531 54.593 80.9251 54.197C80.3971 53.801 79.9498 53.2913 79.5831 52.668L80.2871 52.382ZM90.3521 47.817V49.269H89.5491V47.047H93.7951C93.6521 46.706 93.4431 46.299 93.2451 45.98L94.0481 45.727C94.3121 46.134 94.6091 46.662 94.7631 47.047H98.5031V49.269H97.6671V47.817H90.3521ZM93.3001 49.577L92.7831 50.16C92.4641 49.786 91.7711 49.247 91.1771 48.895L91.6721 48.378C92.2551 48.697 92.9591 49.192 93.3001 49.577ZM90.0991 50.589L90.5721 50.039C91.1771 50.369 91.9361 50.875 92.2881 51.249L91.7931 51.865C91.4411 51.469 90.7041 50.941 90.0991 50.589ZM94.4221 53.79L94.8181 53.196C96.2811 53.724 97.8211 54.483 98.7121 55.143L98.2171 55.77C97.3371 55.099 95.8741 54.34 94.4221 53.79ZM94.4661 52.173H98.7561V52.888H94.2131C93.5861 54.285 92.3541 55.242 89.9121 55.803C89.8241 55.583 89.6261 55.275 89.4501 55.099C91.5401 54.659 92.6621 53.944 93.2671 52.888H89.3401V52.173H93.5971C93.9381 51.161 94.0041 49.918 94.0481 48.367H94.8951C94.8511 49.863 94.7631 51.117 94.4661 52.173ZM100.351 46.442H109.668V47.124H100.351V46.442ZM104.531 45.771H105.378V52.052H104.531V45.771ZM101.88 49.632V50.358H108.095V49.632H101.88ZM101.88 48.378V49.104H108.095V48.378H101.88ZM101.099 47.839H108.909V50.919H101.099V47.839ZM106.566 51.304L107.116 50.886C107.446 51.018 107.776 51.1793 108.106 51.37C108.443 51.5533 108.759 51.7477 109.052 51.953C109.345 52.151 109.584 52.3417 109.767 52.525L109.217 52.998C109.026 52.8073 108.784 52.6093 108.491 52.404C108.205 52.1913 107.893 51.9897 107.556 51.799C107.226 51.601 106.896 51.436 106.566 51.304ZM100.351 51.799C100.85 51.799 101.414 51.799 102.045 51.799C102.676 51.7917 103.35 51.788 104.069 51.788C104.795 51.7807 105.539 51.7733 106.302 51.766C107.065 51.7587 107.824 51.7477 108.579 51.733L108.535 52.382C107.552 52.404 106.562 52.426 105.565 52.448C104.568 52.47 103.622 52.4883 102.727 52.503C101.84 52.5103 101.059 52.5177 100.384 52.525L100.351 51.799ZM102.408 53.141H103.222V54.692C103.222 54.8387 103.27 54.934 103.365 54.978C103.468 55.0147 103.691 55.033 104.036 55.033C104.102 55.033 104.212 55.033 104.366 55.033C104.52 55.033 104.696 55.033 104.894 55.033C105.092 55.033 105.294 55.033 105.499 55.033C105.704 55.033 105.891 55.033 106.06 55.033C106.229 55.033 106.357 55.033 106.445 55.033C106.621 55.033 106.753 55.0073 106.841 54.956C106.936 54.9047 107.002 54.802 107.039 54.648C107.083 54.4867 107.112 54.2447 107.127 53.922C107.23 53.9807 107.351 54.0357 107.49 54.087C107.629 54.1383 107.754 54.175 107.864 54.197C107.827 54.615 107.765 54.934 107.677 55.154C107.596 55.374 107.464 55.5243 107.281 55.605C107.098 55.6857 106.837 55.726 106.5 55.726C106.449 55.726 106.335 55.726 106.159 55.726C105.99 55.726 105.796 55.726 105.576 55.726C105.356 55.726 105.132 55.726 104.905 55.726C104.685 55.726 104.491 55.726 104.322 55.726C104.161 55.726 104.051 55.726 103.992 55.726C103.574 55.726 103.248 55.6967 103.013 55.638C102.786 55.5867 102.628 55.484 102.54 55.33C102.452 55.1833 102.408 54.9743 102.408 54.703V53.141ZM103.981 53.02L104.509 52.558C104.729 52.668 104.956 52.7927 105.191 52.932C105.426 53.0713 105.646 53.2143 105.851 53.361C106.064 53.5077 106.236 53.647 106.368 53.779L105.818 54.285C105.693 54.153 105.528 54.0137 105.323 53.867C105.125 53.713 104.909 53.5627 104.674 53.416C104.439 53.262 104.208 53.13 103.981 53.02ZM107.809 53.361L108.513 53.108C108.689 53.3207 108.865 53.5517 109.041 53.801C109.217 54.0503 109.375 54.296 109.514 54.538C109.653 54.7727 109.756 54.989 109.822 55.187L109.074 55.462C109.008 55.2713 108.905 55.055 108.766 54.813C108.634 54.571 108.484 54.3217 108.315 54.065C108.154 53.8083 107.985 53.5737 107.809 53.361ZM101.121 53.097L101.825 53.383C101.752 53.6103 101.66 53.856 101.55 54.12C101.447 54.3767 101.334 54.6297 101.209 54.879C101.084 55.1283 100.945 55.352 100.791 55.55L100.087 55.143C100.234 54.967 100.373 54.7617 100.505 54.527C100.637 54.2923 100.754 54.0503 100.857 53.801C100.967 53.5517 101.055 53.317 101.121 53.097Z" fill="#2B2B2B"/>
<path d="M255.229 51C167.782 51 128.563 121 0 121H508.03C381.826 121 342.676 51 255.229 51Z" fill="#C9FF85" fill-opacity="0.28"/>
<path d="M1 122C10.0132 122.069 18.7707 121.802 27.6574 121.148C110.115 120.836 173.955 54.4482 255.053 53.0649C255.444 53.062 255.836 53.0606 256.229 53.0606C337.194 53.4345 400.338 120.437 482.373 121.108C491.272 121.79 500.018 122.069 509.03 122C509.03 122 509.03 122 509.03 122C500.018 121.927 491.283 121.514 482.407 120.706C400.589 118.92 338.739 51.5978 256.229 50.9394C255.831 50.9394 255.433 50.9408 255.037 50.9437C172.391 52.6182 109.887 119.303 27.6248 120.746C18.7599 121.526 10.0132 121.927 1 122Z" fill="black"/>
</svg>
