<svg width="16" height="16" viewBox="0 0 16 16" fill="none" xmlns="">
<path d="M5.97322 14.9829C5.90603 14.9829 5.84354 14.9485 5.8076 14.8923L4.66541 13.1423C4.60916 13.0563 4.51541 13.0063 4.41385 13.0063H2.47635C2.40604 13.0063 2.34197 12.9704 2.30604 12.9079C2.2701 12.847 2.26854 12.7735 2.30291 12.7126L3.94354 9.72822C3.12166 8.77197 2.67166 7.55322 2.67166 6.29697C2.67166 3.37979 5.0451 1.00635 7.96385 1.00635C8.16385 1.00635 8.36697 1.01729 8.56697 1.04072C9.73572 1.17041 10.8451 1.70478 11.6904 2.54541C12.5357 3.38447 13.0763 4.49072 13.2154 5.65947C13.3045 6.41103 13.2373 7.15166 13.017 7.86103C12.8092 8.53291 12.4732 9.14853 12.017 9.69228L13.6795 12.7157C13.7138 12.7782 13.7123 12.8517 13.6763 12.9126C13.6404 12.9735 13.5763 13.0095 13.506 13.0095H11.5685C11.467 13.0095 11.3732 13.061 11.317 13.1454L10.1732 14.8954C10.1357 14.9517 10.0748 14.986 10.0076 14.986C9.93572 14.986 9.87166 14.9485 9.83572 14.886L7.99041 11.6657L6.1451 14.8829C6.10916 14.9454 6.0451 14.9829 5.97322 14.9829ZM10.006 13.3751C10.0154 13.3907 10.031 13.4001 10.0482 13.4001C10.067 13.4001 10.0826 13.3923 10.092 13.3782L10.8342 12.2423L10.8357 12.2438C10.9045 12.1595 11.0076 12.1095 11.117 12.1095H12.2404C12.2592 12.1095 12.2748 12.1001 12.2842 12.0845C12.2935 12.0688 12.2935 12.0501 12.2842 12.0345L11.3576 10.3485C10.6607 10.9329 9.82322 11.3298 8.92947 11.4954L10.006 13.3751ZM5.88885 13.3782C5.89822 13.3923 5.91385 13.4017 5.93104 13.4017H5.9326C5.94979 13.4017 5.96697 13.3907 5.97479 13.3767L7.04666 11.5079C6.14979 11.3501 5.3076 10.9626 4.60603 10.3829L3.71854 11.9985C3.70604 12.022 3.70604 12.0501 3.7201 12.0735C3.73416 12.097 3.7576 12.111 3.78416 12.111H4.86541C4.98885 12.111 5.10291 12.172 5.1701 12.2751L5.88416 13.3704L5.88885 13.3782ZM7.96385 1.90322C7.77322 1.90322 7.57947 1.91572 7.38885 1.94072C5.41385 2.19228 3.8576 3.74853 3.60604 5.72353C3.4451 6.98447 3.83104 8.2501 4.66541 9.19697C5.50135 10.1454 6.70291 10.6907 7.96229 10.6907C8.15291 10.6907 8.3451 10.6782 8.53572 10.6548C10.5107 10.4032 12.067 8.84697 12.3185 6.87197C12.4795 5.61103 12.092 4.34385 11.2592 3.39697C10.4248 2.44697 9.22322 1.90322 7.96385 1.90322ZM7.96229 9.2501C6.33416 9.2501 5.00916 7.9251 5.00916 6.29697C5.00916 4.66885 6.33416 3.34385 7.96229 3.34385C9.59041 3.34385 10.9154 4.66885 10.9154 6.29697C10.9154 7.9251 9.59041 9.2501 7.96229 9.2501ZM7.96229 4.24072C6.82791 4.24072 5.90604 5.1626 5.90604 6.29697C5.90604 7.43135 6.82791 8.35322 7.96229 8.35322C9.09666 8.35322 10.0185 7.43135 10.0185 6.29697C10.0185 5.1626 9.09666 4.24072 7.96229 4.24072Z" fill="black"/>
</svg>
