<svg width="106" height="17" viewBox="0 0 106 17" fill="none" xmlns="">
<path d="M17.9643 6.44077C17.9222 6.3127 17.8447 6.19882 17.7406 6.11202C17.6365 6.02522 17.5099 5.96896 17.3752 5.9496L12.0402 5.18299L9.65437 0.402303C9.59411 0.281545 9.50089 0.179868 9.38524 0.108773C9.2696 0.037678 9.13614 0 8.99997 0C8.8638 0 8.73035 0.037678 8.6147 0.108773C8.49906 0.179868 8.40583 0.281545 8.34558 0.402303L5.95972 5.18301L0.624784 5.94962C0.490039 5.969 0.363463 6.02527 0.259365 6.11207C0.155268 6.19886 0.0778008 6.31273 0.0357226 6.44079C-0.00635573 6.56886 -0.0113672 6.706 0.0212547 6.83674C0.0538767 6.96747 0.122831 7.08657 0.220322 7.18057L4.08074 10.9018L3.16943 16.1563C3.1464 16.289 3.16138 16.4255 3.21268 16.5502C3.26399 16.675 3.34956 16.783 3.45972 16.8622C3.56989 16.9413 3.70025 16.9884 3.83607 16.9981C3.97189 17.0078 4.10775 16.9798 4.22827 16.9171L8.99998 14.4363L13.7717 16.9171C13.9306 17 14.2967 17.0192 14.5402 16.8621C14.7719 16.7127 14.8775 16.4271 14.8305 16.1563L13.9192 10.9018L17.7796 7.18057C17.8771 7.08658 17.9461 6.96747 17.9787 6.83674C18.0114 6.706 18.0064 6.56884 17.9643 6.44077Z" fill="#FFAA00"/>
<path d="M39.9643 6.44077C39.9222 6.3127 39.8447 6.19882 39.7406 6.11202C39.6365 6.02522 39.5099 5.96896 39.3752 5.9496L34.0402 5.18299L31.6544 0.402303C31.5941 0.281545 31.5009 0.179868 31.3852 0.108773C31.2696 0.037678 31.1361 0 31 0C30.8638 0 30.7303 0.037678 30.6147 0.108773C30.4991 0.179868 30.4058 0.281545 30.3456 0.402303L27.9597 5.18301L22.6248 5.94962C22.49 5.969 22.3635 6.02527 22.2594 6.11207C22.1553 6.19886 22.0778 6.31273 22.0357 6.44079C21.9936 6.56886 21.9886 6.706 22.0213 6.83674C22.0539 6.96747 22.1228 7.08657 22.2203 7.18057L26.0807 10.9018L25.1694 16.1563C25.1464 16.289 25.1614 16.4255 25.2127 16.5502C25.264 16.675 25.3496 16.783 25.4597 16.8622C25.5699 16.9413 25.7003 16.9884 25.8361 16.9981C25.9719 17.0078 26.1077 16.9798 26.2283 16.9171L31 14.4363L35.7717 16.9171C35.9306 17 36.2967 17.0192 36.5402 16.8621C36.7719 16.7127 36.8775 16.4271 36.8305 16.1563L35.9192 10.9018L39.7796 7.18057C39.8771 7.08658 39.9461 6.96747 39.9787 6.83674C40.0114 6.706 40.0064 6.56884 39.9643 6.44077Z" fill="#FFAA00"/>
<path d="M61.9643 6.44077C61.9222 6.3127 61.8447 6.19882 61.7406 6.11202C61.6365 6.02522 61.5099 5.96896 61.3752 5.9496L56.0402 5.18299L53.6544 0.402303C53.5941 0.281545 53.5009 0.179868 53.3852 0.108773C53.2696 0.037678 53.1361 0 53 0C52.8638 0 52.7303 0.037678 52.6147 0.108773C52.4991 0.179868 52.4058 0.281545 52.3456 0.402303L49.9597 5.18301L44.6248 5.94962C44.49 5.969 44.3635 6.02527 44.2594 6.11207C44.1553 6.19886 44.0778 6.31273 44.0357 6.44079C43.9936 6.56886 43.9886 6.706 44.0213 6.83674C44.0539 6.96747 44.1228 7.08657 44.2203 7.18057L48.0807 10.9018L47.1694 16.1563C47.1464 16.289 47.1614 16.4255 47.2127 16.5502C47.264 16.675 47.3496 16.783 47.4597 16.8622C47.5699 16.9413 47.7003 16.9884 47.8361 16.9981C47.9719 17.0078 48.1077 16.9798 48.2283 16.9171L53 14.4363L57.7717 16.9171C57.9306 17 58.2967 17.0192 58.5402 16.8621C58.7719 16.7127 58.8775 16.4271 58.8305 16.1563L57.9192 10.9018L61.7796 7.18057C61.8771 7.08658 61.9461 6.96747 61.9787 6.83674C62.0114 6.706 62.0064 6.56884 61.9643 6.44077Z" fill="#FFAA00"/>
<path d="M83.9643 6.44077C83.9222 6.3127 83.8447 6.19882 83.7406 6.11202C83.6365 6.02522 83.5099 5.96896 83.3752 5.9496L78.0402 5.18299L75.6544 0.402303C75.5941 0.281545 75.5009 0.179868 75.3852 0.108773C75.2696 0.037678 75.1361 0 75 0C74.8638 0 74.7303 0.037678 74.6147 0.108773C74.4991 0.179868 74.4058 0.281545 74.3456 0.402303L71.9597 5.18301L66.6248 5.94962C66.49 5.969 66.3635 6.02527 66.2594 6.11207C66.1553 6.19886 66.0778 6.31273 66.0357 6.44079C65.9936 6.56886 65.9886 6.706 66.0213 6.83674C66.0539 6.96747 66.1228 7.08657 66.2203 7.18057L70.0807 10.9018L69.1694 16.1563C69.1464 16.289 69.1614 16.4255 69.2127 16.5502C69.264 16.675 69.3496 16.783 69.4597 16.8622C69.5699 16.9413 69.7003 16.9884 69.8361 16.9981C69.9719 17.0078 70.1077 16.9798 70.2283 16.9171L75 14.4363L79.7717 16.9171C79.9306 17 80.2967 17.0192 80.5402 16.8621C80.7719 16.7127 80.8775 16.4271 80.8305 16.1563L79.9192 10.9018L83.7796 7.18057C83.8771 7.08658 83.9461 6.96747 83.9787 6.83674C84.0114 6.706 84.0064 6.56884 83.9643 6.44077Z" fill="#FFAA00"/>
<g clip-path="url(#clip0_9466_3410)">
<path d="M105.964 6.44077C105.922 6.3127 105.845 6.19882 105.741 6.11202C105.637 6.02522 105.51 5.96896 105.375 5.9496L100.04 5.18299L97.6544 0.402303C97.5941 0.281545 97.5009 0.179868 97.3852 0.108773C97.2696 0.037678 97.1361 0 97 0C96.8638 0 96.7303 0.037678 96.6147 0.108773C96.4991 0.179868 96.4058 0.281545 96.3456 0.402303L93.9597 5.18301L88.6248 5.94962C88.49 5.969 88.3635 6.02527 88.2594 6.11207C88.1553 6.19886 88.0778 6.31273 88.0357 6.44079C87.9936 6.56886 87.9886 6.706 88.0213 6.83674C88.0539 6.96747 88.1228 7.08657 88.2203 7.18057L92.0807 10.9018L91.1694 16.1563C91.1464 16.289 91.1614 16.4255 91.2127 16.5502C91.264 16.675 91.3496 16.783 91.4597 16.8622C91.5699 16.9413 91.7003 16.9884 91.8361 16.9981C91.9719 17.0078 92.1077 16.9798 92.2283 16.9171L97 14.4363L101.772 16.9171C101.931 17 102.297 17.0192 102.54 16.8621C102.772 16.7127 102.877 16.4271 102.831 16.1563L101.919 10.9018L105.78 7.18057C105.877 7.08658 105.946 6.96747 105.979 6.83674C106.011 6.706 106.006 6.56884 105.964 6.44077Z" fill="#FFAA00"/>
</g>
<defs>
<clipPath id="clip0_9466_3410">
<rect width="12" height="17" fill="white" transform="translate(88)"/>
</clipPath>
</defs>
</svg>
