<svg preserveAspectRatio="xMidYMid meet" overflow="visible" style="display: block;" viewBox="0 0 175.572 79.0173" fill="none" xmlns="">
<g id="Group 427321297">
<g id="Vector">
</g>
<g id="Vector_2">
</g>
<g id="Vector_3">
</g>
<g id="Vector_4">
</g>
<g id="Vector_5">
</g>
<g id="Vector_6">
</g>
<g id="Vector_7">
</g>
<path id="Vector_8" d="M171.418 0.956216C171.43 1.13454 171.41 1.39337 171.355 1.73271C171.326 1.91296 171.22 2.11951 171.038 2.35236C170.928 2.49284 170.742 2.76129 170.48 3.15771C170.046 3.81521 169.61 4.42043 169.173 4.97337C168.926 5.28448 168.613 5.41341 168.235 5.36017C166.609 5.12828 167.904 2.43896 168.375 1.60377C168.813 0.830169 169.32 0.249967 170.174 0.0402087C170.88 -0.132986 171.366 0.270172 171.418 0.956216Z" fill="var(--fill-0, #96DA45)"/>
<path id="Vector_9" d="M68.9882 37.8716C68.9873 37.8684 68.9856 37.8655 68.9831 37.8632C68.9807 37.8609 68.9777 37.8593 68.9744 37.8586C68.9711 37.8579 68.9677 37.8581 68.9646 37.8592C68.9614 37.8603 68.9586 37.8623 68.9565 37.8649C68.7583 38.1189 68.4917 38.4185 68.1569 38.7636C67.5757 39.362 67.2297 39.7293 67.1187 39.8653C66.6212 40.4743 65.99 41.0334 65.431 41.6097C64.8511 42.2089 64.1923 42.7791 63.4547 43.3205C62.6483 43.9123 61.3475 44.5733 60.3766 44.1172C59.6579 43.7795 59.501 43.003 59.4587 42.2505C59.4446 42.0042 59.4882 41.6681 59.5895 41.2422C59.6896 40.8236 59.7627 40.3387 59.96 39.873C60.2025 39.3043 60.3352 38.8886 60.5902 38.4056C60.6781 38.2388 60.7669 38.0406 60.8567 37.811C60.8603 37.8021 60.8612 37.7923 60.8594 37.7829C60.8576 37.7734 60.8532 37.7647 60.8466 37.7577C60.8401 37.7506 60.8317 37.7456 60.8224 37.7431C60.8132 37.7406 60.8034 37.7408 60.7942 37.7436C60.3044 37.8889 59.6925 38.192 59.1912 38.3556C58.6459 38.5339 58.1257 38.7241 57.6305 38.9262C57.1821 39.108 56.6116 39.2649 56.1709 39.4265C53.8068 40.2973 51.18 41.2239 49.0314 42.0908C48.9906 42.1074 48.956 42.1365 48.9327 42.174C48.9093 42.2115 48.8984 42.2555 48.9015 42.2996C48.9487 42.9472 48.8351 43.4283 48.6619 44.1528C48.3656 45.3953 47.914 46.5913 47.3072 47.7408C45.9447 50.3224 44.3042 52.5604 42.3846 54.7494C41.7008 55.5301 41.2716 56.015 41.0972 56.2043C39.1869 58.2743 37.0752 60.2997 34.7621 62.2805C31.5416 65.0391 28.4395 67.4686 25.0593 69.801C24.2319 70.3719 23.3553 70.956 22.4297 71.5532C21.0547 72.4403 19.7933 73.1658 18.4683 73.95C17.4792 74.535 15.9926 75.2759 15.2007 75.7031C14.8486 75.893 14.4307 76.0899 13.947 76.2939C13.4447 76.5056 12.8972 76.7702 12.2506 77.0338C10.5957 77.7064 8.89837 78.2914 7.11927 78.6849C6.19364 78.8896 5.28405 78.9996 4.3905 79.015C3.74326 79.0259 3.22977 78.9992 2.85003 78.9351C1.93594 78.7802 0.815951 78.3222 0.354099 77.461C0.0275951 76.851 -0.0731143 76.2031 0.0519707 75.5174C0.186036 74.7791 0.472449 74.0526 0.911208 73.338C1.43015 72.4919 1.99945 71.6911 2.6191 70.9354C2.72302 70.8091 3.07293 70.4267 3.66885 69.7885C3.97675 69.4601 4.3411 69.0919 4.7619 68.6839C7.16995 66.3522 9.67999 64.1853 12.292 62.1833C13.2799 61.4264 14.0054 60.877 14.4685 60.5351C15.831 59.5299 17.4096 58.4215 19.2044 57.2098C20.3398 56.4439 21.3764 55.7639 22.3142 55.1699C24.6818 53.6702 26.9613 52.2965 29.1525 51.0488C29.8921 50.628 30.4072 50.3323 30.6978 50.1617C31.6805 49.5837 32.9622 48.8772 34.5427 48.042C36.0739 47.2325 37.2802 46.609 38.1615 46.1715C38.812 45.8488 39.2738 45.6275 39.5471 45.5076C40.1927 45.2237 40.7479 44.8773 41.3945 44.6166C42.4433 44.1923 43.4084 43.7063 44.5697 43.2195C45.3966 42.8731 45.9322 42.6534 46.1766 42.5604C46.1942 42.5537 46.2103 42.5435 46.2239 42.5304C46.2375 42.5173 46.2482 42.5017 46.2555 42.4844C46.3074 42.3564 46.2641 42.214 46.2632 42.0918C46.258 41.3708 46.1179 40.6504 45.8427 39.9307C45.6137 39.3303 45.2433 38.804 44.6967 38.4133C43.8644 37.8187 43.0735 37.4675 42.0392 37.2972C40.9807 37.1233 40.1048 37.0246 39.4114 37.0008C38.7456 36.979 37.6317 37.0162 36.0697 37.1124C35.783 37.1298 34.984 37.2173 33.6729 37.3751C31.9352 37.5839 30.0012 37.9332 28.4905 38.1381C25.7175 38.5144 22.8935 39.2177 20.0463 38.9858C19.6576 38.9538 19.1678 38.8563 18.5771 38.6933C16.3669 38.0833 16.212 36.0502 16.8422 34.2057C17.1469 33.3153 17.5911 32.389 18.1749 31.4268C18.9337 30.1766 19.7692 28.9765 20.6814 27.8263C21.2606 27.0951 22.1574 26.0107 22.8761 25.2371C24.5593 23.4243 26.2268 21.7632 27.8786 20.2539C28.2237 19.9383 29.082 19.172 30.4534 17.9552C31.2879 17.2143 32.1116 16.5273 32.9243 15.8942C34.4176 14.7299 35.2669 14.0721 35.4722 13.9207C36.952 12.8309 38.2298 11.9367 39.3056 11.2381C40.2755 10.6076 41.092 10.0931 41.7553 9.69477C43.9594 8.36823 46.115 7.25241 48.2222 6.34731C48.6347 6.17026 49.3608 5.89347 50.4006 5.51693C51.1935 5.2302 52.1938 4.99158 53.4017 4.80106C54.4659 4.63364 55.4107 4.73275 56.4095 5.02429C57.5035 5.34374 58.0471 6.11157 58.4657 7.13149C58.6139 7.49392 58.7011 7.93685 58.7274 8.46028C58.7595 9.0902 58.7306 9.62902 58.6408 10.0768C58.3464 11.5431 57.8515 13.0355 57.1562 14.5538C57.0214 14.847 56.6465 15.5802 56.0313 16.7534C55.8306 17.137 55.2824 18.0479 54.387 19.486C54.0284 20.0621 53.097 21.4236 51.5928 23.5705C51.5671 23.6071 51.3063 23.9464 50.8105 24.5885C50.5045 24.9843 50.0921 25.1591 49.5731 25.1129C49.1295 25.0735 48.6542 24.7762 48.7784 24.2633C48.8342 24.0295 48.9977 23.865 49.1526 23.6851C49.4894 23.2957 49.9897 22.6882 50.6537 21.8627C51.6024 20.6824 52.4623 19.4646 53.2333 18.2092C54.7969 15.6633 56.3046 12.9383 56.778 9.94494C56.8351 9.58316 56.8438 9.11521 56.804 8.5411C56.761 7.9253 56.6484 7.47916 56.4663 7.20269C56.1693 6.75111 55.8213 6.44962 55.4223 6.29823C54.938 6.11542 54.3793 6.07051 53.7461 6.16353C52.6627 6.32229 51.5264 6.58112 50.3842 7.01988C48.9788 7.55935 47.7097 8.1248 46.5769 8.71622C45.5114 9.27237 44.3362 9.94655 43.0514 10.7388C42.5632 11.0396 42.17 11.2959 41.8717 11.5075C41.3416 11.8838 40.8047 12.2061 40.313 12.5592C36.6631 15.1725 33.3368 17.8904 30.3341 20.7128C28.1506 22.7642 25.9122 25.1351 23.6189 27.8254C23.2854 28.216 23.0067 28.5634 22.7828 28.8674C22.4162 29.3639 22.014 29.8094 21.7013 30.2857C21.3087 30.8842 20.9094 31.3845 20.5178 32.0465C19.8693 33.1444 19.2708 34.2297 19.1438 35.4498C19.0812 36.0521 19.2044 36.5486 19.673 36.9277C19.9668 37.165 20.275 37.3164 20.5977 37.3819C21.3469 37.5339 22.1506 37.5692 23.0089 37.4877C23.9769 37.396 24.5051 37.345 24.5936 37.3347C26.6072 37.1019 28.8064 36.7882 31.1914 36.3937C31.9525 36.2676 32.6953 36.2243 33.4959 36.1281C35.1912 35.9241 36.8427 35.7997 38.4502 35.7548C39.5477 35.7246 40.7408 35.7795 42.0295 35.9193C42.6742 35.9892 43.2381 36.0928 43.7211 36.2301C44.4664 36.4412 45.0101 36.6208 45.352 36.7689C46.0958 37.0913 47.1494 37.836 47.6622 38.6096C47.9865 39.0984 48.4031 39.6517 48.5494 40.2309C48.6475 40.6196 48.7347 40.9891 48.8111 41.3394C48.8128 41.3472 48.8162 41.3546 48.821 41.3611C48.8257 41.3676 48.8318 41.373 48.8387 41.3771C48.8456 41.3812 48.8534 41.3837 48.8614 41.3847C48.8693 41.3857 48.8774 41.385 48.8852 41.3826C49.6299 41.1536 50.3073 40.8467 51.0809 40.5658C53.1047 39.83 54.6468 39.2806 55.7071 38.9175C56.0419 38.803 56.4201 38.6221 56.8127 38.4913C58.3528 37.9762 59.8824 37.3543 61.4014 36.6256C61.5213 36.5678 61.6169 36.4703 61.6881 36.3331C61.9854 35.7548 62.3587 35.1861 62.6445 34.6656C63.1519 33.7406 63.4861 33.154 63.6471 32.9057C63.7241 32.7864 63.8565 32.6937 64.0445 32.6277C64.4441 32.4872 64.8351 32.5084 65.2174 32.6912C65.5401 32.8458 65.7052 33.0712 65.7129 33.3676C65.7174 33.5369 65.6202 33.8115 65.4214 34.1912C65.1783 34.6576 64.7071 35.4158 64.0079 36.4658C63.8142 36.7564 63.3915 37.4668 62.7398 38.5971C62.5807 38.8742 62.4614 39.1132 62.3818 39.3139C62.1605 39.8787 61.8959 40.3204 61.7554 40.9208C61.5948 41.6049 61.4023 42.1226 61.7016 42.6104C61.8901 42.9173 62.3809 42.5969 62.6127 42.4305C62.9591 42.1803 63.3661 41.884 63.7395 41.5347C64.0121 41.28 64.5124 40.7906 65.2405 40.0664C65.9342 39.3755 66.4875 38.624 67.1668 37.913C67.6562 37.4011 68.0889 36.9078 68.4648 36.4331C69.0219 35.7298 69.58 35.1149 70.1178 34.3904C70.733 33.5636 71.4203 32.6312 72.1798 31.5933C72.6834 30.905 73.3303 30.7174 74.1206 31.0304C74.6055 31.2229 74.8403 31.6847 74.5401 32.1783C74.0988 32.9019 73.702 33.5642 73.3499 34.1652C72.7238 35.2339 72.2982 36.0107 72.073 36.4957C71.9428 36.7773 71.784 37.1387 71.5967 37.5801C71.2398 38.422 71.0541 39.1302 71.0175 39.9403C70.9934 40.4849 71.2186 41.0844 71.8873 40.9602C72.149 40.9121 72.4002 40.8076 72.6407 40.6466C73.7543 39.9038 74.4432 39.4464 74.7075 39.2745C74.9782 39.0987 75.3291 38.8155 75.7601 38.4249C76.3317 37.9072 76.9484 37.5127 77.4238 37.0855C77.8558 36.6958 78.2099 36.3388 78.5717 36.0531C78.902 35.7926 79.2972 35.4549 79.7571 35.0399C80.2093 34.6319 81.287 33.7214 82.9901 32.3082C83.0946 32.2216 83.3788 31.9599 83.8426 31.5231C83.9452 31.4268 84.087 31.2001 84.2678 30.8428C84.6476 30.0923 84.9844 29.4348 85.2781 28.8703C85.766 27.9341 88.0348 28.5326 87.2045 29.8931C87.0999 30.0644 86.9671 30.3376 86.8061 30.7129C86.7285 30.8951 86.5983 31.1687 86.4155 31.5336C86.062 32.2412 85.8529 32.6774 85.7881 32.8422C85.5597 33.4279 85.3814 33.8336 85.2531 34.0594C84.9693 34.5597 84.8019 35.165 84.5392 35.7163C84.536 35.7229 84.5348 35.7303 84.5359 35.7376C84.537 35.7449 84.5402 35.7517 84.5452 35.7571C84.5502 35.7625 84.5567 35.7663 84.5639 35.7679C84.571 35.7696 84.5785 35.769 84.5854 35.7663C84.5892 35.7644 84.5969 35.7599 84.6085 35.7529C84.6193 35.7458 84.6291 35.7371 84.6373 35.7269C84.9292 35.3728 85.1736 35.0896 85.3705 34.8773C85.8978 34.3077 86.2885 33.6495 86.8273 33.0876C87.0515 32.8528 87.2555 32.5507 87.47 32.3198C88.1545 31.5814 88.5461 31.1555 88.6449 31.042C89.1269 30.4897 89.5522 30.1135 90.0381 29.6035C90.5106 29.107 91.0869 28.7289 91.5468 28.318C91.9497 27.9575 92.3368 27.6708 92.7082 27.4578C93.8301 26.8141 94.724 26.3349 95.9643 26.4937C96.3671 26.545 96.7084 26.7583 96.988 27.1335C97.319 27.5774 97.4486 28.1166 97.3768 28.751C97.2815 29.5929 97.1959 30.0692 96.8803 30.7976C96.6801 31.2575 96.5008 31.711 96.3424 32.1581C96.3401 32.1647 96.3396 32.1719 96.3412 32.1787C96.3427 32.1856 96.3461 32.1918 96.351 32.1969C96.3559 32.2019 96.3621 32.2054 96.3689 32.2071C96.3757 32.2087 96.3829 32.2084 96.3895 32.2062C96.6214 32.1225 96.8033 32.0763 97.0015 31.984C97.5718 31.7165 98.05 31.4974 98.4361 31.3268C98.5824 31.2623 98.7565 31.1295 98.8797 31.0718C99.7678 30.66 100.465 30.406 101.254 29.9913C102.054 29.5711 103.051 29.099 104.248 28.5749C104.394 28.5108 104.545 28.429 104.702 28.3296C104.75 28.2997 104.791 28.2608 104.823 28.2151C105.933 26.6284 107.016 25.2611 108.33 24.1642C108.763 23.8031 109.345 23.4051 110.074 22.9701C110.463 22.7386 110.815 22.5769 111.13 22.4852C111.869 22.2706 112.818 22.082 113.544 22.5766C114.503 23.2309 114.493 24.2941 114.006 25.2823C113.77 25.7615 113.536 26.1486 113.303 26.4437C113.289 26.461 113.069 26.6897 112.643 27.1297C112.416 27.3638 112.176 27.5713 111.924 27.7522C111.19 28.2795 110.747 28.5833 110.594 28.6634C110.216 28.8629 109.577 29.1365 108.677 29.4842C107.915 29.778 107.138 29.8995 106.343 29.8489C106.314 29.8468 106.284 29.8537 106.258 29.8686C106.233 29.8836 106.212 29.9058 106.199 29.9326C106.009 30.3303 105.806 30.8011 105.591 31.3451C105.4 31.8329 105.381 32.365 105.278 32.7874C105.106 33.4908 105.292 34.6742 106.264 34.6329C106.681 34.6149 107.095 34.5309 107.507 34.3808C108.264 34.1037 108.9 33.8173 109.415 33.5215C110.341 32.9894 110.89 32.6902 111.531 32.2043C111.991 31.8547 112.325 31.6113 112.535 31.474C112.904 31.2328 113.235 30.9839 113.527 30.7273C114.099 30.227 114.651 29.9008 115.249 29.4034C115.625 29.091 116.018 28.7953 116.428 28.5162C116.926 28.1766 117.476 27.6637 117.977 27.299C118.018 27.2695 118.351 27.0133 118.978 26.5303C119.292 26.2884 119.636 26.0482 120.01 25.8096C120.608 25.4285 121.182 25.0145 121.735 24.5674C121.783 24.5288 121.822 24.4801 121.848 24.425C122.375 23.3229 122.787 22.4307 123.085 21.7482C123.37 21.0948 123.626 20.7128 124.344 20.733C124.75 20.7436 125.312 20.9264 125.382 21.3796C125.46 21.8809 125.047 22.4294 124.957 22.6978C124.866 22.9673 124.745 23.2418 124.593 23.5215C124.17 24.3057 123.93 25.1062 123.509 25.8837C123.334 26.2057 123.137 26.6653 122.918 27.2625C122.917 27.2649 122.917 27.2677 122.918 27.2702C122.918 27.2728 122.92 27.275 122.922 27.2763C122.925 27.2777 122.927 27.2781 122.93 27.2775C122.933 27.2769 122.935 27.2753 122.936 27.2731C123.464 26.6893 123.869 26.2105 124.152 25.8365C124.551 25.3086 124.951 24.8256 125.352 24.3874C126.135 23.5337 126.886 22.7318 127.606 21.982C128.027 21.5439 128.514 21.1048 129.068 20.6647C129.443 20.3664 129.634 20.2151 129.641 20.2106C130.374 19.7179 131.804 20.0258 131.323 21.2007C131.096 21.7543 130.817 22.4531 130.486 23.2973C130.359 23.6219 130.268 23.9089 130.213 24.1584C130.101 24.6713 129.443 26.1242 130.37 26.3744C131.146 26.5841 132.005 26.1569 132.623 25.698C133.11 25.3362 133.397 25.1271 133.483 25.0706C134.147 24.6318 134.585 24.1844 135.205 23.6466C135.429 23.4528 135.705 23.1953 136.036 22.8739C136.624 22.3011 137.315 21.6885 138.109 21.0361C138.27 20.9046 138.448 20.8469 138.644 20.8629C138.687 20.8668 138.727 20.8881 138.758 20.923C138.788 20.9579 138.806 21.0042 138.81 21.0535C138.822 21.2427 138.76 21.4082 138.624 21.5499C137.236 22.9945 136.294 23.9288 135.798 24.3528C135.752 24.3926 135.327 24.7611 134.523 25.4584C133.869 26.0254 133.092 26.5546 132.193 27.046C131.079 27.6541 129.253 27.8571 128.457 26.6063C128.143 26.1107 128.066 25.722 128.126 25.1264C128.165 24.7454 128.172 24.3672 128.281 23.9727C128.44 23.4031 128.573 22.9259 128.682 22.541C128.684 22.5331 128.683 22.5247 128.68 22.5171C128.677 22.5095 128.672 22.5031 128.665 22.4988C128.658 22.4945 128.649 22.4926 128.641 22.4932C128.633 22.4939 128.625 22.4971 128.619 22.5025C128.218 22.8701 127.757 23.3249 127.238 23.8669C126.954 24.1633 126.703 24.4468 126.486 24.7175C126.136 25.1534 125.763 25.5036 125.494 25.8654C125.188 26.2759 124.813 26.7384 124.368 27.2529C123.478 28.2843 122.556 29.6843 121.893 30.5686C121.533 31.0506 121.229 31.6077 120.856 32.162C120.341 32.925 120.071 34.0498 118.829 33.6283C118.273 33.4398 118.112 33.0504 118.345 32.4602C118.623 31.7553 118.777 31.3605 118.809 31.2758C119.016 30.7254 119.37 30.1337 119.574 29.5929C119.793 29.0137 120.1 28.5422 120.282 28.0197C120.339 27.8549 120.464 27.5803 120.654 27.1961C120.76 26.9825 120.88 26.7054 121.013 26.3648C121.024 26.3365 121.016 26.3189 120.988 26.3118C120.965 26.3061 120.946 26.3077 120.93 26.3166C120.873 26.3519 120.704 26.4886 120.422 26.7265C119.874 27.1894 119.227 27.6127 118.758 28.0322C118.459 28.2997 118.251 28.4684 118.131 28.5383C117.437 28.9463 116.875 29.5737 116.272 29.9787C115.884 30.2398 115.593 30.4653 115.398 30.6552C115.117 30.9291 114.855 31.143 114.611 31.297C113.961 31.7068 113.196 32.4073 112.469 32.8826C111.539 33.4908 110.871 33.9266 110.467 34.1903C110.248 34.3333 109.79 34.5806 109.094 34.9321C108.518 35.2233 108.038 35.419 107.653 35.5191C106.873 35.7224 106.209 35.8225 105.66 35.8193C104.606 35.8125 103.47 35.1775 103.237 34.095C103.201 33.934 103.163 33.6524 103.123 33.2502C103.058 32.6017 103.222 32.0003 103.378 31.3268C103.414 31.1696 103.526 30.8787 103.716 30.4541C103.827 30.2058 103.944 29.9159 104.068 29.5843C104.07 29.5774 104.071 29.57 104.069 29.5629C104.068 29.5558 104.064 29.5493 104.059 29.5442C104.054 29.5391 104.047 29.5356 104.04 29.5342C104.033 29.5327 104.026 29.5334 104.019 29.5361C103.666 29.6718 103.316 29.8777 102.926 30.0557C102.011 30.474 101.402 30.7594 101.099 30.9121C100.212 31.3598 99.4063 31.7383 98.6815 32.0475C97.7642 32.4394 97.2876 32.6453 97.2517 32.6652C96.9155 32.8531 96.3735 33.1084 95.6256 33.4311C95.5588 33.4604 95.5036 33.5112 95.4687 33.5754C95.1579 34.1489 94.7567 34.6579 94.3872 35.1794C94.0216 35.6961 93.6579 36.1608 93.2412 36.5727C92.5687 37.2385 91.8557 38.015 91.0003 38.5365C90.3325 38.9432 89.6548 39.2758 88.9672 39.5343C88.2061 39.8201 86.4616 39.9172 86.3548 38.702C86.2933 37.9948 86.5607 37.7148 87.063 37.1759C87.6557 36.5403 88.3177 36.0248 89.049 35.6297C89.5445 35.3622 90.1161 34.9898 90.5529 34.7974C91.4368 34.4087 92.307 33.9981 93.1633 33.5658C93.239 33.5273 93.3037 33.4696 93.3509 33.3984C93.8763 32.6123 94.1871 31.729 94.5441 30.9169C94.8731 30.1693 95.0425 29.3485 95.0781 28.5643C95.0864 28.3764 95.0675 28.2061 95.0213 28.0534C95.0124 28.0235 94.9981 27.9958 94.979 27.9716C94.8199 27.7728 94.5941 27.7349 94.3016 27.8581C93.8757 28.0364 93.5421 28.241 93.3009 28.472C93.2728 28.4988 93.2411 28.5218 93.2066 28.5403C92.7441 28.7885 92.3531 29.0743 92.0337 29.3976C91.7078 29.7273 91.4269 29.9874 91.1908 30.1779C90.8624 30.4422 90.6039 30.6882 90.4153 30.9159C90.1523 31.2341 89.7758 31.6321 89.2857 32.11C89.058 32.332 88.7873 32.6508 88.4736 33.0664C88.0214 33.6668 87.4056 34.3096 86.8937 35.0254C86.8013 35.155 86.6842 35.301 86.5425 35.4632C85.9664 36.1227 85.536 36.674 85.2512 37.1173C84.8702 37.7109 84.5334 38.0766 84.1755 38.6616C83.67 39.4865 83.3923 39.9346 83.3422 40.0058C82.7197 40.8977 82.4301 41.5068 81.8383 42.4776C81.6138 42.8452 81.3996 43.2275 81.1956 43.6246C80.8068 44.3808 79.9514 45.7953 79.4068 46.9643C79.1307 47.557 78.791 48.1286 78.5053 48.7396C78.4552 48.8454 78.191 49.4012 77.7124 50.4071C76.5212 52.9107 75.4545 55.2985 74.5122 57.5706C74.2716 58.1498 74.0782 58.806 73.8213 59.3872C73.6642 59.7413 73.4951 59.9655 73.3143 60.0598C73.0256 60.2105 72.7482 60.2413 72.482 60.1521C71.9515 59.9738 71.7799 59.5992 71.9672 59.0283C72.1779 58.3836 72.3694 57.7553 72.6349 57.1078C73.0583 56.0801 73.4647 55.0952 73.854 54.1529C74.1626 53.4049 75.6011 50.0757 78.1695 44.1653C78.5784 43.2224 79.0441 42.2313 79.5406 41.094C79.8896 40.2941 80.1481 39.719 80.3161 39.3688C80.5406 38.9005 80.795 38.3232 81.0791 37.6368C81.3014 37.099 81.6228 36.5544 81.8412 35.9896C81.9086 35.8138 82.0077 35.5925 82.1385 35.3257C82.3528 34.8882 82.5802 34.3721 82.8207 33.7775C82.8228 33.772 82.8238 33.7662 82.8235 33.7604C82.8232 33.7546 82.8217 33.7489 82.819 33.7438C82.8164 33.7387 82.8126 33.7342 82.8081 33.7307C82.8036 33.7273 82.7984 33.7248 82.7928 33.7236C82.7736 33.7191 82.754 33.7242 82.7341 33.739C82.4849 33.9228 82.1703 34.2672 81.8335 34.5309C81.5436 34.758 81.2713 34.9956 81.0166 35.2439C80.7414 35.5133 80.318 35.7654 80.1237 35.9617C79.64 36.4505 79.1041 36.9187 78.5159 37.3665C78.0912 37.6898 77.7371 37.99 77.4536 38.2671C77.1342 38.5788 76.7047 38.9297 76.1652 39.3197C75.5186 39.7873 74.5536 40.6668 73.7665 41.1229C72.8274 41.6665 72.3472 41.9301 71.5073 42.1659C70.5701 42.4286 69.4857 42.1149 69.0912 41.1488C68.8166 40.4753 68.7118 39.872 68.7766 39.339C68.8336 38.863 68.9036 38.4274 68.9863 38.0323C68.9991 37.9726 68.9998 37.9191 68.9882 37.8716ZM112.096 23.6052C111.698 23.6562 111.156 23.889 110.814 24.1508C110.567 24.3384 110.257 24.5318 110.024 24.7666C109.35 25.4468 108.859 25.876 108.461 26.4254C108.138 26.8738 108.006 27.072 107.654 27.5377C107.399 27.8751 107.157 28.2702 106.93 28.7231C106.924 28.7352 106.921 28.7488 106.922 28.7624C106.923 28.776 106.927 28.7891 106.935 28.8005C106.942 28.8118 106.953 28.821 106.965 28.827C106.977 28.833 106.991 28.8357 107.004 28.8347C108.406 28.7414 109.464 28.1044 110.538 27.1845C110.838 26.9276 111.082 26.5966 111.368 26.307C111.515 26.1569 111.671 25.951 111.837 25.6893C112.233 25.0619 112.637 24.5462 112.442 23.8534C112.389 23.6655 112.273 23.5827 112.096 23.6052ZM92.3099 34.9215C92.3119 34.9098 92.3107 34.8978 92.3062 34.8868C92.3017 34.8758 92.2941 34.8664 92.2844 34.8595C92.2747 34.8526 92.2633 34.8487 92.2515 34.8481C92.2396 34.8475 92.2278 34.8503 92.2175 34.8561C91.7011 35.1544 91.2527 35.3908 90.8723 35.5652C90.508 35.7327 90.1305 35.9434 89.7398 36.1974C88.9816 36.6894 88.5688 36.9575 88.5015 37.0018C88.0281 37.3145 87.4912 37.7148 87.3767 38.2103C87.2352 38.8271 87.9001 38.7761 88.2456 38.6443C89.4358 38.193 90.0487 37.4559 91.2091 36.3417C91.34 36.216 91.4596 36.0726 91.568 35.9116C91.7787 35.597 92.0741 35.2679 92.2685 35.0187C92.289 34.9918 92.3028 34.9594 92.3099 34.9215ZM46.1112 43.3561C45.8231 43.4369 45.5002 43.5684 45.1422 43.7506C44.6053 44.0239 44.1005 44.2558 43.6277 44.4463C43.0023 44.6984 42.2441 45.1535 41.5908 45.4508C40.9763 45.7298 40.5866 45.9139 40.4217 46.0031C39.2812 46.6183 38.2869 47.1337 37.4389 47.5493C37.0784 47.7257 36.7564 47.9005 36.4729 48.0737C36.0197 48.3508 35.3673 48.6511 34.8064 48.9965C34.1857 49.3775 33.6132 49.6046 33.0532 49.9731C32.4086 50.3974 31.6071 50.7852 30.7988 51.2721C29.056 52.3241 27.7387 53.1236 26.8471 53.6708C26.1178 54.1182 25.3095 54.6763 24.4926 55.1555C24.1565 55.353 23.7344 55.6375 23.2264 56.0089C22.7424 56.363 22.141 56.6498 21.657 57.0414C21.2702 57.3541 20.7622 57.6649 20.4062 57.891C20.1785 58.036 19.8715 58.2557 19.4854 58.5501C19.0697 58.8667 18.6059 59.1341 18.1691 59.4497C17.0549 60.2548 16.3592 60.7615 16.0821 60.97C15.184 61.6474 14.5907 62.0961 14.302 62.3161C11.9524 64.1135 9.66523 66.0513 7.44065 68.1297C6.30269 69.1926 5.10316 70.5024 3.84205 72.0593C3.55852 72.4101 3.31669 72.744 3.11655 73.0609C2.55656 73.95 2.01484 74.8487 2.06776 75.9023C2.0915 76.375 2.28586 76.7378 2.65085 76.9905C3.48796 77.5707 4.683 77.5062 5.67598 77.3379C9.13603 76.7519 12.2901 75.3019 15.4634 73.6825C16.1427 73.3361 16.7191 72.9714 17.408 72.5962C17.7672 72.4005 18.247 72.1186 18.8474 71.7504C21.2548 70.2734 23.5631 68.7638 25.8791 67.0376C28.3295 65.2107 30.8973 63.0958 33.5824 60.6929C36.3112 58.2515 39.0025 55.4021 41.6562 52.1448C42.1553 51.5322 42.8644 50.5309 43.7836 49.1408C44.1646 48.5641 44.478 48.0247 44.7237 47.5224C45.113 46.7264 45.3757 46.1603 45.5117 45.8241C45.5188 45.8062 45.6317 45.4803 45.8504 44.8465C46.0178 44.3626 46.1073 43.8728 46.1756 43.4119C46.177 43.4036 46.1762 43.3951 46.1733 43.3872C46.1704 43.3792 46.1655 43.3722 46.1591 43.3666C46.1526 43.361 46.1449 43.3571 46.1365 43.3553C46.1281 43.3535 46.1194 43.3538 46.1112 43.3561Z" fill="var(--fill-0, #96DA45)"/>
<path id="Vector_10" d="M175.507 13.9213C175.621 14.1605 175.586 14.3947 175.401 14.6237C174.672 15.5307 173.994 16.311 173.367 16.9647C171.421 18.993 169.482 20.8385 167.551 22.5011C166.741 23.1978 165.974 23.8094 165.251 24.336C164.256 25.0596 162.731 25.9698 161.483 25.7668C160.672 25.6347 160.151 25.1686 159.918 24.3687C159.849 24.1352 159.823 23.7545 159.84 23.2266C159.853 22.7776 159.98 22.1441 160.221 21.3263C160.445 20.5636 160.799 19.6572 161.28 18.6071C162.004 17.0285 162.862 15.3726 163.854 13.6393C164.153 13.1178 164.447 12.732 164.798 12.2182C165.099 11.7784 165.731 11.714 166.216 11.8573C166.826 12.0382 167.072 12.5905 166.73 13.1419C165.974 14.3587 165.323 15.455 164.776 16.4306C164.11 17.6174 163.492 18.8284 162.923 20.0639C162.608 20.7442 162.495 21.1146 162.192 21.9488C161.966 22.5755 161.864 23.2244 161.887 23.8953C161.936 25.3425 164.503 23.5422 164.978 23.1573C165.596 22.6576 165.942 22.376 166.015 22.3125C166.779 21.6525 167.872 20.7634 168.731 19.9571C170.734 18.0731 173.04 15.7879 174.546 14.2696C174.734 14.0797 174.934 13.9318 175.146 13.826C175.18 13.8094 175.216 13.7987 175.252 13.7945C175.288 13.7903 175.324 13.7927 175.358 13.8016C175.392 13.8105 175.422 13.8256 175.448 13.8462C175.473 13.8667 175.494 13.8922 175.507 13.9213Z" fill="var(--fill-0, #96DA45)"/>
<path id="Vector_11" d="M156.56 16.6086C157.143 16.4441 157.355 16.8636 157.272 17.3572C157.204 17.7642 157.123 18.0298 156.676 18.1375C155.772 18.3569 154.726 18.5099 153.857 18.6956C151.847 19.1238 150.634 19.398 149.132 19.6944C147.446 20.0282 146.007 20.4555 144.333 20.7653C143.917 20.8423 143.11 21.0209 141.914 21.3012C141.536 21.3891 141.288 21.2691 141.17 20.9414C141.134 20.8432 141.139 20.6716 141.184 20.4266C141.246 20.084 141.445 19.8743 141.781 19.7973C142.884 19.5433 144.247 19.3133 145.414 19.0612C146.58 18.8091 147.266 18.6587 147.473 18.61C148.446 18.3829 149.594 18.2068 150.719 17.922C150.892 17.8777 151.324 17.7802 152.014 17.6295C153.915 17.2138 155.147 16.9402 155.71 16.8087C156.258 16.6804 156.541 16.6137 156.56 16.6086Z" fill="var(--fill-0, #96DA45)"/>
</g>
</svg>
