<svg preserveAspectRatio="xMidYMid meet" overflow="visible" style="display: block;" viewBox="0 0 71.3795 25.4475" fill="none" xmlns="">
<g id="Group 427321298">
<g id="Vector">
</g>
<g id="Vector_2">
</g>
<g id="Vector_3">
</g>
<g id="Vector_4">
</g>
<g id="Vector_5">
</g>
<g id="Vector_6">
</g>
<g id="Vector_7">
</g>
<g id="Vector_8">
</g>
<g id="Vector_9">
</g>
<g id="Vector_10">
</g>
<path id="Vector_11" d="M4.79254 10.5845L4.80666 10.608C4.81225 10.6178 4.82095 10.6255 4.83134 10.6298C4.84173 10.6341 4.85321 10.6347 4.86391 10.6315C5.35377 10.4977 5.82743 10.4559 6.28489 10.5061C6.3231 10.5101 6.3589 10.5267 6.3867 10.5532C6.4145 10.5797 6.43275 10.6147 6.43859 10.6527C6.46107 10.7965 6.40696 10.8793 6.27626 10.9013C5.84286 10.9745 5.41442 11.0404 4.99095 11.0989C4.6506 11.146 4.3513 11.2045 4.09303 11.2746C3.71112 11.3789 3.33313 11.4306 2.90731 11.564C2.38084 11.7276 1.87372 11.8638 1.38595 11.9725C0.770345 12.1098 0.213559 12.0353 0.0135858 11.3522C-0.118161 10.9005 0.743683 10.4394 1.06913 10.3257C1.46228 10.1877 2.06951 9.96182 2.89084 9.64813C3.05657 9.5854 3.22465 9.52658 3.39509 9.47169C3.56291 9.41784 3.73125 9.3619 3.90012 9.30387C4.57976 9.0707 5.33835 8.82733 6.17588 8.57377C7.4314 8.19421 8.51517 7.81623 9.62639 7.54097C10.1168 7.41968 10.7151 7.25787 11.4214 7.05554C12.6328 6.7084 14.1392 6.31212 15.9408 5.86669C16.5933 5.70566 17.2894 5.54673 18.0292 5.38989C19.1171 5.15986 19.8153 5.01138 20.1238 4.94446C20.5195 4.85872 21.3594 4.68332 22.6434 4.41826C24.3243 4.07111 25.464 3.85311 26.0626 3.76423C26.3606 3.72031 26.5104 3.69809 26.5119 3.69757C27.5816 3.48583 28.394 3.33448 29.4064 3.11412C30.331 2.91415 31.3881 2.76201 32.1371 2.60595C32.8381 2.45931 33.5722 2.35814 34.2646 2.23189C35.5272 2.00081 36.5838 1.81521 37.4344 1.6751C38.5819 1.48585 39.3259 1.36508 39.6662 1.3128C39.9187 1.27411 40.2154 1.22183 40.5563 1.15596C40.8752 1.09374 41.1714 1.0412 41.4448 0.99833C42.5463 0.826328 43.3776 0.677329 43.9386 0.551333C44.5571 0.411744 44.9847 0.318423 45.2215 0.271371C45.381 0.240003 45.5182 0.200792 45.6332 0.15374C45.7964 0.086298 46.1069 -0.0509381 46.2457 0.0196405C46.2592 0.0263845 46.2704 0.0367621 46.2783 0.0499206C46.2862 0.063079 46.2906 0.0786423 46.2911 0.0953311C46.2917 0.11202 46.2883 0.129358 46.2814 0.145919C46.2744 0.162481 46.2641 0.177793 46.2512 0.190597C46.0183 0.42037 45.7187 0.650142 45.4137 0.821884C44.8888 1.11779 44.5612 1.2911 44.4311 1.34181C43.8173 1.58021 43.0919 1.79535 42.2549 1.98722C40.3974 2.4133 38.5181 2.79495 36.6172 3.13216C36.2408 3.19908 35.7747 3.28743 35.219 3.39722C33.6741 3.70384 32.0806 3.95322 30.6047 4.23083C29.4059 4.45616 28.3044 4.65326 27.3001 4.82212C26.9728 4.87754 26.381 5.00145 25.5246 5.19384C24.3507 5.45812 22.7101 5.75219 21.6687 5.98589C21.5346 6.01647 21.2687 6.04392 21.1135 6.07999C20.1395 6.30793 19.5192 6.44909 19.2525 6.50346C18.6607 6.62423 18.1607 6.74369 17.7523 6.86185C16.9281 7.10024 15.8342 7.37001 14.8288 7.58645C14.0498 7.7548 13.5733 7.86406 13.3992 7.91425C12.3907 8.20702 11.7769 8.37746 11.5579 8.42555C10.7993 8.59076 10.2245 8.73479 9.83342 8.85765C8.65555 9.2278 7.52237 9.54462 6.38135 9.95241C6.15602 10.0329 5.93043 10.1045 5.70458 10.1673C5.42226 10.2462 5.12818 10.3547 4.82234 10.4927C4.81399 10.4965 4.8065 10.5019 4.80039 10.5087C4.79427 10.5155 4.78965 10.5235 4.78684 10.5322C4.78403 10.5408 4.78308 10.55 4.78406 10.559C4.78505 10.568 4.78793 10.5767 4.79254 10.5845Z" fill="var(--fill-0, #9EF965)"/>
<path id="Vector_12" d="M50.8748 5.55588C50.5093 5.54437 50.0976 5.56215 49.6396 5.6092C49.0212 5.67298 48.4361 5.87374 47.8846 6.21147C47.8485 6.23343 47.786 6.28937 47.6972 6.37929C47.3552 6.7267 47.2423 6.05542 47.2243 5.87819C47.2199 5.83576 47.2245 5.79285 47.2379 5.7523C47.2513 5.71175 47.2731 5.67447 47.3019 5.64292C47.8469 5.04222 48.3904 4.79598 49.2624 4.70031C49.9784 4.62189 50.6285 4.51523 51.2559 4.63443C51.8887 4.75442 52.2605 5.23984 52.0809 5.8876C52.0438 6.02143 51.9452 6.20023 51.7852 6.42399C51.632 6.63782 51.3628 6.94079 50.9775 7.33289C50.7156 7.59952 50.514 7.9132 50.249 8.12023C50.2317 8.13383 50.2176 8.15526 50.2066 8.18454C50.2016 8.19739 50.2001 8.21129 50.2023 8.22491C50.2045 8.23853 50.2102 8.2514 50.219 8.26228C50.2277 8.27316 50.2392 8.28168 50.2523 8.28702C50.2654 8.29236 50.2796 8.29434 50.2937 8.29276C51.1038 8.20728 52.2346 8.45587 52.6847 9.15539C53.2093 9.96939 52.7208 10.8618 52.2361 11.6201C51.8341 12.2486 51.4279 12.7431 51.0175 13.1039C50.8465 13.2534 50.4989 13.5166 49.9745 13.8936C49.5949 14.1665 49.1573 14.3217 48.6962 14.5633C48.6525 14.5862 48.6025 14.5938 48.5546 14.585C48.5067 14.5762 48.4637 14.5514 48.4327 14.5147C48.2728 14.3257 48.3998 14.172 48.5747 14.0457C49.2841 13.5354 49.9996 12.8618 50.7211 12.0248C51.1832 11.4879 51.5097 10.9983 51.7005 10.556C51.8362 10.2415 51.8895 9.989 51.7413 9.68159C51.6268 9.44554 51.1735 9.39143 50.9336 9.36948C50.415 9.32033 49.7055 9.38228 48.8052 9.55533C48.4814 9.61728 48.13 9.41339 48.0877 9.05736C48.0493 8.73897 48.2916 8.54135 48.519 8.30531C48.8154 7.99868 49.1095 7.75009 49.4601 7.44346C49.8161 7.13213 50.1972 6.7118 50.4921 6.384C50.685 6.17017 50.8413 5.94197 50.961 5.69939C50.9684 5.68444 50.9719 5.66788 50.9712 5.65124C50.9705 5.63459 50.9656 5.61839 50.957 5.60411C50.9484 5.58983 50.9364 5.57794 50.922 5.56951C50.9077 5.56108 50.8914 5.55639 50.8748 5.55588Z" fill="var(--fill-0, #9EF965)"/>
<path id="Vector_13" d="M57.363 6.64642C57.1988 6.62707 57.0276 6.62733 56.8493 6.6472C56.0957 6.73111 55.3217 6.89423 54.663 7.3326C54.5746 7.39115 54.4839 7.40501 54.3909 7.37416C54.1823 7.30358 54.0442 6.76797 54.1556 6.59701C54.1715 6.57292 54.1937 6.55366 54.2199 6.54133C54.485 6.41743 54.7754 6.25771 55.0911 6.06218C55.1345 6.035 55.2284 5.99814 55.3727 5.95161C56.1799 5.68968 57.0232 5.5927 57.9025 5.66067C58.2047 5.68419 58.4099 5.79634 58.5181 5.99709C58.6624 6.26581 58.6713 6.53637 58.5448 6.80875C58.1982 7.55374 57.7175 8.09641 57.2077 8.74731C57.1769 8.78652 57.1314 8.8733 57.0713 9.00766C57.0657 9.02007 57.0633 9.0337 57.0645 9.04727C57.0657 9.06084 57.0704 9.07389 57.0781 9.0852C57.0858 9.0965 57.0962 9.10569 57.1085 9.11188C57.1208 9.11807 57.1344 9.12107 57.1481 9.12059C57.8892 9.09471 59.2553 9.13863 59.5525 9.99733C59.7289 10.5086 59.6192 11.005 59.3565 11.4638C59.0318 12.03 58.6381 12.5256 58.1754 12.9507C57.9715 13.1383 57.6213 13.4201 57.1246 13.796C56.8852 13.9774 56.669 14.1113 56.4761 14.1975C56.0306 14.3967 55.7975 14.5008 55.7765 14.5097C55.6424 14.5677 55.4809 14.4893 55.4409 14.3426C55.4106 14.2318 55.4485 14.1288 55.5546 14.0336C55.5996 13.9934 55.8476 13.8015 56.2988 13.458C56.9685 12.9475 57.5575 12.3076 58.0774 11.6936C58.3038 11.4259 58.475 11.1148 58.5911 10.7604C58.7463 10.2844 58.3785 10.1212 57.9982 10.0914C57.351 10.0418 56.7346 10.0815 56.149 10.2106C55.9614 10.2514 55.7682 10.2668 55.5695 10.2569C55.5218 10.2545 55.4754 10.2405 55.4341 10.2162C55.3929 10.1919 55.3581 10.158 55.3327 10.1173C55.1058 9.75501 55.1513 9.43113 55.4691 9.14568C56.0965 8.58184 56.7819 7.95212 57.2901 7.20242C57.3816 7.06753 57.4446 6.94023 57.4791 6.82051C57.4845 6.80137 57.4858 6.78127 57.4827 6.7616C57.4797 6.74194 57.4724 6.72317 57.4613 6.70661C57.4503 6.69004 57.4358 6.67608 57.4188 6.66569C57.4018 6.65529 57.3828 6.64872 57.363 6.64642Z" fill="var(--fill-0, #9AF87F)"/>
<path id="Vector_14" d="M21.1037 19.5421C21.0986 19.5588 21.0891 19.5739 21.0761 19.5856C21.0631 19.5973 21.0472 19.6053 21.0301 19.6087C21.0129 19.6121 20.9952 19.6107 20.9787 19.6048C20.9623 19.5989 20.9477 19.5886 20.9367 19.575C20.7194 19.3045 20.7383 18.7124 20.7806 18.4317C20.8237 18.1446 20.9037 17.8827 20.8967 17.5377C20.8878 17.0499 20.892 16.7027 20.9092 16.4962C20.9176 16.3985 20.9552 16.1629 21.0221 15.7897C21.1147 15.2705 21.1178 14.7992 21.2072 14.3138C21.27 13.974 21.305 13.7149 21.3123 13.5366C21.3413 12.8552 21.4942 12.169 21.5531 11.5095C21.5708 11.3103 21.5949 11.1568 21.6252 11.0491C21.7687 10.5441 21.7789 10.0014 21.8848 9.53248C21.9533 9.22611 22.0076 8.92602 22.0479 8.63221C22.1138 8.1528 22.2183 7.61404 22.3616 7.01596C22.3877 6.90721 22.4457 6.77625 22.5357 6.62307C22.7945 6.18078 23.3748 6.41212 23.4359 6.845C23.4605 7.01596 23.4537 7.24939 23.4155 7.5453C23.2948 8.49575 23.1411 9.22428 23.0164 10.1387C22.9719 10.4675 22.8998 10.88 22.7999 11.3761C22.7869 11.442 22.7505 11.5625 22.6909 11.7377C22.6701 11.7987 22.6548 11.8614 22.6455 11.9251C22.5895 12.3214 22.5004 12.892 22.378 13.637C22.3435 13.8482 22.2981 14.0715 22.2416 14.3067C22.2181 14.4071 22.17 14.6293 22.0973 14.9733C21.8009 16.3796 21.6064 17.2574 21.5138 17.6067C21.4814 17.7301 21.4328 17.8976 21.368 18.1093C21.3596 18.1375 21.3536 18.1664 21.3499 18.1956C21.2951 18.6473 21.2362 19.1053 21.1037 19.5421Z" fill="var(--fill-0, #9EF965)"/>
<path id="Vector_15" d="M42.243 17.3842C41.8023 17.3256 41.3718 17.3654 40.9514 17.5034C41.3451 16.8415 41.52 16.091 41.7129 15.2998C41.9225 14.4397 42.0611 13.8973 42.1285 13.6725C42.232 13.3267 42.3207 13.111 42.3669 12.7887C42.3722 12.7532 42.3742 12.7346 42.3732 12.733C42.3664 12.7228 42.3572 12.7143 42.3466 12.7081C42.3359 12.702 42.3239 12.6984 42.3116 12.6977C42.2993 12.6969 42.287 12.699 42.2757 12.7038C42.2643 12.7085 42.2542 12.7159 42.2462 12.7252C41.9926 13.019 41.7291 13.2904 41.4557 13.5392C41.0675 13.8921 40.6495 14.2199 40.1053 14.1972C39.7053 14.1799 39.303 13.8325 39.114 13.5188C38.9596 13.264 38.8341 12.9213 38.7957 12.5542C38.7455 12.078 38.7452 11.661 38.7949 11.3034C38.8043 11.2355 38.8647 11.1278 38.976 10.9803C39.1062 10.8078 39.2772 10.7417 39.4889 10.7819C39.6363 10.8102 39.75 10.9011 39.8857 10.9811C39.9058 10.993 39.9232 11.0093 39.9367 11.029C40.0062 11.1304 40.0253 11.2417 39.9939 11.363C39.8496 11.923 39.7571 12.5088 39.9045 13.0797C39.9149 13.1196 39.9395 13.1543 39.9738 13.1773C40.008 13.2003 40.0495 13.2099 40.0904 13.2044C40.472 13.1536 40.7946 13.0023 41.0581 12.7503C41.8041 12.0382 42.4289 11.2506 42.9323 10.3875C43.0555 10.1765 43.3174 9.78443 43.6154 9.96009C43.9008 10.1284 44.0059 10.3687 43.9306 10.6808C43.8005 11.2195 43.5872 11.7857 43.475 12.3715C43.2957 13.3121 43.0257 14.3987 42.6649 15.6315C42.5938 15.8741 42.6074 16.0942 42.7057 16.2918C42.7278 16.3362 42.7369 16.3859 42.7321 16.4353C42.7272 16.4847 42.7086 16.5317 42.6783 16.571C42.4948 16.8073 42.3497 17.0783 42.243 17.3842Z" fill="var(--fill-0, #9EF965)"/>
<path id="Vector_16" d="M38.4377 12.8619C38.4984 12.921 38.4963 12.9963 38.4314 13.0878C37.7821 14.0108 37.2779 14.6428 36.547 15.2765C36.2592 15.5259 35.8835 15.7862 35.4914 15.7188C35.144 15.6584 34.9472 15.1996 34.937 14.8891C34.9302 14.6674 34.9618 14.417 35.0319 14.1378C35.2013 13.4634 35.4805 12.7498 35.5918 12.0808C35.5944 12.0658 35.5937 12.0504 35.5898 12.0356C35.5858 12.0209 35.5788 12.0071 35.569 11.9953C35.5593 11.9835 35.5471 11.9739 35.5333 11.9671C35.5195 11.9604 35.5045 11.9566 35.4891 11.9561C35.2358 11.9499 34.8704 12.1906 34.6696 12.4008C34.061 13.0365 33.578 13.6511 33.2204 14.2445C32.9172 14.7469 32.6563 15.1659 32.4377 15.5015C32.2817 15.7415 32.0464 15.9532 31.7547 15.7156C31.3053 15.351 31.5281 14.7432 31.739 14.2531C31.9372 13.7925 32.088 13.4472 32.1915 13.2171C32.3891 12.7772 32.4605 12.4769 32.6181 11.9593C32.6221 11.9459 32.622 11.9317 32.6178 11.9185C32.6137 11.9052 32.6057 11.8934 32.5948 11.8848C32.5839 11.8761 32.5707 11.8708 32.5568 11.8697C32.543 11.8686 32.5291 11.8717 32.5169 11.8785L31.7712 12.3098C31.7545 12.3192 31.7392 12.3303 31.7257 12.3428C31.2149 12.8075 30.6673 13.2119 30.0828 13.5559C29.5628 13.8618 29.4327 14.3739 29.1135 14.8373C28.6074 15.5734 27.9957 16.1663 27.2784 16.6159C27.2147 16.6556 27.0531 16.7173 26.7938 16.801C26.0347 17.0472 25.5187 16.5979 25.2277 15.9478C25.0892 15.6388 25.0495 15.3021 25.1085 14.9377C25.2097 14.3158 25.3399 13.73 25.6575 13.2093C26.1547 12.3953 26.8401 11.7536 27.7137 11.2841C27.7822 11.2475 27.9011 11.2221 28.0705 11.208C28.5559 11.1664 29.028 11.2292 29.395 11.524C29.6593 11.7358 29.7856 12.2675 29.8193 12.6031C29.8207 12.6172 29.8257 12.6306 29.834 12.6421C29.8422 12.6536 29.8533 12.6627 29.8661 12.6686C29.879 12.6746 29.8933 12.6771 29.9074 12.6759C29.9216 12.6747 29.9353 12.6699 29.9471 12.6619C30.5546 12.2468 31.0954 11.8335 31.5696 11.4221C31.854 11.1748 32.2451 10.9709 32.7428 10.8104C32.7691 10.8016 32.797 10.799 32.8244 10.8026C33.1867 10.8473 33.4745 11.2817 33.4996 11.6032C33.5121 11.7742 33.4556 12.0306 33.4447 12.1992C33.4439 12.2118 33.4469 12.2244 33.4533 12.2352C33.4598 12.2461 33.4693 12.2547 33.4807 12.2601C33.4922 12.2654 33.5049 12.2672 33.5174 12.2651C33.5298 12.2631 33.5414 12.2574 33.5505 12.2487C33.9066 11.9135 34.2699 11.6155 34.6406 11.3547C35.1103 11.0237 35.7393 10.7814 36.2208 11.2386C36.4382 11.4451 36.5222 11.7083 36.4725 12.0283C36.3345 12.9129 36.1295 13.8351 35.8577 14.795C35.8543 14.8069 35.8544 14.8195 35.8577 14.8314C35.8611 14.8433 35.8677 14.8541 35.8767 14.8625C35.8858 14.8709 35.897 14.8767 35.9092 14.8792C35.9213 14.8816 35.9339 14.8807 35.9455 14.8765C36.0051 14.8546 36.0819 14.8062 36.1761 14.7315C36.8526 14.1961 37.4287 13.6621 37.9044 13.1293C38.0027 13.0195 38.1562 12.9252 38.3648 12.8462C38.3772 12.8416 38.3906 12.8406 38.4035 12.8434C38.4165 12.8461 38.4283 12.8526 38.4377 12.8619ZM28.987 12.548C28.9905 12.4405 28.9513 12.336 28.8778 12.2575C28.8043 12.179 28.7027 12.1329 28.5952 12.1293L28.4306 12.1239C28.3231 12.1203 28.2187 12.1596 28.1401 12.233C28.0616 12.3065 28.0155 12.4082 28.012 12.5156L28.0057 12.7053C28.0021 12.8128 28.0414 12.9173 28.1148 12.9958C28.1883 13.0743 28.29 13.1204 28.3974 13.124L28.562 13.1294C28.6695 13.133 28.774 13.0937 28.8525 13.0202C28.931 12.9468 28.9771 12.8451 28.9807 12.7377L28.987 12.548ZM27.0455 13.1372C26.8495 13.2783 26.717 13.5002 26.5829 13.7277C26.3013 14.2029 26.0237 14.9863 26.2276 15.5235C26.317 15.7603 26.6252 15.7188 26.8158 15.6435C27.4792 15.3823 27.9231 14.8695 28.3505 14.3001C28.3645 14.2816 28.3738 14.2599 28.3776 14.2369C28.3814 14.214 28.3796 14.1905 28.3724 14.1684C28.3651 14.1463 28.3526 14.1262 28.336 14.11C28.3193 14.0937 28.299 14.0818 28.2767 14.0751C28.0436 14.004 27.8449 13.902 27.6807 13.7692C27.4949 13.6187 27.3976 13.4226 27.2306 13.1709C27.2209 13.1562 27.2084 13.1436 27.1937 13.134C27.179 13.1243 27.1626 13.1176 27.1453 13.1145C27.128 13.1113 27.1102 13.1117 27.0931 13.1156C27.0759 13.1195 27.0598 13.1268 27.0455 13.1372Z" fill="var(--fill-0, #9EF965)"/>
<path id="Vector_17" d="M40.9504 17.5035C41.3708 17.3655 41.8013 17.3257 42.242 17.3843C42.1463 17.6219 42.0209 17.8752 41.9566 18.1105C41.8499 18.5047 41.6959 18.9548 41.4947 19.4609C41.4696 19.5236 41.4513 19.5924 41.4398 19.6671C41.438 19.679 41.4394 19.6912 41.4439 19.7024C41.4483 19.7136 41.4556 19.7234 41.4651 19.7307C41.4745 19.7381 41.4858 19.7428 41.4976 19.7443C41.5094 19.7458 41.5214 19.744 41.5323 19.7393C42.1675 19.4632 42.8725 19.2954 43.5344 19.0688C43.95 18.9266 44.3526 18.8016 44.7421 18.6939C45.5001 18.4843 46.2459 18.249 46.9794 17.9881C47.5017 17.8031 48.1706 17.629 48.6349 17.4659C50.6184 16.77 52.1275 16.2807 53.1621 15.9978C54.1763 15.7202 54.7078 15.5728 54.7564 15.5555C54.9686 15.4797 55.3362 15.3754 55.859 15.2426C56.4911 15.0819 56.8008 15.0105 57.3388 14.8537C58.1899 14.6048 58.7211 14.4569 58.9323 14.4098C60.3224 14.1003 61.5157 13.8232 62.5122 13.5785C63.6493 13.2994 64.9574 13.0421 65.9572 12.8986C66.5119 12.8186 67.1207 12.7609 67.7836 12.7253C68.1627 12.7049 68.5182 12.6754 68.8502 12.6367C69.4075 12.5719 69.7627 12.5382 69.9159 12.5355C70.5767 12.5256 70.995 12.5146 71.1706 12.5026C71.2433 12.4974 71.2969 12.5047 71.3314 12.5246C71.3478 12.534 71.3608 12.5478 71.3692 12.5647C71.3776 12.5816 71.381 12.6008 71.3789 12.6203C71.3769 12.6399 71.3696 12.659 71.3578 12.6757C71.346 12.6924 71.3301 12.706 71.3118 12.7151C70.8828 12.9269 70.4013 12.8681 69.919 12.9512C69.1333 13.0861 68.4735 13.2008 67.9397 13.2954C67.6472 13.348 67.2778 13.4805 66.903 13.5378C66.7548 13.5605 66.5752 13.6248 66.4364 13.6554C64.9495 13.9806 63.7097 14.2851 62.7169 14.569C62.4701 14.6401 61.2653 14.9802 59.1025 15.5892C58.323 15.8096 57.5176 15.9665 56.7498 16.19C56.1669 16.3593 55.1702 16.6688 53.7597 17.1185C52.9221 17.3856 52.0697 17.6426 51.2024 17.8893C50.4406 18.1058 49.5908 18.3708 48.6529 18.6845C47.1833 19.176 45.5788 19.6985 43.8394 20.2521C42.8459 20.5682 42.0413 20.7948 41.3112 20.9634C40.9763 21.0403 40.8744 21.161 40.7285 21.4802C40.036 22.9914 39.5553 24.1779 38.5006 25.133C38.0991 25.4961 37.5485 25.5816 37.1258 25.1926C36.8728 24.96 36.6809 24.7015 36.5502 24.4171C36.2298 23.7191 36.0829 22.9948 36.1095 22.244C36.1166 22.0409 36.1495 21.8833 36.2468 21.6865C36.4381 21.2985 36.6334 20.885 36.8326 20.4458C36.9549 20.1771 37.159 19.8451 37.445 19.4499C37.9229 18.7886 38.4475 18.3191 39.0189 18.0415C39.5297 17.7937 40.1735 17.6143 40.9504 17.5035ZM40.8234 17.7968C40.804 17.7712 40.7823 17.7693 40.7583 17.7913C40.5426 17.9897 40.3199 18.1975 40.087 18.3324C40.0232 18.369 39.8706 18.4634 39.629 18.6155C39.1287 18.9308 38.7139 19.3221 38.2975 19.7691C38.0567 20.0286 37.663 20.6333 37.663 20.9399C37.663 20.9547 37.6665 20.9693 37.6733 20.9825C37.68 20.9957 37.6898 21.0072 37.7018 21.0158C37.7139 21.0245 37.7278 21.0301 37.7425 21.0324C37.7571 21.0346 37.7721 21.0332 37.7861 21.0285C38.4621 20.8053 39.1854 20.5284 39.9561 20.198C40.116 20.1295 40.2211 20.0184 40.2713 19.8647C40.4757 19.2374 40.6616 18.5651 40.8289 17.8478C40.8341 17.8253 40.8323 17.8083 40.8234 17.7968ZM39.3091 21.6504C39.2432 21.6546 39.1891 21.6645 39.1468 21.6802C38.5758 21.8909 38.0091 22.0765 37.4466 22.237C37.3326 22.2694 37.2707 22.357 37.2607 22.4997C37.2231 23.0434 37.2471 23.493 37.3329 23.8485C37.3642 23.9792 37.4082 24.0851 37.4646 24.1661C37.4935 24.2075 37.5375 24.2374 37.59 24.2512C37.6425 24.2649 37.7004 24.2618 37.7548 24.2422C37.8839 24.1957 37.9989 24.1104 38.0998 23.9865C38.6587 23.298 39.0976 22.5692 39.4165 21.8002C39.4237 21.7831 39.4263 21.7645 39.4242 21.7462C39.4222 21.7278 39.4154 21.7103 39.4046 21.6953C39.3939 21.6802 39.3794 21.6682 39.3627 21.6604C39.346 21.6525 39.3275 21.6491 39.3091 21.6504Z" fill="var(--fill-0, #9EF965)"/>
</g>
</svg>
